<mxfile host="Electron" modified="2024-04-29T21:36:39.546Z" agent="Mozilla/5.0 (Windows NT 10.0; Win64; x64) AppleWebKit/537.36 (KHTML, like Gecko) draw.io/24.2.5 Chrome/120.0.6099.109 Electron/28.1.0 Safari/537.36" etag="TdCGZuGw7uyVNk1UQx4I" version="24.2.5" type="device">
  <diagram id="_Q3yRrHQoktY_3K_HgRO" name="Processamento dos dados">
    <mxGraphModel dx="1050" dy="1021" grid="1" gridSize="10" guides="1" tooltips="1" connect="1" arrows="1" fold="1" page="1" pageScale="1" pageWidth="800" pageHeight="400" math="0" shadow="0">
      <root>
        <mxCell id="0" />
        <mxCell id="1" parent="0" />
        <mxCell id="0C0zzfNq5MIXWUPN0tT3-34" style="edgeStyle=orthogonalEdgeStyle;rounded=0;orthogonalLoop=1;jettySize=auto;html=1;exitX=0;exitY=0.5;exitDx=0;exitDy=0;entryX=0.5;entryY=0;entryDx=0;entryDy=0;fontSize=12;" parent="1" source="0C0zzfNq5MIXWUPN0tT3-26" target="0C0zzfNq5MIXWUPN0tT3-42" edge="1">
          <mxGeometry relative="1" as="geometry">
            <mxPoint x="360" as="targetPoint" />
          </mxGeometry>
        </mxCell>
        <mxCell id="0C0zzfNq5MIXWUPN0tT3-9" value="" style="whiteSpace=wrap;html=1;fillColor=none;dashed=1;fontColor=#291466;strokeColor=#291466;strokeWidth=3;" parent="1" vertex="1">
          <mxGeometry x="10" y="-370" width="160" height="460" as="geometry" />
        </mxCell>
        <mxCell id="0C0zzfNq5MIXWUPN0tT3-16" value="Importação" style="edgeStyle=orthogonalEdgeStyle;rounded=0;orthogonalLoop=1;jettySize=auto;html=1;fontSize=12;" parent="1" source="0C0zzfNq5MIXWUPN0tT3-43" target="0C0zzfNq5MIXWUPN0tT3-15" edge="1">
          <mxGeometry x="-0.2" relative="1" as="geometry">
            <mxPoint x="280" y="-160" as="sourcePoint" />
            <mxPoint as="offset" />
          </mxGeometry>
        </mxCell>
        <mxCell id="0C0zzfNq5MIXWUPN0tT3-7" value="Exportação" style="edgeStyle=orthogonalEdgeStyle;rounded=0;orthogonalLoop=1;jettySize=auto;html=1;entryX=0;entryY=0.5;entryDx=0;entryDy=0;exitX=1;exitY=0.5;exitDx=0;exitDy=0;fontSize=12;" parent="1" source="0C0zzfNq5MIXWUPN0tT3-42" target="mrAK-Dbqs_JbjPh-Ceqg-5" edge="1">
          <mxGeometry relative="1" as="geometry">
            <mxPoint x="400" y="40" as="sourcePoint" />
            <mxPoint as="offset" />
          </mxGeometry>
        </mxCell>
        <mxCell id="0C0zzfNq5MIXWUPN0tT3-36" value="Importação" style="edgeStyle=orthogonalEdgeStyle;rounded=0;orthogonalLoop=1;jettySize=auto;html=1;entryX=0.5;entryY=1;entryDx=0;entryDy=0;fontSize=12;" parent="1" source="mrAK-Dbqs_JbjPh-Ceqg-5" target="0C0zzfNq5MIXWUPN0tT3-35" edge="1">
          <mxGeometry x="-0.2" relative="1" as="geometry">
            <Array as="points">
              <mxPoint x="640" y="-10" />
              <mxPoint x="640" y="-10" />
            </Array>
            <mxPoint as="offset" />
          </mxGeometry>
        </mxCell>
        <mxCell id="mrAK-Dbqs_JbjPh-Ceqg-5" value="Dados CSV" style="shape=image;imageAspect=0;verticalLabelPosition=bottom;verticalAlign=top;image=data:image/svg+xml,PHN2ZyB4bWxucz0iaHR0cDovL3d3dy53My5vcmcvMjAwMC9zdmciIGhlaWdodD0iNjQiIHZpZXdCb3g9IjAgMCA1NiA2NCIgd2lkdGg9IjU2Ij48cGF0aCBjbGlwLXJ1bGU9ImV2ZW5vZGQiIGQ9Im01LjEwNiAwYy0yLjgwMiAwLTUuMDczIDIuMjcyLTUuMDczIDUuMDc0djUzLjg0MWMwIDIuODAzIDIuMjcxIDUuMDc0IDUuMDczIDUuMDc0aDQ1Ljc3NGMyLjgwMSAwIDUuMDc0LTIuMjcxIDUuMDc0LTUuMDc0di0zOC42MDVsLTE4LjkwMy0yMC4zMWgtMzEuOTQ1eiIgZmlsbD0iIzQ1YjA1OCIgZmlsbC1ydWxlPSJldmVub2RkIi8+PHBhdGggZD0ibTIwLjMwNiA0My4xOTdjLjEyNi4xNDQuMTk4LjMyNC4xOTguNTIyIDAgLjM3OC0uMzA2LjcyLS43MDMuNzItLjE4IDAtLjM3OC0uMDcyLS41MDQtLjIzNC0uNzAyLS44NDYtMS44OTEtMS4zODctMy4wMDctMS4zODctMi42MjkgMC00LjYyNyAyLjAxNy00LjYyNyA0Ljg4IDAgMi44NDUgMS45OTkgNC44NzkgNC42MjcgNC44NzkgMS4xMzQgMCAyLjI1LS40ODYgMy4wMDctMS4zNjkuMTI1LS4xNDQuMzI0LS4yMzMuNTA0LS4yMzMuNDE1IDAgLjcwMy4zNTkuNzAzLjczOCAwIC4xOC0uMDcyLjM2LS4xOTguNTA0LS45MzcuOTcyLTIuMjE1IDEuNjkzLTQuMDE1IDEuNjkzLTMuNDU3IDAtNi4xNzYtMi41MjEtNi4xNzYtNi4yMTJzMi43MTktNi4yMTIgNi4xNzYtNi4yMTJjMS44LjAwMSAzLjA5Ni43MjEgNC4wMTUgMS43MTF6bTYuODAyIDEwLjcxNGMtMS43ODIgMC0zLjE4Ny0uNTk0LTQuMjEzLTEuNDk1LS4xNjItLjE0NC0uMjM0LS4zNDItLjIzNC0uNTQgMC0uMzYxLjI3LS43NTcuNzAyLS43NTcuMTQ0IDAgLjMwNi4wMzYuNDMyLjE0NC44MjguNzM5IDEuOTggMS4zMTQgMy4zNjcgMS4zMTQgMi4xNDMgMCAyLjgyNy0xLjE1MiAyLjgyNy0yLjA3MSAwLTMuMDk3LTcuMTEyLTEuMzg2LTcuMTEyLTUuNjcyIDAtMS45OCAxLjc2NC0zLjMzMSA0LjEyMy0zLjMzMSAxLjU0OCAwIDIuODgxLjQ2NyAzLjg1MyAxLjI3OC4xNjIuMTQ0LjI1Mi4zNDIuMjUyLjU0IDAgLjM2LS4zMDYuNzItLjcwMy43Mi0uMTQ0IDAtLjMwNi0uMDU0LS40MzItLjE2Mi0uODgyLS43Mi0xLjk4LTEuMDQ0LTMuMDc5LTEuMDQ0LTEuNDQgMC0yLjQ2Ny43NzQtMi40NjcgMS45MDkgMCAyLjcwMSA3LjExMiAxLjE1MiA3LjExMiA1LjYzNi4wMDEgMS43NDgtMS4xODcgMy41MzEtNC40MjggMy41MzF6bTE2Ljk5NC0xMS4yNTQtNC4xNTkgMTAuMzM1Yy0uMTk4LjQ4Ni0uNjg1LjgxLTEuMTg4LjgxaC0uMDM2Yy0uNTIyIDAtMS4wMDgtLjMyNC0xLjIwNy0uODFsLTQuMTQyLTEwLjMzNWMtLjAzNi0uMDktLjA1NC0uMTgtLjA1NC0uMjg4IDAtLjM2LjMyMy0uNzkzLjgxLS43OTMuMzA2IDAgLjU5NC4xOC43Mi40ODZsMy44ODkgOS45OTIgMy44ODktOS45OTJjLjEwOC0uMjg4LjM5Ni0uNDg2LjcyLS40ODYuNDY4IDAgLjgxLjM3OC44MS43OTMuMDAxLjA5LS4wMTcuMTk4LS4wNTIuMjg4eiIgZmlsbD0iI2ZmZiIvPjxnIGNsaXAtcnVsZT0iZXZlbm9kZCIgZmlsbC1ydWxlPSJldmVub2RkIj48cGF0aCBkPSJtNTYuMDAxIDIwLjM1N3YxaC0xMi44cy02LjMxMi0xLjI2LTYuMTI4LTYuNzA3YzAgMCAuMjA4IDUuNzA3IDYuMDAzIDUuNzA3eiIgZmlsbD0iIzM0OWM0MiIvPjxwYXRoIGQ9Im0zNy4wOTguMDA2djE0LjU2MWMwIDEuNjU2IDEuMTA0IDUuNzkxIDYuMTA0IDUuNzkxaDEyLjhsLTE4LjkwNC0yMC4zNTJ6IiBmaWxsPSIjZmZmIiBvcGFjaXR5PSIuNSIvPjwvZz48L3N2Zz4=;labelBackgroundColor=default;fontSize=12;" parent="1" vertex="1">
          <mxGeometry x="600" width="80" height="80" as="geometry" />
        </mxCell>
        <mxCell id="mrAK-Dbqs_JbjPh-Ceqg-8" value="Query SQL" style="shape=image;verticalLabelPosition=middle;labelBackgroundColor=default;verticalAlign=middle;aspect=fixed;imageAspect=0;image=data:image/png,iVBORw0KGgoAAAANSUhEUgAAAgAAAAIACAYAAAD0eNT6AAAAAXNSR0IArs4c6QAAIABJREFUeAHsnQeYFEXax2tzjrC7bIaFhQ2kXVhyznHJSSTnDCI55yVIUjFnwYAYUEHM8QxnxCyG86J3p96Z7tNT7v18+xhuHGd2erq6Zzr893nm6dmZ6e6qt956/7+qriAE/mABWAAWgAVgAVgAFoAFYAFYABaABWABWAAWgAVgAVgAFoAFYAFYABaABWABWAAWgAVgAVgAFoAFYAFYABaABWABWAAWgAVgAVgAFoAFYAFYABaABWABWAAWgAVgAVgAFoAFYAFYABaABWABWAAWgAVgAVgAFoAFYAFYABaABWABWAAWgAVgAVgAFoAFYAFYABaABWABWAAWgAVgAVgAFoAFYAFYABaABWABWAAWgAVgAVgAFoAFYAFYABaABWABWAAWgAVgAVgAFoAFYAFYABaABWABWAAWgAVgAVgAFoAFYAFYABaABWABWAAWgAVgAVgAFoAFYAFYABaABWABWAAWgAVgAVgAFoAFYAFYABaABWABWAAWgAWCZYEcIURPIcQMIcQKIcRWIUQNXrABfAA+4EAfWCOEWCyEGCGEaCqEiA5WIMZ9YIFgWCBGCDFcCHGjEOJTIQThBRvAB+AD8AGvPvCdEOIRIcRyIUR+MAI07gELGGGBXCHEJUKIL1DRvVZ0gBBgED4AH6jNB86eg4E+RgRoXBMWMMICKUKI/UKI7yH8EH74AHwAPqCLD7wohGhnRMDGNWEBvSxQLYT4Myq8LhW+tpYBvkPLET7gPB/gHoErhBDxegVsXAcW0MMCUUKIfUKI/0D8If7wAfgAfMBQH3hLCFGqR+DGNWABWQswjT6ICm9ohUdrz3mtPZQ5yrw2H/iHEKKzbPDG+bCAjAUShBDPQvwh/vAB+AB8IOg+8K+f428vmQCOc2EBrRbgbv8TqPRBr/S1tQrwHVqN8AFn+cDXQohWWoM4zoMFtFrgIMQf4g8fgA/AB0LuA58JIeppDeQ4DxYI1ALDMOAv5JUeLT1ntfRQ3ijv2nzgISFEWKCBHL+HBQK1QDKm+kH80eqDD8AHTOcDUwIN5vg9LBCoBS5DxTddxa+tZYDv0HKEDzjDB/4uhEgPNKDj97CAWgvw2tQ/AAAAAPAB+AB8wJQ+sEltMMfvYIFALYCBf85oSaDFiHKGD1jTB3h9AH5Miz9YQFcLxP28beU/9aL+woaNaMzkqbRw9TpasWUHXrABfAA+YHkfuHj9Dlqq8rVkzVaaOGsRdejWm6Kio/UELt5qHX+wgK4WGKuH+Hfo1p3ueeo39Mm/zuIFG8AH4AO28oEPv/4Pvfd54K+XPvqS5l68juLiE/QAgad1jfy4GCwghLhNBgDCw8Np2aZt9PF3P9mqwgNkAHLwAfiAuw+8/0XgAOCChvufOU15hQ1kIYA3DaoD1YIF9LIAzy/9iwwAcDe/eyXBewRN+AB8wI4+cOYr7QDAIPD4a59QnbqZshAwQq/gj+vAAkUy4t+5V2+IP7p64QPwAUf4wMffntX0GMDVC8DHQ7feKwsAeyFbsIBeFhggAwD3/+a3jqj4dmzNIE9opcMHAvcBmccALhCobNtRBgJ4h1b8wQK6WGCRVgAoLi2D+KPlBx+ADzjKBz74Ur4XYOOeQzIA8IEukR8XgQV+Fv8NWgFgwsw5jqr4aC0F3lqCzWAzu/nAmX/KA8CJ59+RAYDPoVywgF4W2KMVAHjkv90qN/IDwYIPwAdq84EPv5IHgFc//VoGAHjFVvzBArpY4IBWANiwZz8AAN2/8AH4gKN84IwOAMBjAbTG3XPn6RL8cRFYAACAAO6oAF5b6w7fofXvzwcAABBNO1kAAAAAAADAB+ADKn0AAGAn+UNeAAAqK76/lgG+R+sRPmB/HwAAQDTtZAEAAAAArT/4AHxApQ8AAOwkf8gLAEBlxUfrzv6tO5QxytifDwAAIJp2sgAAAACA1h98AD6g0gcAAHaSP+QFAKCy4vtrGeB7tB7hA/b3AQAARNNOFgAAAADQ+oMPwAdU+gAAwE7yh7wAAFRWfLTu7N+6QxmjjP35AAAAomknCwAAAABo/cEH4AMqfQAAYCf5s39ewoQQ5UKIeUKIK4QQjwshXhdCfHTu9U+tS1KmpdehggZFeMEG8IEQ+0BJ0+bUrktXumDaTNq09yCdevkN+vi7nyDqKkXdX6vf/XsAgP1F0w45LBFC7BJC/FGrwOM8IbteN84XsGGo6lFWdg7NWHQRPfzKmwABHUEAAGAHebRvHloIIe4WQpwNVeDBfSF68AHz+EBYWBj1HlRND77wCkBABxAAANhXPK2cs0QhxH4hxE8IvuYJvigLlIVZfCAiIoImzp5Hb372D4CABAgAAKwsk/ZMe5kQ4k2zBBqkA6IHHzCvD+QV1qd7n34eEKARAgAA9hRRq+aqlxDiawRc8wZclA3Kxmw+EB0TQ4eOHAUEaIAAAIBVpdJ+6R4phPi32YIL0gPBgw+Y3wciIiPpwI2HAQEBQgAAwH5CasUcccv/BwRa8wdalBHKyKw+EBkVRTcdPwkICAACAABWlEt7pblACPG5WYMK0gXBgw9YxwcSkpLo8TfeBQSohAAAgL3E1Gq5iRBCvIAAa50Ai7JCWZndB5pVtKIzX/8ACFABAQAAq0mmvdK7yOzBBOmD4MEHrOcDa2r2AAAAAPZSS5vlpo4Q4isEV+sFV5QZyszsPsCPAl75/WeAAD8QgB4Am6mqhbKzyexBBOmD0MEHrOsD85avAgAAACwkic5JagwG/lk3sEIUUXZW8IHklFR694tvAQG1QAB6AJwjumbK6QgrBBCkEUIHH7C2D1x6820AAACAmbQPaRFC3C4bWKPDI2hag/b0YOe59E7/dfThwI14wQbwARP5wJmuq+lM88UBvd5ptoBONJ5AMzJaU0xYpPQOlP2HDgcAAAAguiayQJgQ4q8yAFCenE3v9V9P/xl9GV6wAXzAxD5wtu0WOlu1SdPr/eaLqFlclhQEpKal00ff/ggI8AEBeARgImV0SFKKZcS/KKEu/W1IDYK+iYM+wAxget4HutdoEn8XNPy9YiUVx9aRgoBTr5wGAAAAHCKv5s/mYBkAeLjrAog/xB8+YBEfODtorxQAMAg8UTJVCgCwUdBZnwCEHgDzC6bdUqh58Z+mKTkI/BYJ/OdbgEivs3122AFpAGAIqIzP1gwBK7fW+BTAT3y0jJ3yOQDAbvJq/vys19oDsLC4m7ODKcQU5W81Hxh1mS4AsLReR80AgPUA0ANgfll0Tgp3agWA7c2rIQBWEwCk1/E+e7btZmkI2FvQTzMATJ67AD0APno60APgHOE1S053awWAXS2GOT6YomsdA+ys5gN6AMDBwgGaAWDi7HkAAACAWfTP8ekAAKBVDJBzkA8AAHx3wYd6rAF6AByvx0E3AADAQcHfaq1VpFf/HhYAAADAT69v0EUINwydBQAAAAD0ADjIBwAAAAAAQOgE12x3BgA4KPijRa1/i9pqNgUAAAAAAGaT4dClBwAAAEAPgIN8AAAAAAAAhE5wzXZnAICDgr/VWqtIr/49FgAAAAAAwGwyHLr0AAAAAOgBcJAPAAAAAACA0Amu2e4MAHBQ8EeLWv8WtdVsCgAAAAAAzCbDoUsPAMALAPxrxD76aOAmern3Cnq+58X0XM+l9GbfNfTpoC3071EH0WL2YrMfRh6gvw6poQ8HbqRXeq+kp3ssod/2Xq683u63lv45bI8t7fZ/I/fTBwM2EOfxH8N2mz6PAAAAAAAgdIJrtjs7HgC+Gb6XeFfDtWX9qEdmY8qPT6MwEeZzpbOo8AhqlJhBg3Ka0uamg+jRbguJgcFqLUGZ9LLQ3dtpFi0v6UVDcptTk6QsYrv4CSwUHxFNLVPzaHxhFfFKkgxXVgWq+zvPpt5ZJRQTHnk+3+FhYVSRlkeHWo2l70ceMKVPAAAAAH7qqdk0Cukx0AKOBAAW7KMdptPwvJYUGxF1PoD7qRg+f5cQGU1Dc5vTLW0n0bcj9poy8MsIPp/7/oANtL6sP1WlF1JEWLhPWwRqw8TIGBqZV0FH2k2hr4dfYnrbse9cUNDab/4r0/Lp44GbTJcfAAAAwE8dNVBucGmzWcBRAMDBe0/L4VQ3JtFvAPdTSXyenxwVS/MadVEeIciKbqjP/27EPrqy9TjqULfIZ3612snbeUmRsTS7YSd6vc8q0wknl8XZ0ZcqoOct7d4+456ivw/daaq8AAAAAN581e0zs2kU0mOgBRwDAMc6zlC6990c3VBRiwwLV1qKr5lUzGqDi6+G76Ga5kMpKzbJUBv5Kgt+BDM4pxm92GuZqcTzxjYTArbHjKKOpsoDAAAA4KvenfvcQLnBpc1mAdsDALf6FxZ3Czhw+6kkqq/HYjYqv4J+N2iLqYTAGwD8OOogXVo5mtKj41XnTy87ebsO2467238/eKspbNcsJSdgu/Djks+G7DBF+pVeDB22A8ZugMZABDYDMps82j89tgYA7n5tlVYQcND2Jkayn3H39u4Ww4hF1pv4hvozbm2bxVaetuYxFgcrRyld8KGyE88K8UyX2v+vb3OhacocPQDGiLceOwkCAOwvuGbLoW0BgKektUjN1Ry01Qb3QH/Xvk4DU40PYCDhwX08gj3QvAT7990zG9MfB28LiZie7DJPs31WlvQJSZq9wRIAAADgp96aTaOQHgMtYEsA4G7/1unmaPl7q2zcxc6C4i1AB/OzP1VvIxZVb2k062f1YpPp8W6Lgm47Lc//XTacXL9d0NPry48AAAAAl1/6OBooN7i02SxgSwCY1qC96UWNpx8+0T34QuYShlf7rKTs2BTT28lbkOI1B66rCm63+g0aBgC60j6pflsAgBCKr02cPY/06C634zXwCMBs8mj/9NgOAHg+uSvwmv1YP6EO8UJELlEO1pFb0ClRcZaxk7dy5AGCW5sNDprtAACb6GzVf18YBGhMLwIAwP6Ca7Yc2goAeBGegvg0Swkbz7MPlvDzfY53mq3L4kfeRDkUn/FqjMGwHwAAAGB0rwMAwGzyaP/02AoA1pX1t5T4s2DycrLBEDC+x1Pdl1CcDisfhkLoa7vngYpRhtsQAAAAAADYXxCdlkPbAAC3/s0yf702sfL8jge1BQMATvddTWkmmd/vaQPZ/3mu/YOd5xpqRwAAAAAA4DR5tH9+bQMAV7e+wHKtfxY+hhajAeBvQ2ooLy7VkvZRCwdsR96VzyhbAgAAAAAA+wui03JoGwDonNFQV4HjnevKkuspi+Pwmu48tsCIufJ8D6NEi6/706hLqX92ma62qU2UWYh5d8B2deortuP3wZptwLY0atthAAAAAADgNHm0f35tAQC8dr2a7WhrEy7+riihLm1vXk1v9F3tddU53q2O97nf0XwI8W5v/q6n5vuZBq8Vz/lRkw4tv2FIGpBdTvsqRtKT3RfTl8N2+4QZ7oXgbZd50SEWai33U3OOUfYEAAAAAAD2F0Sn5dAWAMB7s6sRB1+/YXjY1qw64GV63+2/Ttm9TmZL4d/2Xu5TNGV7Bt7qt1YXMPK0W8e6RcQL4/BugVrTyGMSpjRop3v6eHogQ5rWdPk6DwAAAAAAOE0e7Z9fWwAAzwf3FCm1/7Ng3NR2opRg8Ip6LGaBPiKY2qC91H19iRV/zlvXdsss1mwXb/Zj4dd78aKPB26isQWtdE0n9zB8P/KArrYFAAAAAAD2F0Sn5dAWADC9qINmAanOaaabUHDLs0FCHVVpYXE2chGgm9tOUpUOb0Lv+VlyVCxd1Xqc18citUFIIN/d03GmrmMF9F4fAAAAAAAAOE0e7Z9fWwBAn3qlmsXuWMcZugEACx6PR5jdsJPP3oDIsHBa2qSnVPe5P2Hl1q9eCyI1TcmhDwdu1NVGvtLPG/3otYcDj0/4c/V23dINAAAAAADsL4hOy6EtAKBnVhPNAGDUM3jePpYfTQzPa0m9sprQyLwK2tliaFD2tr+marxme7i3/tmuDDS+BNuIz3k9h8E5zXRJ/+LG3XVLOwAAAAAAcJo82j+/tgAAXk3PXbgCec97BxghZKG6Jm/vW5yYodkeLtt1zSgmFuNQ5OP/Ru5XoMmVFq1H7gX4+9CduuQBAAAAAADYXxCdlkNbAAC3srWKRIe6RQGP/g+FKKq9590dZ2q2hcuGvO7BF0N36SKcatPt+TuecqnHVMua5kN1yQcAAAAAAHCaPNo/v7YAgBUlvaVE78LCKvp00BZdhMJTyIL9/7DcFlK24CmNPEUv2On2dj9e2Y8HILrARMuR13bwdu1APwMAAAAAAPYXRKfl0BYAcK0Oz7x5cN6IvJb0WLeFughGoAKjx++5uzs6PEJKMHk9BD3Sotc19JjN8HLvFdJ5AgAAAAAATpNH++fXFgBwZsBGKdHzbFny8rW8uh13Q+slZMG4zqFWY6XswGMHftB5/rwe+ZZdz2BNaV/pcgQAAAAAAPYXRKfl0BYAwCJTasDysilRcTS3URfSowWphxD6u8bQ3OZSAGDWAZGv9llJvOOfJ6ip/b8kKQsAMPoyxQZn226ms1X/E3Mt7w8WDtBcFhNnzyOjhdSq1z/z1Vl67/P/SL/U1gsfv3OaBjo6v7YBgLVl/TQHJR8V4RfX4wFpl7caQ/+oZb17fwJt5Pc8+l9mu9/C+HRTD4aUGejJ5cvLIsvYHz0A/4MGAMBZQyAGAOBoLQ5J5m0DAH+p3kFxEVG/EG01wh7ob3iQ3Kj8CmVjG15uV0ZU9DyX1zMINC/uv9/SbLBp8uLNLjw2wz29gb4/WDlKKn8AAACA0T0LAICQaKCjb2obAGDRmNeoi5RIBCoq/NhhT8vh9NchNVLi4k3wAv3sssrRUnnnEfeB3jPYv+exGYGWkev3PNNDJr0AAAAAAMDRWmnLzNsKAHjL2XqxyZpFwiUWgR555H2oewUWFnfTnG/ePEdGHIN17rImvTTnkWFNJp0AAAAAAMCWGujoTNkKADjA39dplmaRCFT4vf2+eWou3dF+mqEb53gTMpn9EGY17CQljt7SY8RnMo8BGNL+Peqg5nwCAAAAAABHa6UtM287AGDhWdK4R0ghgMGAN7X5Tc+lmgUnUAFVuwuhN2i5uvUFQUtnoPly//2/RuyTmg3wvsRjDgAAAAAAYEsNdHSmbAkAPDhvaoP2IYeAMBGmpCMYMwcSI2M05/fxbossAQAMA7xMsTeIUfPZk90Xa84nAAAAAABwtFbaMvO2BAAWCp4WN6Ooo2axUCMoan/DrfNne1ykWXzcW8He3v806lKf2w+rSSMvpOTtumb8TGanwDs7TNOcTwAAAAAAYEsNdHSmbAsALvG6sc0E4l3h1Aihkb/hpYZ5pT5XuvQ88pa9Mmk3wywGtfbg0fxa83pd1YWa7Q8AAAAAABytlbbMvO0BgIXljb6rSXY5Wa2i43ne5qaDNIuQL5HkNRA87xPI//8ctkf3NPlKq+znMyV6da6QADAAAAAAAGBLDXR0phwBAC7ReaHXMhpfWCW9YU4g4urtt3pvuMObAHm7j9rPPhuywzIAwDMW1ObL83e8kqPLFwI9AgAAAAAAR2ulLTPvKABwBX1uMe9oPoTy4lI1i4mnuAT6//VttHdHu/LhOvKmRYHe3/33VhoDILPdMT8Octks0CMAAAAAALClBjo6U44EAFfw/37kAbq13WTqnNFQSkDdxVTtex6XwI8mXGmROfKAR5nNckKxBfLvB2+lSytHK7MkeBGl2Q07EQv0l372Wmhfp4HmsjrWcYZmewMAAAAAAEdrpS0z72gAcBfdd/uvoxUlvSk9Ol6zwKgVf9fvWqTm6rb9bnZsiuZ0B3MdAJ7Lz6sW8sI8Lju4H1Oj4mh3i2FeF1Li2Q4y5fOcxLoMAAAAAADAlhro6EwBAM5tk+qCgW+G76VrqsZTuzr1vQqUu1jp8X5fxUjNrVJXmvnYKq1Ac3p5uqT7tYx6z4MN26q06+j8SuIeGve0nO67WnMeuaz+MHjrL67nfm1/7wEAAAAAgKO10paZBwB4AIC7ELxzrlcgKzZJSnhqA4WMmETiaXzu99Xy/oKC1prTGKy9AAKdwz8kt/kvIEBmwyN+5MI9CFpsy+cAAAAAAABbaqCjMwUAqAUAXGLBz9gf7rpA2fCH5/PXJuhavmNhc91L63Frs8FS6Xqv/3rpNNSW9vs7z9aUvv7ZZfR/I/craetYt0jTNbhMeOxAbenz9x0AAAAAAHC0Vtoy8wAAFQDgLg6fDtpCK0v6UJ3oBM1i5AkJFWl5UuLE6Xuw81yp9GxpNlg6De528nwfaOvf3UbcE8ADJnlpZffPA3k/p2FnqfwBAAAAAABbaqCjMwUACBAAXMLGYwU2Nh2o2yqDHw3cJCVQ/HxdpneiMD5dWT7ZlT+9jzJ7FbDQywz+4/Nvaz9Vyr4AAAAAAMDRWmnLzAMANAKASyB59gC34ANpjXr7rcwqda60tEkvlErHkXZTpETSlQ7PI2+G5C3PwfqMew5klzsGAAAAAAC21EBHZwoAIAkALHY8iE92qWFe4tZTOAP9n7vxZUS1ODFDt2mJ7mnnZ/gy3fcyeeJzeUaHe3q0vAcAAAAAAI7WSltmHgCgAwCwoPxtSA3lSqwsyIsRaREm93N41oKsWOq9TLErffUT6kinTWve9rYcIW1bAAAAAABgSw10dKZsBQC8pC1v+Xpl63F0b6dZ9KfqbdKB3yVgao67WgzTLHJNkrJ0SavMegAssLERUcTz7dXkN5DfLCruptk2WoWfz+NxEX8cLO8HAAAAAADA0Vppy8zbAgB4BLw34QsPC6O+9UrptT6rdBc0b+LH99EqVtx74O2agX7Gq/ppTYPrvEaJGfTF0F26pMeVfp49wXDhukewjrzMsCsNMkcAAAAAAGBLDXR0piwPALx8r7/ny9wKlNkLXq1w8FQ1rcJWEJ+mi1Dx7ATZEfOch64ZxfTtiL26pMllP15hUat9tJ73VPcluuQBAAAAAAA4WittmXlLA0Agg94YEvQYae8SM2/HnS2Gaha4Zik5uggVp2tz00Ga0+EutN0zGxNPL/SWV62fbSgfoEva3NPp6z1DjNZ0ep4HAAAAAABsqYGOzpRlAeDtfmspyseGMr4EgR8J6LX2vqdA8CY3RQl1NYvbgOxy3cSKp93p0QvAdixPzia9twteHyQI0Kv1z2UNAAAAAAAcrZW2zLxlAWBWw06axXZ8YRV9rvMz7mVNemlODwstn+8JFTL/H6wcJZUed4hKjopVBlaeHa19LX3PvBgNAcNyW+hqTwAAAAAAYEsNdHSmLAsAOXHat79lceMNfni2wA8eO855CpWa/y9pOdzvOAR3QfX2nmcvqLmX2t/8e9RB4scK3u6l9bMOdYvoie6LdEunURCQEBlNvxu0Rbd0ss0BAAAAAICjtdKWmbckAPBAN38D/9SKHM9P52f3nw3ZEbBg8Dkyu/C50siPMvQedc+i9VKv5VLLA7vS53nsVLch3dhmAn03Yl/ANnMBDHfPjy1oRfxYxvP6sv/zioieWwm77qv1CAAAAAAAbKmBjs6UZQFAViQ8z+eZAryaH8MAi9PXwy/xKm4s1Mc7zaZJ9dvqtg9An3qlXu+lVazcz1tf1l93gXXZjrfY5bEL+ytGKjb7cthun/n4ZNBmuq/TLJrXqAs1CMKiQNU5zXSFAAAAAAAA4GittGXmLQkA/Cxaz934XILmeawbk0jNU3OVNQa4Oz0zJskQMb2jvb7d/+4AwI8CemQ2NiTdnvbi/9lmpcn1qEtGI2qdXkCNkzKJxxB4+63Rn+kJATIAkB2bQr2ymnh98WMVXsPC88W9GINymtLq0r70ap+VPsHKvazVvD/bdjOdrfqfmGt5f7BQ+0yOibPnkdFCatXrn/nqLL33+X+kX5L1ypZCh0x5t4AlAYADHS/wIunopjifW8N6jEOoLfjzRji8zoAd7BVoHvSCABkACDTNnr/nx10j8lrS34fulAYBAMBZ0wIIAMC7SOFT4yxgWQB4uscSWwjatVXjpYN6beLv+u7NvmsoLTreFjbzFEh///NYA9kZDKEEAFf+GibWlV7eGgAAAHD5k4+jcWqDK5vOApYFABa2GUUdLS1o3O3746iDQQEAthdDE4+Q91Hxbf35gYpRUnY2AwBwubWv04B+GqV9OiYAAADgp/6bTqSQIOMsYGkA4MV3eACdH4c25ffR4RH0Sm/9nu26Wvr+jjzAMSkyNM/kQ1lOPDaBZ4/4s4+v780CAGzDm9tO0pwPAAAAwE89NE5tcGXTWcDSAMDBmiGgf3aZKUW+topm1IqEvgTM/fPne15s2IDG2vIc6u+OdZyhWTjNBAA8qNO9PAN5DwAAAPiph6YTKSTIOAtYHgA4+P3fyP3EK7/5cWzTfD+lQTvNATyQYF/bbz8cuFEZrW8Vm+mRzpUlfTTb3UwAwL1HWh8DAAAAAH7qknFqgyubzgK2AAAWOh7kxZvgGLGwjJ8KExBY8NQuo0f91yb87t99NXwPjStoHVD69bRFsK/FY0bc8x/Ie174KNjpre1+PLMjkPS7fgsAAADU5lemUygkyFAL2AYAXAHuZJd5ylx0P04ekmDOU7n0XqHOlW+ZI89ESImKC4lNgllOvHW0VjvxIkbBTGtt9+JpgfzoS0teAAAAgNp8y1C1wcVNZwHbAQAHRV6tb2ZRR92WC/ZTYVQJw8Libpq7bbUE+kDP+f3grcRz5vXIq97XSI2Ko0OtxpLsVsJHO0zXJJpsy48GbjKNbXg6YKDl6/o9AAAA4Kd+mk6kkCDjLGBLAHAFu8e6LVS2s/Xj8IYGdl498N5OszQHbFdegnU81XU+NdV5EyGt9ufHORMK2/xi7rtWCODtkX0t76zWthVpeYb6ilo7yewcCQAAAPjxM+PUBlc2nQVsDQAc2HmwFC+1y0v6+nF8Xb9n8Zpe1IG0PqtVK0pG/C5UNnOVD3dx81iJ1/us8gpOWiBgT8vhXq8ViP3O7e5SAAAgAElEQVTu7jhTVx9x5TeQI0/h/Et14BtXufIJAAAA+PE304kUEmScBWwPAOcD3+hLlU18eLYAj6L2Uwk0f8/Cz8sUv+ZDvFzpscqRe1FG5lVQTHikZpuotTWL26yGnejtfmv9inUgEMBlrnXUvGc5hXLxKQYj2X0jAAAAAD/10Ti1wZVNZwHHAIB7IOc11Q9WjlIWEeId7fxUCFXf87bCa8v6EU+vc7+XXd7zuAoeLMgtcz1XE0yMjKEhuc3p1naT6dsRgS3Uc32bC2tNC8MYj73Qc9YFr9w4v1HXoI8vYT893G6ytG8BAAAAfuKd6UQKCTLOAo4EAHdR5jUEHu+2iDY2HUij8yupZWoexUVE1Sr6UeER1Cgxg8bkVxJ3LZ/uu1o6MLunyezveSbDE90XKVsnc28H75Toz2YcdLgXoUlSlrKxzY7mQ5RryM6K4O7wNaV9lXJjkeTenaKEusogUCN7YTj/vBVyrB9f8RNsa/UzPpdXMORekU8HbdHFxwAAAAA/Pmmc2uDKprOA4wHAm9hyd/HfhtQorfmXe6+gJ7svpud6LiV+/4fBW4O6fr+39JnxM16HgcWYu+95z4GHuy5QXvz+jb6rFbvJbshjxnx/N2Kf4ie82dJvey+nR7stPJ93lw38HRkm+FzPF8/M0HuvCAAAAAAAYDodDlmCAACjL9OlZWVGcUKaULaePgAAAAAAAEKmt6a7MQAAAAAAcpAPAAAAAAAA0+lwyBIEAHBQ8PdsDeJ/5/UQAAAAAACAkOmt6W4MAAAAoAfAQT4AAAAAAABMp8MhSxAAwEHBHy1+57X4PcscAAAAAACETG9Nd2MAAAAAPQAO8gEAAAAAAGA6HQ5ZggAADgr+nq1B/O+8HgEAAAAAABAyvTXdjQEAAAD0ADjIBwAAAAAAgOl0OGQJAgA4KPijxe+8Fr9nmQMAAAAAgJDpreluvNOPM/hcqnR782q0HAEP8AGL+YAeALC3oJ/PuOAvnkyeu4A++Zd5RTiUaTvz1Vl67/P/SL/8lYGf700nUkiQcRZY78cZfFZ03mTFs3WB/9HChA+Y2AdGXUpnqzZJv5bW6+gzLviLJ/OWrwIA+AAgAIBxQocre7fAIn8V1tf3TVNyAAAWa/1BnE0szsHwpeEHpcWfAaIyPlszAKzcWgMAAAB4VyN8GnQLVPsSeDWfn+o6HxAQjMCNe8DPdPCBs4P2SgPA4yVTNIs/x5RDR44CAAAAQRc63NC7BYrVCL2v3/C2q7xrHlqWDm9Z6iBO8KEg+FD3GikA+LxiJRXH1pECgFOvnAYAAAC8qxE+DboFwoQQf/Ul8Go+50cB7w/YAAiACMIHTO4DZ9tt1gwAHzRfRC3i60mJf2paOn307Y8AAABA0IUON/RtgdvVCH1tv4kOj6CZRR3pZJd5dGbARvpi6C68YAP4gIl84PNeW4lb8IG8zjRfTA81nkizMqsoJixSSvw5fvQfOhzi70P8efYBBgH6Fil8Y5wFRtYm7vhOSAc+2BA2hA8IuvTm2wAAAADjlAxX1mSBGCHE5whQECn4AHzAKB9ISk6hd7/4FgAAANAkUjjJWAtsMqri47oQFfgAfADz//0vfoRHAMaKHK7u2wJ1hBBfIVAjUMMH4AN6+0BCUhK98vvP0PqvpfWPMQC+xQnfBMcCmhcF0jtg4HoQIfiAfXxg9Y7dEH8/4g8ACI7I4S6+LRAphHgRgdc+gRdlibIMtQ80bVlJZ776HgAAAPCtPPjGNBYoEEJ8EeqggftDuOAD1vcB7vp/7PV3IP4qxB89AKbRQMcnpLcQ4gcEYOsHYJQhyjBUPhAZFUU33ncC4q9S/AEAjtddUxlgjBDix1AFD9wXwgUfsK4PRERE0L7rb4H4ByD+AABT6R8SI4TgnoBvEIitG4hRdii7YPtAdEwMHTp8J8Q/QPEHAEBzzWiBMiHEW8EOIrgfhAs+YD0fyC0opHue+g3EX4P4AwDMKH9IE1sgSQhxUAjxE4Ky9YIyygxlZrQPcJf/xFlz6c3P/gHx1yj+AACIrdkt0FIIca8Q4j9GBxRcH6IFHzC/D4SFhVHPAYPogedfhvBLCD+LPwDA7PKH9LksUC6E2COE+BOCtPmDNMoIZaS3D2TWy6ZpCxbTqZffgPDrIPwAAJe04GglC4QJIZoJIRYKIa4WQjwphHhbCPHpz599KYT4XmvgiYuPp5TUNLxgA/hACH0gOy+fGpWUUptOXWjM5Gm0fvc+OvnSa/Txdz9B+HUUfgCAlWQPaVVrgQNaAWDDnv0IMAYEGFegwdH/xiywEWwUbB/AZkBqpQW/s4IFAAAQcYAcfAA+oNIHAABWkDWkUa0FAAAqK36wWxq4H1q38AHz+QAAQK204HdWsAAAAACA1h98AD6g0gcAAFaQNaRRrQUAACorPlpj5muNoUxQJsH2AQCAWmnB76xgAQAAAACtP/gAfEClDwAArCBrSKNaCwAAVFb8YLc0cD+0buED5vMBAIBaacHvrGABAAAAAK0/+AB8QKUPAACsIGtIo1oLAABUVny0xszXGkOZoEyC7QMAALXSgt9ZwQIAAAAAWn/wAfiASh8AAFhB1pBGtRYAAKis+MFuaeB+aN3CB8znAwAAtdKC31nBAgAAAABaf/AB+IBKHwAAWEHWkEa1FgAAqKz4aI2ZrzWGMkGZBNsHAABqpQW/s4IFAAAAALT+4APwAZU+AACwgqwhjWotAABQWfGD3dLA/dC6hQ+YzwcAAGqlxX6/ixNC1BFCFAkhmgsh2gkhegkhRgghJgghZgshVgghtgghamp5XSaEuMrjtevc7/n8ZUKImUKIaUKIUUKIoefu00UIUSmEKBBCcFr0+AMAAADQ+oMPwAdU+gAAQA/ZMcc10oUQpUIIFlYW2vlCiE1CiCuFEPcKIZ4TQpwRQnwphPiPEIJM9vpWCPE7IcSLQogHhBA3CiH2CCGWCyGmCCH6CiFKfgaL2FrMDQBQWfHRGjNfawxlgjIJtg8AAGpRExN9FfmzINYXQvQ415LeJoQ4IoR4QQjxRyHEDyYTc6Ph4i/n8n6rEGKNEGKkEKL8HOxouveGPfvRagA8wAfgA47yAQCAeVQ+/lyX+GghxMpzXeqPCCE+FEL822ECr0nEZWwEAEDrK9itL9wPPhdqHwAABB8AooQQFeees/Oz9eM/v/9ICHFWRsBwrtwjDQAAgnGogzHuDx8Mtg8AAIwFAB7cxoPr5gohrhFCvOzA7vqgt+a1wFD/ocPpyMnH6K2//tNRXYDBDji4H0QOPmAeHwAA6AsADX8eaDf+59H1lwohfouue7lWuRYhlz0nIiKCSpo2p3FTZ9CuK6+jx15/B0CA58LwAfiALX0AACAHAGVCiHk/D0A7KoT4q6z44HxzAkNmvWwaMmYc1Ry6mp58831bBgK0yszTKkNZoCyC5QMAgMAAIP/cnPY7fp4n/xkE25yCbXS5ZOfl05jJ0+iK2+7CIwO0DAGE8AHL+gAAoHYA4AF73YUQvLDNm0YLC65vPaCIio6mjt170JqaPfTE6fcsGwiC1eLAfdC6hQ+YxwcAAL8GAB64x6vV8Rzzf0KUrSfKoSyzsuYt6eKNWwEDaBUCBuEDpvcBAMB/AYBXl+PFZG4XQnwTSgHBve0DHAwDyzdvp+c//L3pAwFaZeZplaEsUBbB8gGnA0ArIQQvH/t3CK99hNdsZRkeHk4de/SkS665kd794lvAAFqG8AH4gCl8wIkAkPnzXPxVQoj3zSYUSI/9ISStTl2asegievqdD00RAILV0sB90KqFD5jPB5wEALz6Hu9a9y8Irf2F1uxlzL0CPfoPpFsfeBgggNag5X3gpU/+RPc89Rs6+dJrmBljIX+2OwCECSGG/bz97LNmF4Rgpi8yKpoSUtIoPTuPcovLqGGLKipr142ad+mrvNr0H0FtB446/+o2Zhq5Xj3GzaQB0y+i7uNmnP+Mv3P/feu+w85fq7RtVypq1ppyG5Uq94tPTqWIyChLrA4YrDJp2rKSDh05Sh9/95PlhQCtPPO18owqkzNffU+b9l1KjUvLf1GfI6OilEdetz74CPzZ5DBgVwAIP7cl7hvBCuKhuk94RAQlp2dQdlETKmnTmVr1GaII8+DZK2jcyp00c/f1tOiKu2jlzado47HnaMfJ12nXI2+H/LX9xGu04a5nlXQtOnSUZtRcQ2NX1tCgWcupy8jJVNmrmhq37kjZRY0pKb0uhYdH/CLIhMreRt63tFkLuuqOuwECJg+aRgmqla7LA1ubVbTyWyfHT59FDApWypuT0mo3AOAW/6ifR/S/ZWSgDua1WeDT6+VRo5ZtiVvmfacspAtW76b5B4/Qujueop0PvxVyMQ8GUOx8+E1ae8eTNG//YQVs+kxaQNzTwL0XaVk5tgKE8hYVdNPxkwiaAAFT+gDvl1FcWuZX/F1xcuSESabMh5OE3lde7QQAPKL/GZfTWe0YG59IBaUtqE3/kcStd24Rr7zlFNU8dNoRAi8LETtOvkErbnqIpm2/igbOvFiBg/wmTSk6Nk51oDKbz/QeVE1PvX0GwdNiIPDix3+kBavWEvfoRMfEEI/3yK/fgEZNnEwPPP+y5cuT98kItK5cfec9huSb7cl2zSusT2FhYYq92e5sfx6X4Ev48Pl/H1XZAQDqCSGut8p2umFh4ZRZUESteg+hgTOW0tRtV9KqWx+ByBv0WIJ7SBikJm+5nPpPW0IVPQZS3dzCgANYoAFPr9/HxMbS/JVrMH3QIhDAG0glJCX59C8WqYmz5tL7//iXJcXp2fc+Jn7GH6h/8+MCPUX3vS+/U+zI9vSVlsTkZNp91fW63lfPPJjhWlYHAO7u/9yXA5jhc35+XdquK/WeMFcRIX4OL9vaxfnyYxg23/cizd13izKgkcsnMTXdZyAxgx8VNCiio48+hWBmYhDYsGe/ah/i3p0Pv/m35cqTYVRrfWB40EP02G49BwxSlQ4GhE17D+pyXz3SbrZrWBUAuNV/r1ZHNPK8Ojn51HbASOU5/erDj0LsDWrZGwFBPFBy7Iod1LrPUErNzFYVYIz0Jc9rR0RG0sLV6zCoyoQQcO/TzwfcMl61baelhOnM1z9QvZxczfXixvtO6JLfFVt2BJQG7rHg8jGb+JohPVYEgL5mavWn1M1SRqyPXraNIPjyLXMjhF3rNVfcdJJGLN5ILbr1p8S0OgEFHU/x1vP/Fq3bYHlhE0EAt0h54GagZcxd1G//7SvLCBM/xw80j+6/590zZUWPByDGJyYGnA4uHyv2uMjay9/5VgOAZUKIn9ydKtjvuUuJB5f1m7qIll5zH1r4FmrhawUBPo/HEvB0Sn6Uk9OwJOAApLefZtbLpruffE46oPoLEPje/7x+7mLWWr4HbzpimTLs0W+A5nyyfe56/BnpvB648bDmNOBRwK992SoAwJv1HNFayWTP44VrGrfqQMMWrqM1tz0O0XeI6NcGDKtufZiq566khi3bEE/VlPUxLefzAMG9194kHVQh8r8OjGpt8vKnf6HklFTN5T/romWWKL/nz3xKERJ+Hp+QoMvAR15GW0td4XO4x4VnaKgtWyf8zgoAEC+EeFhroWs9j1v69ZtW0oglm2jTPS9A9CH6Pn2AFzQaOn+N0jOk1d+0nsd+unn/ZQhqIXokMHz8BM2CxGU+ZvI0S5TdojXrpfI57IILdcnn6ElTpNLB5eUEYVebR7MDAIv/o1qDo5bzUjPqKSvpLb/xhM+AX1vLEN/ZaxxAoOV58fUPKI8JePEmLf6n5RyGgI2XHEBgCzIE8KwMtr2WMnOdM2PxUtOXGz87z8kvkMrnnY88qUs+py9cIpUOLi/Mpvlfj5eZASBaCPG4q6IYeeS5+eUde9KsPTc6ZmW9QIUNvw8MbHjlQl7jgZczlhUJNb7P99h+2ZW6BFm1rQcn/45FkRecUVM2tf2G94Awux2vves+qXwWNW6i2/LWl91yu1RauCwalzXFTJpzsGxmALiitoqjx3fRcfHKJjbcaoPABSZwsJd6e3FvUqdhF1JUTKx08KrN73m60+2nHje9oJhd8NSkb92uvdJlmZqWbolZAGrn3PvyzTU1e3Tzybf//jWl182Qtv363ft0S5MafzHrb8wKANN8OZMen/NOeLwK3+Z78WwfQq5eyGVttfjwE9R2zEyKjkuQDmC+6kFGVj1METT4UQAPJOMBZb7KQO3nPJ/drMLgShfnldefUJsnz99FRUfTK7//TNd8BroOgGea+H8MCPzvYwAzAkCZEOJ7b4Um+1lMfILyfJZXgZMN5jg/eMJpF1tvePANmn/0JZp+/SNUUX0hRUbHaA6stdWF1h060Uff/qhr0HUJAo5naciYcdLlVr9RsS6j4o0ujyVrN0rllW2ldxo/+Of/UcMm8lNxh469QPe06Z1Xo69nRgDQ/bk/E2zn4RNpw13PQPgxmj9kPrDl5GkFABgC+DX5ygeorOcQ4jEotQm6lu9qDl3j+OBmRPDkwWx6jOm44d4HTV8+DJG5BXL7Ztz20GOG5PPWBx7Wpc4cOWlM+ozwPSOuaTYAGKcl2NV2Du8nv/DyO0MW9O3SekU+5Hs8tp966xcA4AKBEVuvpbTc+roENFddSEuvQ6/+4a+GBF8jApEVrslL4ZY0bS5dTgOGj7REuVx/zwNSeS0saqjb4D9v/sF2dPm71iNva3zmq+8tUR7ebCD7mZkAIEII8anWgvQ8j7tXefc3bKcrL1wQf31suPPht70CAIPAnCPPUuvhUyg8QvvzVs86MHX+IscGNtnA6O381dt3SQtOXHw86bUpjrc06vlZn8FDpPJr9F4HvDiRlmWBPevJ6h27HVtPzAQAQzwLRuv/aVm5tOSqe9DqR3e/6Xxg4bHf+oQABgHuDYhP1WffAR7oxGun6ykKTr0W7y2vx8C/lVtrLFEenF8t2/66YjYP/uNVEo32F7an655aj7x98/Mf/t7wtBptCy3XNxMAnNRagO7n1S+voPV3Pm26wI9WtD6taKvb8aK7X64VABgCplz1IGU2KpMObFwvsErg/xY90RIgXecMGjlaujwaFDe2xMA/zvPSDVuk8sv2ctnOyCM/lmlS3kwqrVxPBo8aE5T0GmkLLdc2CwBkCyHOugu5lve8a9uOk29A/NHyN60PLLv3Vb8AwBAw+9anqaBlO+nAxovVaAkMOOd/4HDrg49IlwPHs8MnHrVEWXz83U/Ez++1xGDXOWyzYPmQXgMz9dquOFj51uM+ZgGAUS7H0Xps2KKKtp94zbSB3+otV6Rfnx6MFfepAwAXBNRr3FQqEPOI9d/+7s9BC8Z6BCUzXYOnnDUqKZUqA45p1aPHWqYMbjp+Uiq/BQ2Kgj4Nle2rVTtc51llaqae9cMsAHCJqxC0HOvVL8aiPmj1WwL+Vh5/TVUPAAMAv6Ze+xAlZ2RLBbdDh++0jPjoGdz0uNbyzdulbM/xzGrPmPsPHS6VZ7aZHrYP5Bo8ZiEpOUUq3VxWVlicKRC7+PutWQDgOS3Cz+fwVqy8TztaqPq0UGFHY+24KkAAYAgYuv5yqcA2ac78oAdkf4HHCt//5oPf6TLKXM+lcI22G/cWyQz+4zVXQrXlLttZq464zuNZGs+8+5Fj6otZAOBPrgII9FjRYyDEH61/y/jAmvtfD6gHwNUTkN+8rebg1qP/QMcEND0FUrYlzLGscWm5peaZy/Z49B82ImS+xgMC9digKZR50NN/1VzLLACgeenf6TXXWCb4o3VtbOvaCvZdc39gjwBcANB7wSbNANCyqm3IgrKaIGTG39xy/ynN9nY1Ynj8hZVWmuPBf/wc3JV+Lcebjz8UUl/TY4tmzrcVVmrUo96YBQB+1OJsfM7GY88BANADYBkfWPeAth6A8QeOag7MPKJbj2DhlGvwwD/ewlZrTHKdN+yCCy1ld9nldfPrNwj64D9vPsl2d5WB1mNhw0b03pffWar8vNnC32dmAYCftBbU1uO/tUzwt0ILFWk0tpdirUYAmHRI+57svH2qv0CA7/837W/p+s3SAsKLBr3w0R8sZfeBI0ZJ5fvijVtNkV8ex5CckiqVF9YjXgvB7vXC8gCw8BDW+YdoGyvaetp3rcYxANVrDmgOaACA/4m7v4D+3PufUHyC/HbNG/bst5R48L4R0THad6fkwX9mAh62v9ZGpeu82Lg4evqdDy1Vjv782/N7ywNA97HT0QOARwCW8QGtYwDKelRrDmgAAPUA0HuQdju7hKNxWVPiAWmewdbM//O6/a70azn2rR5qqvx++M2/qax5S6k8sR14PwQzl5ts2iwPAHGJSbThrmctIwB6tiZxLeu0/F1ltUrDIMCJl99LEVHRmoMZAEAdAMgugMOCwQP/bj/1uOVEQ3axIzMOmrvr8Wd02br5urvvt1x5qgUDywMAV7oWXfvRzoffAgSgJ8D0PrDyuPqVAHkGwLw7XqD85m00iz/XDwCAfwB4/x//Il6rn+0l8xo5YZLlxIJnKsjkOTsvn7jFrVZ0gvk7Lg+ZvPG5PIjWrgMCbQEAXEg9L5hl+uDvagXiaL2Wu15lFuhKgM37yW9CAwDwDwCL12yQFgoe+BeqRXBkRFV2Gd2L1m0ypfizTV79498oLV1+d80lazeaNo8yZW8bAGAIGLZwHSAAvQCm9oFl976ieiGgtmNmSosS1wsAQO0A8Ox7HxOvAMe2knlZcedFFsiY2FjN+Y6IiCBeMVFGhIw+l8tFplz5XB4Q+NTbZ0ydTy12tBUA8PO3bmOm0c6H3zS1COjVmsR1rNeTsFTFdsDc7V85dKJ00HIFPQBA7QDAKyW6bKX12LRlpWm7wWsTBtnlc3sNHGx6Ufzo2x+pRWu5x2jsF1179zV9Xmsra2/f2QoAXJW3tF1X2nzfi4AA9AaYzgcWHfttrT0AM29+guq36iQtSK66wEcAgG8A0GPFv/DwcLr7yecsKQ7FpWVSvnbdseOWyPc9T/2GuJzc64WW9+wv3oTUqp/ZEgC4YHmHwIWXY40A9BKYq5dgwV3/3eXPtcSv+3HYpispJStPOkh5BjYAgG8A6NKrj7S9x0yeZklRuOPhJ6TyXi83z1K9HlxOnnUj0P+79elnybL2BSi2BQAu2LCwcGo7cBRhtUBziaBToaTm1FteW/8zb3qcWgwYo/hroAFJze8BAN4B4I2/fCE9TSw1LZ14ER1fAdbMnw8dN15KEBetWW+pfHM5yQ4I5MfMpz/70lL5rs0HbQ0AruBYJyefpmw9ZLruYKcKoVPzvfWhN38JAHe+SH2XbKOEtAypQOzyc19HAIB3ALjvmRek7b7t0issKQYMPzIDH7k7nQdP1iYuZvyOy8tXPVH7+fHnXrJcvn2VhSMAwFWwhWUtadaeGwECGBsQEh/YcOKN8wAwZN1llFlUIh2MXL5d2xEA4B0AZOe/8wj4lz75kyXFYP3ufVK+16PfAEvmm/cJ4HKrrb74++62hx6zZN69QYCjAMBVsDxIcPGVx0IiAk5t/SLfbxMvAzxy23WUW95KKgC5/FjtEQDgHQCefOsD6XIYN3WGJcWAlytW6z/efnf1nfdYMt9cXt7yE8hndtofwJEA4Crs+uUVdOG6vVRz6jRgAL0ChvkAT0udvOVyKmzRVjr4uHw3kCMAwDsA8Op1PJAtEFt6/pZbkw88/7KlxPDoY09L5TmzXjad+ep7S+WZW78PvvCKdOvfzKseemvh+/vM0QDgqsx1cgqoeu5K2nr/y4aJAFrAzhuIuOW+lxS/SsvKlQq4Lj/VegQAeAcADo68wptWu7rOa9WuA3383U+WEcQRF8qtMbFg1VrL5NVdANt27ipd1mZe9dA9r2rfAwDcVv/ijYXaDRpN8/YfBgigR0CTD3Brf9buG6hVnyEUHSe/upxLZGSOAADfAPD6nz+ntDp1pYXh0ptvs4Qo8gh22cF/z7z7kSXy6i6CXD4ydYjPVWZ8/PFvlsu7ux083wMA3ADA3UFSM7OVVQVX3nxKkxCgxe+sFv/qw4/SgOkXUXq2XJeyuw/q9R4A4BsAOCBu2neptDjwo4S3//616cVh096DUnm14jz4d7/4lvIK60vlm+uiFZd69hR8z/8BAD4AwBV8eS2BomatafDsFQQYcJao+4O4i69/QBH9gpLm0sHF5W9GHAEAtQMAjwUoaSpfhryhkGeANdv/Zc1bSvnqlbcfM30ePW3O6xXI1iteMfHM1z9YLu+etvD8HwDgBwA8HYdbeJ2GXUhz992CLYgd9piAu/cXHrqTek+YS1mFDaWDiqdvGfU/AKB2AOCgePjEo9LlyRvGmHluPC9XLONjGVn1LDf47/kzn1J8QoJUvtlmNx9/yHbiz34PAAgQANwrUEpGFrXuO4zGrqyhtbc/gUcFNgSCVbc+TKOWbqGKnoMoMTVdOpC4+0+w3gMA/AMAB8N+Q4ZJl+/gUWNMKxSjJ02Ryt+85atMmzfPlq3r/0Ej5bfT7j90uOXy7cq/vyMAQAIAPAM49w7w0sM8tXDDXc8CCCwIBOuPPqOUH5ejlVr5nr7o/j8AQB0A8Pxuma1xXTa//dTjphOMt/76T4pPTNQMALwE7pNvvm+6fNUmcHc9/oz0Us/RMTGWy3dtNvH8zvoAEBam2aldFdaII48dyCwoUkaDD1uwVtmYaMfJNwAFJoKC7Q++SvMPHqHquauUFn7d3EJT+pLinxJ+DgBQBwAcHLmVKxsP+Dk7jyvwDLah/H/Lgcul8tW5V29T5cefLXkL4GaVraXyzH4wf8VqS+Xbn108v7c8AJQtOUgJ+cXSBS1b6dWcHxkdQ7wccadhE2jcyp205Kq7acfJ1wEFQYCCbQ+8QosOHaUxy7ZTh+pxlNe4nCIiIy3hN2EFJRQ5aZPmtAIA1APAO59/Qzn5BZpt7YoDOy6/ylTC0bRlpVSeDh2+01T58RQyz//Z/q6y0Hqsl5NLb//tK0vl23nZ6ZkAACAASURBVNMO/v63PABU7X+Y2hx4hIouXEGRCcnSha7VWbSeFx4RoUwd4+WJu42ZRmOWb1cGmnHr1N8odHz/61kJNQ+dVmZr8Mp7PC2vsle10pUfHi63/rfW8pU6Ly6RIvpPo+iNd1P08ps0+zYAQD0AcMDce612W7vKu05GJvGGO/4CcDC+l930iNdJeP8f/zJFXtTY683P/kE8YNFVFlqP+6672TJ5VmMXb7+xBwAcfJTaHHyUKrbeSZmdBlNYhDVadrU5ZkRkFGXk1afGrTtSu0FjFDHjsQULL7+TNh57ztFwsOGuZ2jBpbfT+DV7qP+0Jcq4i+JWHYhXdLRKq762sheRURTRvpqiV95C0Zvu+e8LABC0YMyr+rXu0ElaQKYvXBK0NHsL7q7Pxk6ZLpWX2UuXmyIfrvz4O7Lda61fKsZ9VbZtb6nVHf3ZxNf3tgIAhgB+tdhwC9Wt6k1C4rmprAMZfX5sfCLVa9CYStp0VsYZcO/B4DkrlEcLvBLd0muPW24gIg/Au+iae2nmruuUmRW89kLXUVOoVe8h1KSqE9WrX2ya1fUMKd+ICApv3Zeill77P+EHAIREfO7/zW+Jt7yVKefIqCh67PV3QpJ+V8DnLuyEpCTN+eDBf0+cfi+keXDlRc2RByrywD2ZcuNyv/fp5y2TZzV28fUbWwKACwSarbqW0iu7UZgVu39VUKoaJ+eehKT0usQD3PKKy6lRRTsq79hT6RpvXz1OeezAXeU8UHHE4o00btUuZRQ89zZMWLePZuy89vxrzt6blccTPBeeX7P33nT+uxk115w/j8/lqZF8vaEL1iqtdAaU9oPHKoPtytp3p4Yt2yjpqZOTr0yv40chavJjy99ERFJ4RQ+KWnTFr4UfABCyQDxywiRpn+zUs1fI0s9Bf/tlV0rloWP3HiFNvy/h8vV59779pfLL8WXUxMmWyrMvW6j53NYA4AKBFhtvpexeYykiTvs0GFsKj06QAdsIbUEnJp4i2g2kqIuu8S38AICQBWPeOz4xWX5c0fX3PBCyPMiOhLfKHgcsdtfdfb+2eugWB7m35MWP/xiy8lIj2nr+xhEA4AKBVjvvpfzqGRRTR36ACERPo+i5VTan2jCsbi5FDJhB0Wtu8y/8AICQBuMVW3ZIi0phw0YhGUR34sVXpdKell4nJOnWInC8PXFR4yZS+eV4tHJrTUj9TUveZc5xFAC4QIBnDZQu3k+ZHQZSeLTc8yKnihjyHSAARUZReHkHipy08b+j+l3CrvaIQYAhCcwf/PP/qEFxY2lhWb1jd9DTP376LKl0z1i8NOhp1ipmbF/ZmFRY1NAywKPVTp7nORMAzg0WZCCo3HE3FQyfSwkF8pVc1gFxfoCiavbehLAwSiwqp5Rh8yh69WH1rX1vUAAACJkYXX3nPdLiwl3LL33yp6DlgXcmlH188cirbwUtvZ7CFMj/L3/6F0pKTpEuo2uO3muJ/AZiG3+/dTwAnO8V4NkDGw8rMMBB284zCAAaxoJGXL1Cyu0/UZmNwv6VU/OgnPgzEAAAQhqcu/buKy0wYyZPC1oeag5dLZXedl26Bi2t/kTK3/dsV9mYZrXBjv5sovZ7AIBbb4A7DDRfeyPlD55OSUVNKUxyOpCsc+J8YwVb1r687kRy4woqGDZHgUh3PwIABLYIj9rAFezfcWuYp/XJ+ApPL+NFeYKR9hat20ildf8NtwYlnbK2eOD5lylCcgYRrx1y6uU3LJFfWXt5ng8A8AEA7kG8suYeajRlnTJmICrZmjvCyQQunPtrAIlMSKH0iq7KCpStdt6nrD/h7jPu79EDYA8ImDx3gZSocj1q1a6D4QvMnHzpNal08uC/9778zhKC2KZTF6m8cplMmbfQEnn1FG89/gcAqAAA92DOSw/z+gL1xy5RBABTC38tjnYEhoiYOEpuUkn51dOpfNkhZflpd7+o7T0AwB4A8PqfPydeFlfWvw/edMRQwZk4a65UGqctWGxo+vQQLr7GgRsPS+WTyzE1LZ1e/ePfLJFfvezmfh0AQIAA4Bnoq/afIt6QiB8XpDXrQFFJqdJOKRtgcL48lESn1KG0Fp2oYNhsRfCVPSc0+goAwB4AwIFTdlc9rpv1cvOIB+m5B2K93r/7xbeUkpomFYNOvXLakLTplUe+Duczt0B+986tBw+ZPq962s3zWgAAjUHdEwTc/+eliBtOXEVZXYZSQmEJhUdhqqGZoSQ8OpYSG5RTve4jlEc9LTfdVmuXvntZq3kPALAPAPA2v6XNWkgJLNeFRWvWGyI8u668TiptVR07G5IuT+GR/X/h6nVS+eQyaFxaTme+/sES+ZW1l6/zAQAGAICnKHAvQbPV11HDiaspu9cYSilphZ6CEE3hi06pS6llbSmn9zhF7HmwJ68L4Vlmev4PALAPAHAgPXLyMWnxiY2Lo2fe/Uh38eFNbGRgm3dC9CUWZvn8Nx/8juLi46XyyTa65f5Tps+r0TYHAAQBAHyJCa9BwAsSNRh7EdXrMYpSytr8d5VCG29iJBOc1J7Lez/EZuRSatP2CnA1uOBiKrvoUuKVIH2VhZGfAwDsBQAclPsPHS4tQEPHXqCrAPFMBbV1xNvvklNS6Z3Pv9E1TUYIGNvNW/oD+YzLz4i0We2aAIAQAoAv0ana9xA1X3cTNZlTQ/VHL1JELL1lF2WxImUWgsMBgadl8jP6xMJSZbMnbs0zRJXM26XMvWf7+bJtKD4HANgPALj1HhMbKyVEPP3sufc/0U2IZGcpWGE0PNtddstvLjcjel+sJv6cXgCACQHAn0ixwPFz6rIlB6jR1PXK4kW82VFGu37KQER+nh2bmUeR8dq3AQ2EpvX6LU+ti83KV1bP4wGVGe37U06fC6hwxDwqnr5RacW33HI78SMVfzYy0/cAAPsBAAfP+SvXSAEA1xu9BqHxoDge0S5TF60wF37T3oNSeWT7LFi1VjfosqLou6fZ8gDQYv3NlhKDYAsTi2XljmNKy5inr5Us2EPF0zcp89cLR85XprXlDpik7JZYr9twZa2Dum16K1MceZ47v1JKq5QpcDwNztuLn6m7fsvHum37KtfhQXUMJnkDJiv3KRy1gBpOWEnFMzZTyYJLqHzZFUq6eJ0FmVH2wbZpoPfTAwCiZmpf6zy9bgYC3r/0hxAeyV8vJ1dKkHjKnntA1vr+kmtulEoHr0+g9d7BPO/CGbOl8snlZdQMjGDaQa97WR4A8gZNBQBYsBcjUBG18u/1AICI9tWaAx8AQH/xdwXgfdfforlcuDU6dsp0XYRXdkGc3Vddr0s6XHYx6jhq4mQpe3N5GZU2K17X8gAQk55FVXtPAgIAAab1AWkAWHWYhMTjHACAcQDw8Xc/EU+d09r1ftG6TdKC9Oof/iq1HC5vpGOFwX8ssDx9UquteYYEl5cVhdqoNFseANgZCobPMW3wt3LLFWl/VBe/kgWAiK6jNAc9rh8AAOMAgAPz8WdfJF7nX4sw3X7qcWlBuvn4Q5ru7UqvXo8hjBIp9+tqnYLJ5cPl5H4tvLfBIEB2Yl6mVZnPjVawLoIF4ddH+F12lAGAqLn7SUTKbUIDADAWAFhItHRNNyop1aVFevmtd0gBwIkXX7WMMH707Y/UsElJwPnl8oHg/7oe2KIHgCGAV9xrfckJCCAgyHQ+oBkAVh2msLpyg8y4bgAAfh349BYD3iegoEGRamHiFunhE4/qIkq3PaR9YaKWVW11SYPe9qzterc++EhAPS5cLlw+tV3Tqd/ZBgA40PHCL1abIuZqJeKob6vbTPbUBADr7qSw+uWqBYX939cLAGA8ALCAPPjCKwps+SoH1+cs/npN/+P7vvXXf2pek6Dm0DWWFEbekyFMxXoodTIylXJxqsD7y7etAIArWJ3K7mS2hWDMJEZIS/BBI2AAWHMbhRdX+hR0l5CoPQIAggMAHGyf//D31KVXH59lV9iwkSFL0PYfNsLnPX35Sd3MLMsM/vMmZLyUL9vTV/64HF746A+WBBxv+TXiM9sBADtDcuMK8rdHO4Qw+ELoVJsHAgBRy26gsFzfQc1XsKvtcwBA8ADAFaQffuVNWrp+M424cCINGjmaZi9dTjcdP0n8DNv1Gz2Pj772dsC9ANsuvcKQtOiZL3/XYnuyXdm+bGe2N9udl0X2dy6+t8kgQG/BLya9HpUtvdR0z4OdKoJOzrdaAIiaupXCkuv4bNF483M1nwEAgg8AoRCX/TfcqvrZ+OhJUyCQBiwOFYpyl7mnLXsAXEExLDJK2c/dzqvMOVlYrZJ3vwCw/ihFdBtDIjxCd/HnugAAcAYAsBDccO+DlJFVz6cf8Tr4Szds0WX2gYzw4Fxz+KStAcAFAgkFTajpiqvQG4AZAiHxgdoAIGr6DgrLLPAZsF0+LHMEAJgj2AZL9HhRn037LqVuffpRYVFDysrOodYdOimL6Oi5+VCw8oP7GOe/jgAAJXiGhVHdqt5UsfXOkIiAVVqrSKf+YyO8AUDU0mspvHUfEipGMsuIP58LADAugEKcYFsr+4BzAODcNCleNIi3jwUI6C90gAfvNnUHgKiLrqaI9oOlF/cJBAoAABApK4sU0m6c/zoOAFyBMywiUukRaLbmevQI4NGAoT7AAMAr+oW36EYiwpjn/C6/9nYEABgXQCFOsK2VfcCxAHA+UIaFUVqLTlS25KChIoDWsffWsa3tcuARKpm/m2IatwpKV/95n/ZYFAgAAJGyskgh7cb5LwDALVjGZRVQbv+J1GLjrYAB9Apo9oGWm26j/OrpFJshv4yvL1EP5HMAgHEBFOIE21rZBwAAbgBwPqiGhVFiUTnVH7uEWu2+X7MQ2Lp1C0D4hV+02nWcii5cQclNKkPa2j/vw25+DQCASFlZpJB24/wXAOAWKL0Fz4jYeEqv7EYNJ66iypp7fhH0IfAO7NZ3A5+KbUepwQUXU1rzThQeFWPoVD5vvqn2MwCAcQEU4gTbWtkHAAB+AMA9yIaFh1NCfmPlMUH5skOAATcxdAoMtdhwCxUMn6u09MMMWrjH3ef0eA8AgEhZWaSQduP8FwAQAAB4BmN+xpvZcRA1nLwG0wptCgMtNx1RuvYz2vWjmPQs07byPX3T/X8AgHEBFOIE21rZBwAAEgDgHmT5fWxW/n+BYNJqAIFFgYAH8BVNWEGK4NfJtqTge/olAAAiZWWRQtqN81/LA0BYWLhpg3R0Wialt+xM+YOnK9PBsEOhucYMVO64m5rMqaG8gVMorVkHik7RfyMeTzHW+n9EVLRmPwcAGBdAIU6wrZV9wPIAsOCyO6hBs1aag6PWgKzpvLAwis3Mpzqte1L+0JmK+LTcfBvGEgSht4CndjaetU2ZnseDOmMs0rpnwC3tPpjG7j6s2ccBABApK4sU0m6c/1oeAGpOnaZdj7xN49deQmlZOZqDpCZB1+nxQURcojLtkMcTFI6cTyUL9hB3Rbc58AjgIBA4OPCIsoZDybxdVDB8DmW0H0CJhaUUERNvSb/Ia9qaxuy6heYffYmmXXdKcx4AAMYFUIgTbGtlH7ANADAEbHvgFRo482JKTE3XHCxDCQKe9w6Piqa47PpK93S9HqOo/uhF1GTuTmq+7iZqfckJR8JB6z0PUvM1N1CTOTuocNQCqtdtBKWWt1XGX/D2z542tOL/mUUlNGjlXkX4WfwBABAZK4sM0m5e/7UVADAE8Gvr/S/TwBlLKSHFHiDgS8SiklIpPq8RpTZtT1ldhird2w0nrFTEkbc/brnldqra95AlQKFq70nixyHly66gJrO3KyPv8wZNpcxOgym1aTuKzymiyIRkWwi8r/LMKm5Kg1bt+4XwAwDMGzwhbCgbq/uALQHgFyAw82JKybDm9C1fQhHo5/yIgcce8OqGqWVtqU6rHoqwZvcaq0AD9yzwKnaNpqyj4umbiLvQeQ17Xusg0Jdy7rxdVDxto3K9oguXU/1RCylv8DTi+2V2GKgsrJRSWkWJDcqU5XKt2kUfaDn4+n1OWQVVrzngVfgBABAZq4sM0m9eH7Y1ALhAYOfDb9LkLZdT/fIKW7cgfQkMPhemK/eIyChq1L4njdx2fa3CDwAwb/CEsKFsrO4DjgAAFwjwcf7BI1TRYyBFRpt36VYItvkEW68ySUjPoLZjZ9O0a0+pEn47AsDH3/1Er//5c7xgA/iAhA9wPZIFEMcBgAsGNt/7Ao1YvJFyi8tM1zrUS2xwHXOABLf267fqRP0u2kFzb38+IOG3CwA89/4nNOfiFVRcWkZR0drXNIBPm8OnUQ6hLweuR1yfuF5x/dICA44FABcI8HHhoTupw5ALKCm9LmBAp6mNCBCCchuVUvXcVbTo8BOaRN8l/ny08jTAzfsvo7h4a07FhB+HXuhQBv7LgOvXlgOXBwwBAIBzMwcYBHiswNx9t1CnYRdSYpp5V4VDhfBfIUJlo6zChtR7wly6+PoHlBkp7Fcrj7/qWABYu/MSQDWgGj4QJB9Yv3tfQBAAAHADAPdegZqHTtOMmmuUnoG0rFw4cJAcOFTCrfW+vFJffpOm1G/qIlp+44nzou/uS04FgJMvvUaRUfZYm0Grf+A888K6HcuGHwuceuW0aggAAPgAAPcAzu8vuvoe6j91MRWWt6Rwi2wDa0cHN0OeYhOSqHmXvjR62TZaf/QZr6Lv7j9OBYDq0WMBzgBn+ECQfWDouPEAAPcArPf7Tfc8T5M2HlR6B7jL1wyihDQY19KIiIxUppD2HD+bZu25kXacfMOv6Lv7nBMB4MzXP1Bisr0XbkKdM67OwbbabZuQlERnvvpeFQSgB0BlD4B7QPd8v/aOJ2nsyhpqN2g01WvQmMy8QyEqlv+KxYJfUNqCuo2ZRtN3XK2sLOlZ5oH870QAeOz1dwDGQW75oW77r9tOsdETp98DAAQSpPX8LU8xnLb9Kup14RwqrmxPcYloCZm54qXUzaJmnXvToFnLaO7+W2n7g68G1ML35ztOBID7nnkBAAAAgA+EyAeOP/cSAMBfYA7m9ytvPkUT1u2jHuNmUpOqTrbZsMjMwu4tben18qhpx17UZ9J8mrTpUlp95DFdxd6bTzkRAJ586wME/xAFf29+j8+c1TvwzLsfAQC8BWMzfcYDyGbtvoGGLlhL7QaNoaLmVRSfnIrAqUPg5FY9977w+g7DFqyl2ZfcSJvuecFwsffmX04EgI++/ZF4G2IIj7OEB+Ud+vKuk5FJalcJxBgAHcYAeAv6Mp9tPPYcLbj0dhq3ahf1mbSAWvUeosw+SE7PoLCwMARVIZRxFqkZ9aioWWtq3Weo0qLncRhst833vRgSofdV5k4EAF6VbMLMOfBVHWAWohp6UbVSGUyeu0BV65/rKADAhADgS0j48x0nXyd+nDB7703KwEOemtihehyVd+ypjFTPyKtPMfEJlg680bFxlJqZTYVlLalpp17KwkwDpl9EY1fsUEbhL7vhQcUOtdnJTN85FQCefe9jzAQAAFg6FllJ+DmtSckp9PyZT50DACtueshUrT2zCA8PZOPn24sOHaUZO69Vxh+MWLKJBs5YSt3HzaD2g8dSZc/Bynz2xq06UMMWVZRXXE48rTE9O4/4WTkPXnS9ouN+vZQrb6jk+t51ZOHm83k2BF+Pd2DkrngW8lZ9hihd8nx/FvThizYovRzTa66hxVceozVHHqdtD7xiu/LUAwBG77hRcyDlrngt64Trcc6hI0eJZ1VYLZAivWh1W80HeNGtK28/FlBdt3wPAK/AZhbRRTreRll46VHSAwBaDrpAs4iGEgAYIm46fpKy8/I1p99qgRjpBTwE2wdy8gvo5uMPBST+tngEkJaVQ9tPvAbh8SI8ABJzAIksAMy86XGKTUrRLKChBgAONG///WvadeV11Ld6qLKDWUpqGuEFG8AHtPsA7wTI9Wn3VdfTO59/E7D42wIAmLQGz1kBAAAAmNYHZAGgasRUzeLP9cMMAMDBBi/YAD5gLh+w/CMADnD8fJoHhqHFa44WL8rhl+UgAwDjLjlCEVHRAAAABAAKPqC7D9gCABgC8kua6b6CG4Tsl0IGe2izh1YA4K7/tJxCKfFHD4C5WlxoAaM8zOQDtgEADnRl7boRb+MLodImVLCbMXbTAgBzjjxLuWWV0uIPAIDgmElwkBZz+aOtAICDXcvuAyw1Rxyia4zomsmugQLArFufosKKDrqIPwDAXAEXAojyMJMP2A4AOOA1qmhHvCGPmUQAabG/0Psq40AAYOq1D1FmozLdxB8AAMExk+AgLebyR1sCAAe9tKxcmn/pbYAAzA4IuQ+oBYDhm66ihHT918/HLABzBV2IIMrDLD5gWwBgCIiMiqZBs5ZTzSmMC/DVOsXnxvdM+AOAObc9R21GzaDwiAhdW/5cB9ADALExi9ggHebzRVsDgCsA5jdpSkuuujvkLUGIrfFia0Yb1wYAI7ZeS+n5RYYIv8v/0QNgvsALMUSZmMEHHAEAHAjDwsKpslc1rb3jSYAAHgsE1Qe8AcDkKx+g8l7DFL90CbVRRwAAxMYMYoM0mM8PHQMAruDKiwbxZjTr7ngqqCJgxpYp0hScHgl3AJh0xXFqMXCc9OI+Ln9WcwQAmC/wQgxRJmbwAccBgCtgRkRGKT0CF193P0AAPQKG+gADAK/o16TLAAqPCP7OeAAAiI0ZxAZpMJ8fOhYAXCDAjwZ4q9p5Bw4bKgJobQentW0mO+98+C2auft6KqrsQCIszNDn/C5/9nYEAJgv8EIMUSZm8AHHA4B7wMwsKKLeE+bSqlsfBgygV0CzD6w+8hgNmH4R1c2VX8bX3T+1vgcAQGzMIDZIg/n8EABwbqqUe3DlXoH65RU0YvFG2nr8t5qFwEytUaTF2B6Izfe9SGOWb6fiyvYUFsLWvrsfu94DAMwXeCGGKBMz+AAAwAsAuAInH2PjE6lFt/40buVO2nj3bwAD6Bk47wPr73yaRi3dQk079qKomNiQdfG7+6u39wAAiI0ZxAZpMJ8fAgD8AIB7QA0Pj6C84nLlMcHCQ3eeFwK0ro1tXZvJvitvPkXVc1cqLX2jFu5x9zk93gMAzBd4IYYoEzP4AAAgAADwDMb8jLfdoNF0werdWF/Apj0Dqw8/qnTtt+47jNKyckzbyvf0Tff/zQYAH3/3E73+58/xgg3gAxI+wPVIFiIAABIA4B5k+X1mfgMAgcVBgAfwjV2xg1jw07PzLCn4nn5pBgB47v1PaM7FK6i4tIyioqNtYVdPO+P//y49DTsExw5cj7g+cb3i+qUFBqwPACYbcOXu/KmZ2dSsc2/qP20Jzdx1HXYoNBkcbDz2HE3fcTX1nbyAyjv0oOQ6meYVpsgozWkLNQBs3n8ZxcXHa06/e53C++CIC+xsLTtz/dpy4PKAIcDyAFB+8eWU1LCZJYILjw7PyG9AFT0H0cCZFyvis+bI4xhLEAQw4KmdU7YeUqbn8aBOy7Tuw8IovKInRc3Zp9nHQwkAa3deojndECFriRDKK/TltX73voAgwPIAULX/YWpz8FFqNGUdxaRnWTLYxCUmKdMOeTzB0PlraNbuG4i7onkhGTMNgDN7WnY+/KayhsOMndfS4DkrqE3/kVRQ0pxi4hMs6RfhDZpR1OxLKHrTPRS9/CbNeQgVAJx86TWKjNLecwFBCb2goAysVQb8WODUK6dVQ4BtAIAhoPUlD1L+0JkUlZSqOViayeEjo2Moq34jpXu6y8jJNHzReppRcw0tv/EEbX/wVUfCwbYHXqGLr3+Apm2/ioYuWEudh0+k0rZdlfEXvP2zmcpPa1rCchpR5Pg1/xV+Fn+LAkD16LG2KA+t5YjzrCWedimvoePGOxMAGAIUENjzAOUPmUmRiSm2DkCJqemU26iUytp1ow5DLlC6t8eurFHEkbc/XnPb47Tj5OuWAIXtJ14jfhyy6NBRmrrtSmXkfb+pi6j94LFU2q4rZRc1pvhke4Cdr0ATlteYIsev/aXwWxQAznz9AyUmJ9u6/vkqR3wO4Q+lDyQkJdGZr75XBQG26gFwAYDr2JpBYOhMik7NcHQg4kcMPPaAVzcsadOFWnYfQO0GjaFuY6Yp0MA9C7yK3YXr9tKkjQeJu9B50CKvdRDoi8/l18QNB5TrjVm2nYYtWEv9py5W7td24ChlYaUmVZ2osKylslyuVbvo9arkYfXLKXLCeu/Cb1EAeOz1dxxd5/TyDVwHMKHFB544/R4AwAUCbQ48Qo1nbqHEonIEJR2nPWpxTJxzLqBFRlF4eQeKmrGzduG3KADc98wLqGuoa/CBEPnA8edeAgCcB4Bzjwb4/7KLLqU6rXtQuE2eF0NQrdVCCEuuQxE9xyuD+pRn+y6B93e02CDAJ9/6AME/RMEfMcFaMcGI8nrm3Y8AAN4AwPVZq533Uf2xSyghvxiBCoHKUB8Ii4ik8MatKXL0MorecJe6Fr8nEFgMAD769kfi2QdGBDdcEwIHH/DtA3UyMkntKoG2HgPgEnt/x/Jlhyiry1CKSk5HwAIM6OYDDJeFI+dTvfW3axN9dwiwGADwqmQTZs7RzZYI+L4DPmwD27j7wOS5C1S1/rmOAgDcHg/wWIHSxfspq+swikpKQ/ACDATsA3H1Cim3/0RqvuYGZUYKw2dOzYOOBIBn3/sYMwFQhwKuQ+5ihveBwU1Scgo9f+ZTAIC/Vr+/76v2n6Imc3cqPQMx6fXgxAhk3n0gLIwSCksob/A0ar7upvOi7+5fTgUAbmEcOnKUIiIjvdsOPgW7wAd08wFedOvK24+pFn/0ALi3/v28b7ryGiXIJzYop7DwcN0KDYQbGOGawV4RcYmUXtGVii5cThXb7vIq+gCA/233etPxk5Sdl486A7GDDxjkAzn5BXTz8YcCEn8AgB/Rdw/i7u8ra+6h4umblN4B7vI1gyghDcaBBA/iSypqSjn9LqTShXuJe4fc/cHfeyf3AHCQ4dfbf/+adl15HfWtb+iWPwAAGOJJREFUHqrsYJaSmkZ4wQbwAe0+wDsBcn3afdX19M7n3wQs/gAAjQDgGfArtt5JDSespMyOgyg+pwEJE+9QCFDwDwos+In1Sym791hqMreGeEEpzzIP5H8AwP96A1xAgCNsAh8IvQ9gEKBOEOAuCDzFsMmcHZTbbwIlN6mkyPgk9BIY1PWlB9DwSpHpLbtQwbDZVLbkALW+5ISU4Lv7Ar8HAIQ+0EFsUAbwgV/7AADAAADwFAD+v8WGW6jR1PWU0+cCSimtss2GRXoIcDCvEVMnm9JadKK8AZOV1SFbbr5NV7H3VvYAgF8HHgRj2AQ+EHofAAAECQC8CUPl9mNUsmAP1R+1kDI7Dabk4hYUmWDvDYyCJfbRaRlK7wuv71B/9CLl2T33zHgrB6M/AwCEPtBBbFAG8IFf+wAAIIQA4Et4eJBh+cWXU8NJqylv4BSq26aPso+BslARxhcoj1N4JkZ0WiYlNWpOGe36KS36hhNXKXZrtft4SITeV3kCAH4deBCMYRP4QOh9AABgQgDwJST8edW+h6jFxlupdNE+ZeBh/uDpymyEtOadlJHqsZn5FBEbb+kxBxExccRrL/CUy/SWnZWFmfKrZyj55VH4PN+e7VCbncz0HQAg9IEOYoMygA/82gcsDwCtdt9vGSEIpihV7T1J/Hy7fNkVVDJ/NzWauoEajLtI2R6ZxyFkdq6mum16K/PZeUxCcuMKSshvTHHZ9Ymfk/OLH0fwAEZ+8dx3z+57/sz1vevIws3nxuc2VK6X1LCZ0hXPQl63bV8FVnL6jKf86unKXgzcy1Eybxc1XXGVkl69B+AF0+a+7qUHAERddPWv7O9ZHr7+r5ebp2mKEALmrwMmbAKb2MkHzAIA//YVvPx9zuv4+wq8+PxR2MYEPTx6AEDkhPWaAaC8RQUA4Nx6BHYK3sgLYETWB8wCAH/3J/S+vs/pPQ4iZwKRA2z5hi09ACC8VW/NANC5V28AAAAAPgAf+JUPmAUA3vAl8P4+567nyh3HAAGAANP6gCwARC25ikRklGYAGHHhxF9VfNmWA85H6xM+YH0fMAsAXOdP6Gv7ntdl55380Ar13QqFbUJnGykA2HCMwotaaBZ/rjfbL7sSAIDWH3wAPvArHzALAEyvTeDVfJfTdzwAAL0ApvQBGQCIaDtASvy57jz2+ju/qvhovVm/9YYyRBnK+oBZAKBUjcj7+w0v+IKWbuhaurC9d9trBYCIHuOkxT8rOwfij5YffAA+4NUHzAIAQghx2p/A+/0+LIyye43F4wD0BJgKBAMGgA3HKKLTcGnx5/oy5+IVXiu+bMsB56P1CR+wvg+YCQDm+xV4lRvK8MYusju4oTXrvTULuwRul4AAYPURCm/cWhfxj4iIoKff+RAAgNYffAA+4NUHzAQAKUKIb/WCAN6Wt/xirBEAwQ5csPW2WXbNAxS96R6/r6ipWyksPVsX8ed61HtQtddKj5ab9VtuKEOUoR4+YCYA4McAW/QCAL5OWHiEsowsegNCL4J6i6qVrldn+/21i//qwxTRbiAJHfd5iIiMpBMvvgoAQMsPPgAf8OkDZgOAeCHEJ3pCAF8rNiOXmszebqrnwlYSMKRVDqCStt7nHQA23k2Ro5dRWHId3Vr9rrozbcFin5Vej5aDzDU+/u4nev3Pn+MFG8AHJHyA65FMPeRzzQYA3Asw1BXE9D4mNWxOZUsOAAQwSDBoPlCx/xGv4h85cSOF5TTSXfi5zvDI/zc/+4d0cJANLu7nP/f+J8qAxOLSMoqKjjYk33rHC1xPoJxUjjsLha9wPeL6xAN9uX651ze1780IAAwB1xpp0NSm7ZXNZ9CylWvZwn7+7Ve0+8QvACBqxk4Kb9DMsMDKXf+3PfSYpmCgNmgE+rvN+y+juHhr71BpZDzCtQEasj7A9WvLgcsDrvdmBYAoIcTTskbxd35iUTk1mrKOqvY/HLQWIUTTv2jayUZp245TNHf1X7BaekU/f/7M32/Ysz/gIBCooAfy+7U7LzEMdtTYA7+BuDrJB9bv3hdQ/TcrAHAvQI4Q4k/BKLzYrHziRYRa73kQIIDHA7r5QPHWYxTRdwqFpWUFRQTNtuY/D0KMjNK+h0Ew6j7uAUCwkw/wY4FTr5xWDQFmBgCGgBIhxJ+DVUC8sVBmp8FUtuSgbiJgp9Ys8qKi9+LAI1Sy4BKq27YvhUXHBkX4uX4MGD6Sznz9g+qKH0grXutvq0ePDVr+gxUjcB8Ag9l9YOi48arjgNkBgCGgWAjxh2AbPTYzj3L7T6QWG24BDKBXwK8PtNx0hPKrp1NM3Zygi17/YSPozFffq670WgU9kPMYRhKTk4Nui2DHCdwPQGA2H0hISlIdD6wAAAwBjYQQZ0Ji6LAwSmrUnAqGz6EWG271KwRoJatoJdsEKJqvvYHyq2dQYoMyXefwB+Lnw8dPMF3Ln0GBNyAKJB/4LYQUPqCfDzxx+j1VDQKrAABDQLIQ4r5QO0lcvUJlv4HSxfux54BNhFw1tB14hMqXHVJ6hhLyG4dU4MLCwmjRmvWkx1zgQFr2an973zMvhNQ+oY4TuL9+YgZbBm7L48+9ZDsAYAiIEELsFEL8xwxOEZ2WQRnt+lHDiauoYuud6B2wIRC02HiYisYvo7pVvSkqKc0UopaUnELX3X2/qgquVrD1/t2Tb31gCluZIU4gDYELGGwmZ7Nn3v1IVXywUg8AA4Drb2CwZggE4ohxWQWU1XkIFU/bSJU77gYQWBAIKrYdpYaT11BGhwEheZ7vz99atetALK56C7be1/vo2x8pvW4GIMDEC8n48zV8LyfCobJfnYxM1T2DVgUABgHePOiqUBlZzX1j6mQrLceC4XOJHxlU7T0JKDARFFTtP0XNVl1L9ccuUcqJH+/ouR6/Gh9R+xte4Ie7/D/85t+mF38XTEyYOQcAAACADwTZBybPXaA6RlgZAFy9AdVCiI/VBtJQ/i48KpoSG5RTvW4jqOHE1dR05dVUte8hQEEQoKD1JSeofNkVVHThCsrqMpQSCksoLCLSEsGpWWVreuD5l1VXapcAh/r47HsfYyZAkIN/KOMb7h36HgN+PPj8mU9Vxwo7AACDQLQQYpEQ4iurOSHvWMg9BalN2ymDC1mgeKAZegu0zSbgVj1P3Ww8c4syLY+f3XPLPiw83BJi7+6/ael1iFf2slKr3xM6Dh05Stx74Z4vvA+9UKAM7FcGvOjWlbcfUy3+XFftAgCu3oB6QohrhBA/Wt3BuXUam5lPKaVVyuJE+UNmUqOp6xU4qKy5x9G9BpXbj1H50suo0eS1ishndhxEKSWtlV0frdKqr80/eTUv3s3v9GdfBlSZPcXXLP/fdPwkZeflAwLQGwAfMMgHcvIL6Jb7TwUcL+wGAC4QKDoHAv+uLdBa+buIuASKzymi1LK2VLdNH8ruPZZ4rAE/WihduJearb6OrAYKLOz8TL5k/m5lZkXBsDmU3XM01W3TWwGhuOz6FBETZ9sgwsJ/wbSZmnf2Movge0vHO59/Q7uvup76DRlGjUvLKSU1DS/YAD4g4QNcj7g+7bn6/9s7HyCrqjqOf6Fd2iVZWf5NBmZN8U/LhnKYVJQZY6ppxhJHIyPLMWIwiEILVCpFMwyQyMDCKa0hs7CisAwqkUQCHSU05T/4d5waFkYIKWdcT+9s7zmw7u4975773j333k8zbza859x37ud87/f3vX/evXcau391td9F/be8BoBKEDhF0g8k/SfLxd5n7PaIuLFlgLFPNrS/XW8Z+X7Tevq4jqJqf7Fgg4N9gp19F4K9Gc4eVdsXJNnP8CnXm1HTF7z+sa9StpcnKp9Tv7Lk9WW2nf31Q6WvvZPeru8dF8/sWP9JEz5lhpzz8Y6b7VpPP9u0jBjTMZ6mwUM7xpeHI/e482RP3U267PPGXjOP2mFZ3g6jozBgP0hGA3kPAJUgYH8xYO8ReCauSdMvf9fM0p5Te8OOvWP3b7ueoahR1NAAGqi7BooSACpBoEHSRZIeCOVhQmkXIb6//sFm+OhTzbeX/tBsP3Ck7js8R07JHDnBEY550EDRAkAlCNi/w0qXBuak9o6BGt0MQkGvf0F3Yd7U3Nzxxr6f/f5Pzg/pyIPBsA0USjQQrgaKHAAqYaBX6YzA+PJNg/tdzJw2YRbZ0Oald+/eZuy4cztufntq/2GO9jnFiwbQQFAaIABUYsD//9p3DYyT9D1JL4ZWUBhP+MHDFv0zzjy74/f7m/c+H9TOzpFYuEdizA1zk4YGCADHB4Bj/2XDwDmS5kvaSvENv/imNUdvbmoy5074sJn33e+bh/e9QNHnKA8NoIFMaIAAcGzJ7/n/D5U0RdKvJR1Mq9jwvWEEkbcOHWYuufwL5vaVqwyn9zl6S+Poje9Ed74aIAD0XPS7W9pb0pjSo4dnSVot6SUKcxiFuVbzYB/Lax+6MW/xrWbtY09kIt37mgP9KTBoIN8aIAB0V+Kr++/2coENBNMlreCXBdkPA/YI/2MXXtRxLf++h7cY+3pbzDDfZsj8Mr9F0wABoLpCX03rIZLOl3SDpHtLlw9eqNXRKev1DxzvGjnKTJk5y9x218qq3qZVNMNgeymSaCA/GiAAVFPS/dvaUPARSVdLukvSliI/pjik4HLdoiUc4XPjFhpAA4XSAAHAv6j7rsFePhhe+qXBBZKulXSHpPWSnpPUHlKRzPNYCAD5OarhCJW5RANuGiAA+Jbv2vbvUw4H9qzBFZIWSLqndGnhMX6J0HHav03SQ6WnOv5I0mxJa+KGFAKAm2FgrHBCA/nRAAGgtgW81mtvlfQeSedJ+nT5hUc3lc8i2PsONkt6tlQcj8YtjCn1e1XSP0vvbXiyfDZkpaQl5e2zZ0rsDZd22zv/zz7AKdbrggkA+TE1ChRziQbcNEAA6FxC8vvvE8pnE8aWjponSJoo6TOlJx5OLb8TYZ6kRZKWS7q7/PPGv0h6tJvPU5L2dvP5R7nPXyX9WdIqSbaI/7i8/oWSbpZ0TanQTyuPxT50abSkwR5TQADgGm6hruFS6NwKHZy65kQA8Kg2dA2OQOwAMOfG+Wbri22Z+uw4+DLFjsCDBtBAbA0QAIKrYQzIg0DsABD30kHa/fq3DjAjT3uvuXzGl80v1q7LxJsG7TMVsha2GG+2wnER5iuJZ5MQADyqDV2DI1C4ANA5gLzvjLHm7jX3xz4iqNWp0od27DPTrppt3j1qtGns0yfWfRqdt5V/x7vfBW754Gb3I7s/2f1q486nY+3zBIDgahgD8iBQ+ABQMffLvvilYJ5eaF+S1NTcTNGPeYNqZU75m4/CXYt5bO7b19ywZGnVIYAA4FFt6BocAQLAMUXm/IsnpR4Cvv6dWyj8x8xJLcyfdRIMKhr4xoLFVYUAAkBwNYwBeRAgAHQqNjOunluVISR5CcC+Q6GhsZEA0GlOKmbNXwp30hqw+9vaRx933ucJAB7Vhq7BESAAdCo2vXr1Mr9at8HZEJIMAPYMRNIGx/oommigZw1ccMlk5/2dABBcDWNAHgQIAJ0CgDXLMWM/WPdfB+w+/Io5oaWFANDFfFDAei5g8PHj85Z+/czuQ/91CgEEAI9qQ9fgCCzGPLo2j98+uMnJEJI6A3D/1m0Uf4o/GkhJAw88scNpfycABFfDGJAHga8RALoOANNnX+NkCEkFgN9t2Iz5p2T+7ANd7wNF4rJ64yNO+zsBwKPa0DU4AuOLtJNXs632MkBSxd1lPeuf3EUAIACggZQ0sGH7Xqf9nQAQXA1jQB4EGsovP8J4OhnPScNOdjIEl+Lu0sY+pWzAoMHMQ6d5qCa00ZYj+TgaGDh4iPM9PwQAj2pD1yAJTI6z0+S9j/15kEvhTrLNpVOvIAAQANBAnTVgHwLmuh8TAIKsYQzKk8CyvBf0ONvnagpJtbOP/+WXABzFxtEqfeLppuXE/mbTnucIAJ4FhO7ZJtBb0k8wkeNNJKnCXs16bvv5PeZNDQ0cBdb5KBDtH6/9IvCwZ/mW//I3zsXf7secAch2oWP03ROoWQiwKbulf2sqHx8jq6ZwJ9n2p6v/aOw9CD5jp2/xChpz7j7nbzv57WbFvWurKv4EgO6LB0vyQaAmIeCTn51qtu9vNzvaXqv7xz7ZL64xJlnUq13XtrZ/m4XL7zAf/cREM2L0aebE/q18YIAGPDRg9yO7Py26/U5j969q90kCQD6KHFvRM4FchYCsBoA45kSf9limDje4uWqASwA9Fw+W5oNAbkIAAQBzdzV32qGVKA0QAPJR4NiKaAK5CAEEAEw9ytRZjkZcNUAAiC4ctMgPgcyHAAIA5u5q7rRDK1EaIADkp7ixJW4EMh0CCACYepSpsxyNuGqAAOBWNGiVLwKZDQEEAMzd1dxph1aiNEAAyFdhY2vcCWQyBBAAMPUoU2c5GnHVAAHAvWDQMn8EMhcCCACYu6u50w6tRGmAAJC/osYWVUcgUyGAAICpR5k6y9GIqwYIANUVC1rnk0BmQgABAHN3NXfaoZUoDRAA8lnQ2KrqCWQiBBAAMPUoU2c5GnHVAAGg+kJBj/wSCD4EEAAwd1dzpx1aidIAASC/xYwti0cg6BBAAMDUo0yd5WjEVQMEgHhFgl75JhBsCCAAYO6u5k47tBKlAQJAvgsZWxefQJAhgACAqUeZOsvRiKsGCADxCwQ9808guBBAAMDcXc2ddmglSgMEgPwXMbbQj0BQIYAAgKlHmTrL0YirBggAfsWB3sUgEEwIIABg7q7mTju0EqUBAkAxChhb6U8giBBAAMDUo0yd5WjEVQMEAP/CwBqKQyD1EEAAwNxdzZ12aCVKAwSA4hQvtjQZAqmGAAIAph5l6ixHI64aIAAkUxRYS7EIpBYCCACYu6u50w6tRGmAAFCswsXWJkcglRBAAMDUo0yd5WjEVQMEgOQKAmsqHoG6hwACAObuau60QytRGiAAFK9oscXJEqhrCCAAYOpRps5yNOKqAQJAssWAtRWTQN1CAAEAc3c1d9qhlSgNEACKWbDY6uQJ1CUEEAAw9ShTZzkacdUAASD5QsAai0ug5iGAAIC5u5o77dBKlAYIAMUtVmx5bQjUNAQQADD1KFNnORpx1QABoDZFgLUWm0BNQsDkKTMMAQBzdzV32qGVKA0QAIpdqNj62hGoSQiQZOJ+osyA5RQMNFAsDRAAalcAWDMEggoBmHuxzJ35Zr6jNEAAoEhBoLYEggkBUWbAcgoGGiiWBvYcajc72l7z+mx59nDss5KSXqmt/bJ2CKRPIIgQgLkXy9yZb+Y7SgO7X/IPAPdt2uYTANrSt2dGAIHaE0g9BESZAcspGGigWBrYddA/AFy3cJlPANhVe+vlGyAQBoFUQwDmXixzZ76Z7ygN7Dzgd/rfXj4YM/YsnwDwhzCsmVFAoD4EUgsBUWbAcgoGGiiOBvYd8T/6X7ZilU/xt31vqY/t8i0QCIdAKiEAcy+OuTPXzHWUBvYc8jv6X/f3p83AQUN8A8CF4dgyI4FA/QjUPQREGQLLKRpooBga2He03ew8GD8ArH7wcTPslHf6Fv92SQPrZ7l8EwTCIlDXEIC5F8PcmWfmOUoDew/HK/6P7Dlgpl051zQ19/Ut/rb/+rDsmNFAoP4E6hYC5tw43/CBARpAA1/95nxzleNn1txvmUunzjRnjZ9gGhobkyj8lXVMqb/d8o0QCI9A3UJA3McI0y/+I5hhBzs08AYNHCzdANgvPCtmRBBIhwAhwOM9BxjsGwy2cpTFX3QVogauT8dm+VYIhEuAEIBZh2jWjAldJqmBf0nqH64NMzIIpEeAEIDZJmm2rAs9haaBz6Vnr3wzBMInQAjAtEMzbcaDJpPQgH3yX6/wLZgRQiBdAoQADDcJw2Ud6CgUDTwvaVC6tsq3QyA7BAgBmHco5s040KKPBg5JGpMd62WkEAiDACEA4/UxXvqin7Q18LKk88KwU0YBgewRIARg4mmbON+PBuNowP7ef1z2LJcRQyAsAoQADDiOAdMH3aSlga2SRoRlo4wGAtklQAjAzNMyc74X7blq4FVJt0pqzq7VMnIIhEmAEIARuxox7dBKvTWwUdIHwrRORgWBfBCwIWApj7/l8bdoAA0EoAH7Wt+1kj6UD3tlKyCQDQKTJO0NwADqfZTB93FkiwbS1cARSWskXSlpaDbsklFCIH8E7NmAMyXNlHSTpJv5wAANoIGENXBt2WMmShpd8prG/FkpWwQBCEAAAhCAAAQgAAEIQAACEIAABCAAAQhAAAIQgAAEIAABCEAAAhCAAAQgAAEIQAACEIAABCAAAQhAAAIQgAAEIAABCEAAAhCAAAQgAAEIQAACEIAABCAAAQhAAAIQgAAEIAABCEAAAhCAAAQgAAEIQAACEIAABCAAAQhAAAIQgAAEIAABCEAAAhCAAAQgAAEIQAACEIAABCAAAQhAAAIQgAAEIAABCEAAAhCAAAQgAAEIQAACEIAABCAAAQhAAAIQgAAEIAABCEAAAhCAAAQgAAEIQAACEEiWwP8ATGZu2cTlW2YAAAAASUVORK5CYII=;labelPosition=left;align=right;fontSize=12;spacingRight=5;labelBorderColor=none;" parent="1" vertex="1">
          <mxGeometry x="600" y="-260" width="80" height="80" as="geometry" />
        </mxCell>
        <mxCell id="0C0zzfNq5MIXWUPN0tT3-11" value="Importação" style="edgeStyle=orthogonalEdgeStyle;rounded=0;orthogonalLoop=1;jettySize=auto;html=1;fontSize=12;" parent="1" source="0C0zzfNq5MIXWUPN0tT3-41" target="0C0zzfNq5MIXWUPN0tT3-26" edge="1">
          <mxGeometry x="-0.2" relative="1" as="geometry">
            <mxPoint x="440" y="-160" as="sourcePoint" />
            <mxPoint x="404.90999999999985" y="44.5" as="targetPoint" />
            <mxPoint as="offset" />
            <Array as="points">
              <mxPoint x="440" y="-160" />
              <mxPoint x="440" y="-160" />
            </Array>
          </mxGeometry>
        </mxCell>
        <mxCell id="0C0zzfNq5MIXWUPN0tT3-30" style="edgeStyle=orthogonalEdgeStyle;rounded=0;orthogonalLoop=1;jettySize=auto;html=1;entryX=0;entryY=0.25;entryDx=0;entryDy=0;" parent="1" source="0C0zzfNq5MIXWUPN0tT3-2" edge="1">
          <mxGeometry relative="1" as="geometry">
            <mxPoint x="320" y="20" as="targetPoint" />
            <Array as="points">
              <mxPoint x="200" y="-80" />
              <mxPoint x="200" y="20" />
            </Array>
          </mxGeometry>
        </mxCell>
        <mxCell id="0C0zzfNq5MIXWUPN0tT3-2" value="Sistema Acadêmico" style="shape=image;verticalLabelPosition=bottom;labelBackgroundColor=default;verticalAlign=top;aspect=fixed;imageAspect=0;image=https://cdn-icons-png.flaticon.com/512/2599/2599288.png;" parent="1" vertex="1">
          <mxGeometry x="60" y="-120" width="80" height="80" as="geometry" />
        </mxCell>
        <mxCell id="0C0zzfNq5MIXWUPN0tT3-6" value="Conversão" style="edgeStyle=orthogonalEdgeStyle;rounded=0;orthogonalLoop=1;jettySize=auto;html=1;exitX=0.5;exitY=0;exitDx=0;exitDy=0;fontSize=12;" parent="1" source="0C0zzfNq5MIXWUPN0tT3-35" target="mrAK-Dbqs_JbjPh-Ceqg-8" edge="1">
          <mxGeometry x="-0.2" relative="1" as="geometry">
            <mxPoint x="542.0899999999999" y="40" as="sourcePoint" />
            <mxPoint as="offset" />
          </mxGeometry>
        </mxCell>
        <mxCell id="0C0zzfNq5MIXWUPN0tT3-37" value="Processamento" style="edgeStyle=orthogonalEdgeStyle;rounded=0;orthogonalLoop=1;jettySize=auto;html=1;exitX=1;exitY=0.5;exitDx=0;exitDy=0;entryX=0.5;entryY=0;entryDx=0;entryDy=0;fontSize=12;" parent="1" source="0C0zzfNq5MIXWUPN0tT3-15" target="0C0zzfNq5MIXWUPN0tT3-42" edge="1">
          <mxGeometry x="0.1667" relative="1" as="geometry">
            <mxPoint x="360" as="targetPoint" />
            <mxPoint as="offset" />
          </mxGeometry>
        </mxCell>
        <mxCell id="0C0zzfNq5MIXWUPN0tT3-15" value="Tabula" style="shape=image;imageAspect=0;verticalLabelPosition=bottom;verticalAlign=top;fillColor=default;image=https://avatars.githubusercontent.com/u/8267906;clipPath=inset(0% 14.67% 0% 14.33%);aspect=fixed;labelPosition=center;align=center;labelBackgroundColor=default;fontSize=12;" parent="1" vertex="1">
          <mxGeometry x="240" y="-130" width="80" height="80" as="geometry" />
        </mxCell>
        <mxCell id="0C0zzfNq5MIXWUPN0tT3-32" value="Negado" style="edgeStyle=orthogonalEdgeStyle;rounded=0;orthogonalLoop=1;jettySize=auto;html=1;entryX=0;entryY=0.5;entryDx=0;entryDy=0;fontColor=#FF3333;endArrow=cross;endFill=0;startArrow=cross;startFill=0;strokeColor=#FF3333;" parent="1" source="0C0zzfNq5MIXWUPN0tT3-20" target="0C0zzfNq5MIXWUPN0tT3-42" edge="1">
          <mxGeometry relative="1" as="geometry">
            <mxPoint x="320" y="40" as="targetPoint" />
            <Array as="points" />
          </mxGeometry>
        </mxCell>
        <mxCell id="0C0zzfNq5MIXWUPN0tT3-20" value="&lt;div&gt;&lt;span style=&quot;font-size: 10px;&quot;&gt;Banco de Dados&lt;/span&gt;&lt;/div&gt;" style="shape=cylinder3;whiteSpace=wrap;html=1;boundedLbl=1;backgroundOutline=1;size=15;labelBackgroundColor=default;align=center;fillColor=none;fontColor=default;verticalAlign=top;strokeColor=#FF3333;" parent="1" vertex="1">
          <mxGeometry x="60" width="80" height="80" as="geometry" />
        </mxCell>
        <mxCell id="0C0zzfNq5MIXWUPN0tT3-26" value="Código em&#xa;Python" style="shape=image;verticalLabelPosition=bottom;labelBackgroundColor=default;verticalAlign=top;imageAspect=0;image=data:image/svg+xml,PHN2ZyB4bWxuczp4bGluaz0iaHR0cDovL3d3dy53My5vcmcvMTk5OS94bGluayIgeG1sbnM9Imh0dHA6Ly93d3cudzMub3JnLzIwMDAvc3ZnIiB4bWxuczpkYz0iaHR0cDovL3B1cmwub3JnL2RjL2VsZW1lbnRzLzEuMS8iIHdpZHRoPSIxMjBwdCIgaGVpZ2h0PSIxMjBwdCIgdmlld0JveD0iMCAwIDEyMCAxMjAiPiYjeGE7ICA8ZGVmcz4mI3hhOyAgICA8bGluZWFyR3JhZGllbnQgaWQ9ImxpbmVhckdyYWRpZW50NDY3MSI+JiN4YTsgICAgICA8c3RvcCBzdHlsZT0ic3RvcC1jb2xvcjojZmZkNDNiIiBvZmZzZXQ9IjAiLz4mI3hhOyAgICAgIDxzdG9wIHN0eWxlPSJzdG9wLWNvbG9yOiNmZmU4NzMiIG9mZnNldD0iMSIvPiYjeGE7ICAgIDwvbGluZWFyR3JhZGllbnQ+JiN4YTsgICAgPGxpbmVhckdyYWRpZW50IGlkPSJsaW5lYXJHcmFkaWVudDQ2ODkiPiYjeGE7ICAgICAgPHN0b3Agc3R5bGU9InN0b3AtY29sb3I6IzVhOWZkNCIgb2Zmc2V0PSIwIi8+JiN4YTsgICAgICA8c3RvcCBzdHlsZT0ic3RvcC1jb2xvcjojMzA2OTk4IiBvZmZzZXQ9IjEiLz4mI3hhOyAgICA8L2xpbmVhckdyYWRpZW50PiYjeGE7ICAgIDxsaW5lYXJHcmFkaWVudCB4bGluazpocmVmPSIjbGluZWFyR3JhZGllbnQ0NjcxIiBpZD0ibGluZWFyR3JhZGllbnQxNDc1IiBncmFkaWVudFVuaXRzPSJ1c2VyU3BhY2VPblVzZSIgZ3JhZGllbnRUcmFuc2Zvcm09Im1hdHJpeCgwLjU2MjU0MSwwLDAsMC41Njc5NzIsLTE0Ljk5MTEyLC0xMS43MDIzNzEpIiB4MT0iMTUwLjk2MTExIiB5MT0iMTkyLjM1MTc2IiB4Mj0iMTEyLjAzMTQ0IiB5Mj0iMTM3LjI3Mjk5Ii8+JiN4YTsgICAgPGxpbmVhckdyYWRpZW50IHhsaW5rOmhyZWY9IiNsaW5lYXJHcmFkaWVudDQ2ODkiIGlkPSJsaW5lYXJHcmFkaWVudDE0NzgiIGdyYWRpZW50VW5pdHM9InVzZXJTcGFjZU9uVXNlIiBncmFkaWVudFRyYW5zZm9ybT0ibWF0cml4KDAuNTYyNTQxLDAsMCwwLjU2Nzk3MiwtMTQuOTkxMTIsLTExLjcwMjM3MSkiIHgxPSIyNi42NDg5MzciIHkxPSIyMC42MDM3ODEiIHgyPSIxMzUuNjY1MjUiIHkyPSIxMTQuMzk3NjciLz4mI3hhOyAgPC9kZWZzPiYjeGE7ICA8cGF0aCBzdHlsZT0iZmlsbDp1cmwoI2xpbmVhckdyYWRpZW50MTQ3OCkiIGQ9Ik0gNTQuOTE4Nzg1LDkuMTkyNzQyMWUtNCBDIDUwLjMzNTEzMiwwLjAyMjIxNzI3IDQ1Ljk1Nzg0NiwwLjQxMzEzNjk3IDQyLjEwNjI4NSwxLjA5NDY2OTMgMzAuNzYwMDY5LDMuMDk5MTczMSAyOC43MDAwMzYsNy4yOTQ3NzE0IDI4LjcwMDAzNSwxNS4wMzIxNjkgdiAxMC4yMTg3NSBoIDI2LjgxMjUgdiAzLjQwNjI1IGggLTI2LjgxMjUgLTEwLjA2MjUgYyAtNy43OTI0NTksMCAtMTQuNjE1NzU4OCw0LjY4MzcxNyAtMTYuNzQ5OTk5OCwxMy41OTM3NSAtMi40NjE4MTk5OCwxMC4yMTI5NjYgLTIuNTcxMDE1MDgsMTYuNTg2MDIzIDAsMjcuMjUgMS45MDU5MjgzLDcuOTM3ODUyIDYuNDU3NTQzMiwxMy41OTM3NDggMTQuMjQ5OTk5OCwxMy41OTM3NSBoIDkuMjE4NzUgdiAtMTIuMjUgYyAwLC04Ljg0OTkwMiA3LjY1NzE0NCwtMTYuNjU2MjQ4IDE2Ljc1LC0xNi42NTYyNSBoIDI2Ljc4MTI1IGMgNy40NTQ5NTEsMCAxMy40MDYyNTMsLTYuMTM4MTY0IDEzLjQwNjI1LC0xMy42MjUgdiAtMjUuNTMxMjUgYyAwLC03LjI2NjMzODYgLTYuMTI5OTgsLTEyLjcyNDc3NzEgLTEzLjQwNjI1LC0xMy45Mzc0OTk3IEMgNjQuMjgxNTQ4LDAuMzI3OTQzOTcgNTkuNTAyNDM4LC0wLjAyMDM3OTAzIDU0LjkxODc4NSw5LjE5Mjc0MjFlLTQgWiBtIC0xNC41LDguMjE4NzUwMTI1NzkgYyAyLjc2OTU0NywwIDUuMDMxMjUsMi4yOTg2NDU2IDUuMDMxMjUsNS4xMjQ5OTk2IC0yZS02LDIuODE2MzM2IC0yLjI2MTcwMyw1LjA5Mzc1IC01LjAzMTI1LDUuMDkzNzUgLTIuNzc5NDc2LC0xZS02IC01LjAzMTI1LC0yLjI3NzQxNSAtNS4wMzEyNSwtNS4wOTM3NSAtMTBlLTcsLTIuODI2MzUzIDIuMjUxNzc0LC01LjEyNDk5OTYgNS4wMzEyNSwtNS4xMjQ5OTk2IHoiLz4mI3hhOyAgPHBhdGggc3R5bGU9ImZpbGw6dXJsKCNsaW5lYXJHcmFkaWVudDE0NzUpIiBkPSJtIDg1LjYzNzUzNSwyOC42NTcxNjkgdiAxMS45MDYyNSBjIDAsOS4yMzA3NTUgLTcuODI1ODk1LDE2Ljk5OTk5OSAtMTYuNzUsMTcgaCAtMjYuNzgxMjUgYyAtNy4zMzU4MzMsMCAtMTMuNDA2MjQ5LDYuMjc4NDgzIC0xMy40MDYyNSwxMy42MjUgdiAyNS41MzEyNDcgYyAwLDcuMjY2MzQ0IDYuMzE4NTg4LDExLjU0MDMyNCAxMy40MDYyNSwxMy42MjUwMDQgOC40ODczMzEsMi40OTU2MSAxNi42MjYyMzcsMi45NDY2MyAyNi43ODEyNSwwIDYuNzUwMTU1LC0xLjk1NDM5IDEzLjQwNjI1MywtNS44ODc2MSAxMy40MDYyNSwtMTMuNjI1MDA0IFYgODYuNTAwOTE5IGggLTI2Ljc4MTI1IHYgLTMuNDA2MjUgaCAyNi43ODEyNSAxMy40MDYyNTQgYyA3Ljc5MjQ2MSwwIDEwLjY5NjI1MSwtNS40MzU0MDggMTMuNDA2MjQxLC0xMy41OTM3NSAyLjc5OTMzLC04LjM5ODg4NiAyLjY4MDIyLC0xNi40NzU3NzYgMCwtMjcuMjUgLTEuOTI1NzgsLTcuNzU3NDQxIC01LjYwMzg3LC0xMy41OTM3NSAtMTMuNDA2MjQxLC0xMy41OTM3NSB6IG0gLTE1LjA2MjUsNjQuNjU2MjUgYyAyLjc3OTQ3OCwzZS02IDUuMDMxMjUsMi4yNzc0MTcgNS4wMzEyNSw1LjA5Mzc0NyAtMmUtNiwyLjgyNjM1NCAtMi4yNTE3NzUsNS4xMjUwMDQgLTUuMDMxMjUsNS4xMjUwMDQgLTIuNzY5NTUsMCAtNS4wMzEyNSwtMi4yOTg2NSAtNS4wMzEyNSwtNS4xMjUwMDQgMmUtNiwtMi44MTYzMyAyLjI2MTY5NywtNS4wOTM3NDcgNS4wMzEyNSwtNS4wOTM3NDcgeiIvPiYjeGE7PC9zdmc+;clipPath=inset(0% 6.25% 6.25% 0%);aspect=fixed;labelPosition=center;align=center;fontSize=12;" parent="1" vertex="1">
          <mxGeometry x="400" y="-130" width="80" height="80" as="geometry" />
        </mxCell>
        <mxCell id="0C0zzfNq5MIXWUPN0tT3-35" value="Código em&#xa;Python" style="shape=image;verticalLabelPosition=middle;labelBackgroundColor=default;verticalAlign=middle;imageAspect=0;image=data:image/svg+xml,PHN2ZyB4bWxuczp4bGluaz0iaHR0cDovL3d3dy53My5vcmcvMTk5OS94bGluayIgeG1sbnM9Imh0dHA6Ly93d3cudzMub3JnLzIwMDAvc3ZnIiB4bWxuczpkYz0iaHR0cDovL3B1cmwub3JnL2RjL2VsZW1lbnRzLzEuMS8iIHdpZHRoPSIxMjBwdCIgaGVpZ2h0PSIxMjBwdCIgdmlld0JveD0iMCAwIDEyMCAxMjAiPiYjeGE7ICA8ZGVmcz4mI3hhOyAgICA8bGluZWFyR3JhZGllbnQgaWQ9ImxpbmVhckdyYWRpZW50NDY3MSI+JiN4YTsgICAgICA8c3RvcCBzdHlsZT0ic3RvcC1jb2xvcjojZmZkNDNiIiBvZmZzZXQ9IjAiLz4mI3hhOyAgICAgIDxzdG9wIHN0eWxlPSJzdG9wLWNvbG9yOiNmZmU4NzMiIG9mZnNldD0iMSIvPiYjeGE7ICAgIDwvbGluZWFyR3JhZGllbnQ+JiN4YTsgICAgPGxpbmVhckdyYWRpZW50IGlkPSJsaW5lYXJHcmFkaWVudDQ2ODkiPiYjeGE7ICAgICAgPHN0b3Agc3R5bGU9InN0b3AtY29sb3I6IzVhOWZkNCIgb2Zmc2V0PSIwIi8+JiN4YTsgICAgICA8c3RvcCBzdHlsZT0ic3RvcC1jb2xvcjojMzA2OTk4IiBvZmZzZXQ9IjEiLz4mI3hhOyAgICA8L2xpbmVhckdyYWRpZW50PiYjeGE7ICAgIDxsaW5lYXJHcmFkaWVudCB4bGluazpocmVmPSIjbGluZWFyR3JhZGllbnQ0NjcxIiBpZD0ibGluZWFyR3JhZGllbnQxNDc1IiBncmFkaWVudFVuaXRzPSJ1c2VyU3BhY2VPblVzZSIgZ3JhZGllbnRUcmFuc2Zvcm09Im1hdHJpeCgwLjU2MjU0MSwwLDAsMC41Njc5NzIsLTE0Ljk5MTEyLC0xMS43MDIzNzEpIiB4MT0iMTUwLjk2MTExIiB5MT0iMTkyLjM1MTc2IiB4Mj0iMTEyLjAzMTQ0IiB5Mj0iMTM3LjI3Mjk5Ii8+JiN4YTsgICAgPGxpbmVhckdyYWRpZW50IHhsaW5rOmhyZWY9IiNsaW5lYXJHcmFkaWVudDQ2ODkiIGlkPSJsaW5lYXJHcmFkaWVudDE0NzgiIGdyYWRpZW50VW5pdHM9InVzZXJTcGFjZU9uVXNlIiBncmFkaWVudFRyYW5zZm9ybT0ibWF0cml4KDAuNTYyNTQxLDAsMCwwLjU2Nzk3MiwtMTQuOTkxMTIsLTExLjcwMjM3MSkiIHgxPSIyNi42NDg5MzciIHkxPSIyMC42MDM3ODEiIHgyPSIxMzUuNjY1MjUiIHkyPSIxMTQuMzk3NjciLz4mI3hhOyAgPC9kZWZzPiYjeGE7ICA8cGF0aCBzdHlsZT0iZmlsbDp1cmwoI2xpbmVhckdyYWRpZW50MTQ3OCkiIGQ9Ik0gNTQuOTE4Nzg1LDkuMTkyNzQyMWUtNCBDIDUwLjMzNTEzMiwwLjAyMjIxNzI3IDQ1Ljk1Nzg0NiwwLjQxMzEzNjk3IDQyLjEwNjI4NSwxLjA5NDY2OTMgMzAuNzYwMDY5LDMuMDk5MTczMSAyOC43MDAwMzYsNy4yOTQ3NzE0IDI4LjcwMDAzNSwxNS4wMzIxNjkgdiAxMC4yMTg3NSBoIDI2LjgxMjUgdiAzLjQwNjI1IGggLTI2LjgxMjUgLTEwLjA2MjUgYyAtNy43OTI0NTksMCAtMTQuNjE1NzU4OCw0LjY4MzcxNyAtMTYuNzQ5OTk5OCwxMy41OTM3NSAtMi40NjE4MTk5OCwxMC4yMTI5NjYgLTIuNTcxMDE1MDgsMTYuNTg2MDIzIDAsMjcuMjUgMS45MDU5MjgzLDcuOTM3ODUyIDYuNDU3NTQzMiwxMy41OTM3NDggMTQuMjQ5OTk5OCwxMy41OTM3NSBoIDkuMjE4NzUgdiAtMTIuMjUgYyAwLC04Ljg0OTkwMiA3LjY1NzE0NCwtMTYuNjU2MjQ4IDE2Ljc1LC0xNi42NTYyNSBoIDI2Ljc4MTI1IGMgNy40NTQ5NTEsMCAxMy40MDYyNTMsLTYuMTM4MTY0IDEzLjQwNjI1LC0xMy42MjUgdiAtMjUuNTMxMjUgYyAwLC03LjI2NjMzODYgLTYuMTI5OTgsLTEyLjcyNDc3NzEgLTEzLjQwNjI1LC0xMy45Mzc0OTk3IEMgNjQuMjgxNTQ4LDAuMzI3OTQzOTcgNTkuNTAyNDM4LC0wLjAyMDM3OTAzIDU0LjkxODc4NSw5LjE5Mjc0MjFlLTQgWiBtIC0xNC41LDguMjE4NzUwMTI1NzkgYyAyLjc2OTU0NywwIDUuMDMxMjUsMi4yOTg2NDU2IDUuMDMxMjUsNS4xMjQ5OTk2IC0yZS02LDIuODE2MzM2IC0yLjI2MTcwMyw1LjA5Mzc1IC01LjAzMTI1LDUuMDkzNzUgLTIuNzc5NDc2LC0xZS02IC01LjAzMTI1LC0yLjI3NzQxNSAtNS4wMzEyNSwtNS4wOTM3NSAtMTBlLTcsLTIuODI2MzUzIDIuMjUxNzc0LC01LjEyNDk5OTYgNS4wMzEyNSwtNS4xMjQ5OTk2IHoiLz4mI3hhOyAgPHBhdGggc3R5bGU9ImZpbGw6dXJsKCNsaW5lYXJHcmFkaWVudDE0NzUpIiBkPSJtIDg1LjYzNzUzNSwyOC42NTcxNjkgdiAxMS45MDYyNSBjIDAsOS4yMzA3NTUgLTcuODI1ODk1LDE2Ljk5OTk5OSAtMTYuNzUsMTcgaCAtMjYuNzgxMjUgYyAtNy4zMzU4MzMsMCAtMTMuNDA2MjQ5LDYuMjc4NDgzIC0xMy40MDYyNSwxMy42MjUgdiAyNS41MzEyNDcgYyAwLDcuMjY2MzQ0IDYuMzE4NTg4LDExLjU0MDMyNCAxMy40MDYyNSwxMy42MjUwMDQgOC40ODczMzEsMi40OTU2MSAxNi42MjYyMzcsMi45NDY2MyAyNi43ODEyNSwwIDYuNzUwMTU1LC0xLjk1NDM5IDEzLjQwNjI1MywtNS44ODc2MSAxMy40MDYyNSwtMTMuNjI1MDA0IFYgODYuNTAwOTE5IGggLTI2Ljc4MTI1IHYgLTMuNDA2MjUgaCAyNi43ODEyNSAxMy40MDYyNTQgYyA3Ljc5MjQ2MSwwIDEwLjY5NjI1MSwtNS40MzU0MDggMTMuNDA2MjQxLC0xMy41OTM3NSAyLjc5OTMzLC04LjM5ODg4NiAyLjY4MDIyLC0xNi40NzU3NzYgMCwtMjcuMjUgLTEuOTI1NzgsLTcuNzU3NDQxIC01LjYwMzg3LC0xMy41OTM3NSAtMTMuNDA2MjQxLC0xMy41OTM3NSB6IG0gLTE1LjA2MjUsNjQuNjU2MjUgYyAyLjc3OTQ3OCwzZS02IDUuMDMxMjUsMi4yNzc0MTcgNS4wMzEyNSw1LjA5Mzc0NyAtMmUtNiwyLjgyNjM1NCAtMi4yNTE3NzUsNS4xMjUwMDQgLTUuMDMxMjUsNS4xMjUwMDQgLTIuNzY5NTUsMCAtNS4wMzEyNSwtMi4yOTg2NSAtNS4wMzEyNSwtNS4xMjUwMDQgMmUtNiwtMi44MTYzMyAyLjI2MTY5NywtNS4wOTM3NDcgNS4wMzEyNSwtNS4wOTM3NDcgeiIvPiYjeGE7PC9zdmc+;clipPath=inset(0% 6.25% 6.25% 0%);aspect=fixed;labelPosition=left;align=right;fontSize=12;spacingRight=5;" parent="1" vertex="1">
          <mxGeometry x="600" y="-130" width="80" height="80" as="geometry" />
        </mxCell>
        <mxCell id="0C0zzfNq5MIXWUPN0tT3-31" value="Copiar e colar" style="edgeStyle=orthogonalEdgeStyle;rounded=0;orthogonalLoop=1;jettySize=auto;html=1;entryX=0;entryY=0.25;entryDx=0;entryDy=0;" parent="1" source="0C0zzfNq5MIXWUPN0tT3-45" target="0C0zzfNq5MIXWUPN0tT3-42" edge="1">
          <mxGeometry x="0.7" relative="1" as="geometry">
            <mxPoint x="140" y="-200" as="sourcePoint" />
            <mxPoint x="320" y="20" as="targetPoint" />
            <Array as="points">
              <mxPoint x="200" y="-200" />
              <mxPoint x="200" y="20" />
            </Array>
            <mxPoint as="offset" />
          </mxGeometry>
        </mxCell>
        <mxCell id="0C0zzfNq5MIXWUPN0tT3-41" value="Grades Horárias de&#xa;Ciência da Computação" style="shape=image;verticalLabelPosition=top;labelBackgroundColor=default;verticalAlign=bottom;imageAspect=0;image=data:image/svg+xml,PHN2ZyB4bWxuczp4PSImYW1wO25zX2V4dGVuZDsiIHhtbG5zOmk9IiZhbXA7bnNfYWk7IiB4bWxuczpncmFwaD0iJmFtcDtuc19ncmFwaHM7IiB4bWxucz0iaHR0cDovL3d3dy53My5vcmcvMjAwMC9zdmciIHhtbG5zOnhsaW5rPSJodHRwOi8vd3d3LnczLm9yZy8xOTk5L3hsaW5rIiB2ZXJzaW9uPSIxLjEiIGlkPSJMaXZlbGxvXzEiIHg9IjBweCIgeT0iMHB4IiB2aWV3Qm94PSIwIDAgMjI4OS43NSAyMTMwIiBlbmFibGUtYmFja2dyb3VuZD0ibmV3IDAgMCAyMjg5Ljc1IDIxMzAiIHhtbDpzcGFjZT0icHJlc2VydmUiPiYjeGE7JiN4YTs8cGF0aCBmaWxsPSIjMTg1QzM3IiBkPSJNMTQzNy43NSwxMDExLjc1TDUzMi41LDg1MnYxMTgwLjM5M2MwLDUzLjkwNyw0My43LDk3LjYwNyw5Ny42MDcsOTcuNjA3bDAsMGgxNTYyLjAzNiYjMTA7JiM5O2M1My45MDcsMCw5Ny42MDctNDMuNyw5Ny42MDctOTcuNjA3bDAsMFYxNTk3LjVMMTQzNy43NSwxMDExLjc1eiIvPiYjeGE7PHBhdGggZmlsbD0iIzIxQTM2NiIgZD0iTTE0MzcuNzUsMEg2MzAuMTA3QzU3Ni4yLDAsNTMyLjUsNDMuNyw1MzIuNSw5Ny42MDdjMCwwLDAsMCwwLDBWNTMyLjVsOTA1LjI1LDUzMi41TDE5MTcsMTIyNC43NSYjMTA7JiM5O0wyMjg5Ljc1LDEwNjVWNTMyLjVMMTQzNy43NSwweiIvPiYjeGE7PHBhdGggZmlsbD0iIzEwN0M0MSIgZD0iTTUzMi41LDUzMi41aDkwNS4yNVYxMDY1SDUzMi41VjUzMi41eiIvPiYjeGE7PHBhdGggb3BhY2l0eT0iMC4xIiBlbmFibGUtYmFja2dyb3VuZD0ibmV3ICAgICIgZD0iTTExODAuMzkzLDQyNkg1MzIuNXYxMzMxLjI1aDY0Ny44OTNjNTMuODM0LTAuMTc1LDk3LjQzMi00My43NzMsOTcuNjA3LTk3LjYwNyYjMTA7JiM5O1Y1MjMuNjA3QzEyNzcuODI1LDQ2OS43NzMsMTIzNC4yMjcsNDI2LjE3NSwxMTgwLjM5Myw0MjZ6Ii8+JiN4YTs8cGF0aCBvcGFjaXR5PSIwLjIiIGVuYWJsZS1iYWNrZ3JvdW5kPSJuZXcgICAgIiBkPSJNMTEyNy4xNDMsNDc5LjI1SDUzMi41VjE4MTAuNWg1OTQuNjQzJiMxMDsmIzk7YzUzLjgzNC0wLjE3NSw5Ny40MzItNDMuNzczLDk3LjYwNy05Ny42MDdWNTc2Ljg1N0MxMjI0LjU3NSw1MjMuMDIzLDExODAuOTc3LDQ3OS40MjUsMTEyNy4xNDMsNDc5LjI1eiIvPiYjeGE7PHBhdGggb3BhY2l0eT0iMC4yIiBlbmFibGUtYmFja2dyb3VuZD0ibmV3ICAgICIgZD0iTTExMjcuMTQzLDQ3OS4yNUg1MzIuNVYxNzA0aDU5NC42NDNjNTMuODM0LTAuMTc1LDk3LjQzMi00My43NzMsOTcuNjA3LTk3LjYwNyYjMTA7JiM5O1Y1NzYuODU3QzEyMjQuNTc1LDUyMy4wMjMsMTE4MC45NzcsNDc5LjQyNSwxMTI3LjE0Myw0NzkuMjV6Ii8+JiN4YTs8cGF0aCBvcGFjaXR5PSIwLjIiIGVuYWJsZS1iYWNrZ3JvdW5kPSJuZXcgICAgIiBkPSJNMTA3My44OTMsNDc5LjI1SDUzMi41VjE3MDRoNTQxLjM5M2M1My44MzQtMC4xNzUsOTcuNDMyLTQzLjc3Myw5Ny42MDctOTcuNjA3JiMxMDsmIzk7VjU3Ni44NTdDMTE3MS4zMjUsNTIzLjAyMywxMTI3LjcyNyw0NzkuNDI1LDEwNzMuODkzLDQ3OS4yNXoiLz4mI3hhOzxsaW5lYXJHcmFkaWVudCBpZD0iU1ZHSURfMV8iIGdyYWRpZW50VW5pdHM9InVzZXJTcGFjZU9uVXNlIiB4MT0iMjAzLjUxMzIiIHkxPSIxNzI5LjAxODMiIHgyPSI5NjcuOTg2OCIgeTI9IjQwNC45ODE3IiBncmFkaWVudFRyYW5zZm9ybT0ibWF0cml4KDEgMCAwIC0xIDAgMjEzMikiPiYjeGE7CTxzdG9wIG9mZnNldD0iMCIgc3R5bGU9InN0b3AtY29sb3I6IzE4ODg0RiIvPiYjeGE7CTxzdG9wIG9mZnNldD0iMC41IiBzdHlsZT0ic3RvcC1jb2xvcjojMTE3RTQzIi8+JiN4YTsJPHN0b3Agb2Zmc2V0PSIxIiBzdHlsZT0ic3RvcC1jb2xvcjojMEI2NjMxIi8+JiN4YTs8L2xpbmVhckdyYWRpZW50PiYjeGE7PHBhdGggZmlsbD0idXJsKCNTVkdJRF8xXykiIGQ9Ik05Ny42MDcsNDc5LjI1aDk3Ni4yODVjNTMuOTA3LDAsOTcuNjA3LDQzLjcsOTcuNjA3LDk3LjYwN3Y5NzYuMjg1JiMxMDsmIzk7YzAsNTMuOTA3LTQzLjcsOTcuNjA3LTk3LjYwNyw5Ny42MDdIOTcuNjA3QzQzLjcsMTY1MC43NSwwLDE2MDcuMDUsMCwxNTUzLjE0M1Y1NzYuODU3QzAsNTIyLjk1LDQzLjcsNDc5LjI1LDk3LjYwNyw0NzkuMjV6Ii8+JiN4YTs8cGF0aCBmaWxsPSIjRkZGRkZGIiBkPSJNMzAyLjMsMTM4Mi4yNjRsMjA1LjMzMi0zMTguMTY5TDMxOS41LDc0Ny42ODNoMTUxLjMzNmwxMDIuNjY2LDIwMi4zNSYjMTA7JiM5O2M5LjQ3OSwxOS4yMjMsMTUuOTc1LDMzLjQ5NCwxOS40OSw0Mi45MTloMS4zMzFjNi43NDUtMTUuMzM2LDEzLjg0NS0zMC4yMjgsMjEuMy00NC42NzdMNzI1LjM3MSw3NDcuNzloMTM4LjkyOWwtMTkyLjkyNSwzMTQuNTQ4JiMxMDsmIzk7TDg2OS4yLDEzODIuMjYzSDcyMS4zNzhMNjAyLjc5LDExNjAuMTU4Yy01LjU4Ni05LjQ1LTEwLjMyNi0xOS4zNzYtMTQuMTY0LTI5LjY2aC0xLjc1N2MtMy40NzQsMTAuMDc1LTguMDgzLDE5LjcyMi0xMy43MzksMjguNzU1JiMxMDsmIzk7bC0xMjIuMTAyLDIyMy4wMTFIMzAyLjN6Ii8+JiN4YTs8cGF0aCBmaWxsPSIjMzNDNDgxIiBkPSJNMjE5Mi4xNDMsMEgxNDM3Ljc1djUzMi41aDg1MlY5Ny42MDdDMjI4OS43NSw0My43LDIyNDYuMDUsMCwyMTkyLjE0MywwTDIxOTIuMTQzLDB6Ii8+JiN4YTs8cGF0aCBmaWxsPSIjMTA3QzQxIiBkPSJNMTQzNy43NSwxMDY1aDg1MnY1MzIuNWgtODUyVjEwNjV6Ii8+JiN4YTs8L3N2Zz4=;aspect=fixed;labelPosition=center;align=center;fontSize=12;spacingBottom=2;" parent="1" vertex="1">
          <mxGeometry x="400" y="-260" width="80" height="80" as="geometry" />
        </mxCell>
        <mxCell id="0C0zzfNq5MIXWUPN0tT3-42" value="Base de Dados" style="shape=image;verticalLabelPosition=bottom;labelBackgroundColor=default;verticalAlign=top;imageAspect=0;image=data:image/svg+xml,PHN2ZyB4bWxuczp4PSImYW1wO25zX2V4dGVuZDsiIHhtbG5zOmk9IiZhbXA7bnNfYWk7IiB4bWxuczpncmFwaD0iJmFtcDtuc19ncmFwaHM7IiB4bWxucz0iaHR0cDovL3d3dy53My5vcmcvMjAwMC9zdmciIHhtbG5zOnhsaW5rPSJodHRwOi8vd3d3LnczLm9yZy8xOTk5L3hsaW5rIiB2ZXJzaW9uPSIxLjEiIGlkPSJMaXZlbGxvXzEiIHg9IjBweCIgeT0iMHB4IiB2aWV3Qm94PSIwIDAgMjI4OS43NSAyMTMwIiBlbmFibGUtYmFja2dyb3VuZD0ibmV3IDAgMCAyMjg5Ljc1IDIxMzAiIHhtbDpzcGFjZT0icHJlc2VydmUiPiYjeGE7JiN4YTs8cGF0aCBmaWxsPSIjMTg1QzM3IiBkPSJNMTQzNy43NSwxMDExLjc1TDUzMi41LDg1MnYxMTgwLjM5M2MwLDUzLjkwNyw0My43LDk3LjYwNyw5Ny42MDcsOTcuNjA3bDAsMGgxNTYyLjAzNiYjMTA7JiM5O2M1My45MDcsMCw5Ny42MDctNDMuNyw5Ny42MDctOTcuNjA3bDAsMFYxNTk3LjVMMTQzNy43NSwxMDExLjc1eiIvPiYjeGE7PHBhdGggZmlsbD0iIzIxQTM2NiIgZD0iTTE0MzcuNzUsMEg2MzAuMTA3QzU3Ni4yLDAsNTMyLjUsNDMuNyw1MzIuNSw5Ny42MDdjMCwwLDAsMCwwLDBWNTMyLjVsOTA1LjI1LDUzMi41TDE5MTcsMTIyNC43NSYjMTA7JiM5O0wyMjg5Ljc1LDEwNjVWNTMyLjVMMTQzNy43NSwweiIvPiYjeGE7PHBhdGggZmlsbD0iIzEwN0M0MSIgZD0iTTUzMi41LDUzMi41aDkwNS4yNVYxMDY1SDUzMi41VjUzMi41eiIvPiYjeGE7PHBhdGggb3BhY2l0eT0iMC4xIiBlbmFibGUtYmFja2dyb3VuZD0ibmV3ICAgICIgZD0iTTExODAuMzkzLDQyNkg1MzIuNXYxMzMxLjI1aDY0Ny44OTNjNTMuODM0LTAuMTc1LDk3LjQzMi00My43NzMsOTcuNjA3LTk3LjYwNyYjMTA7JiM5O1Y1MjMuNjA3QzEyNzcuODI1LDQ2OS43NzMsMTIzNC4yMjcsNDI2LjE3NSwxMTgwLjM5Myw0MjZ6Ii8+JiN4YTs8cGF0aCBvcGFjaXR5PSIwLjIiIGVuYWJsZS1iYWNrZ3JvdW5kPSJuZXcgICAgIiBkPSJNMTEyNy4xNDMsNDc5LjI1SDUzMi41VjE4MTAuNWg1OTQuNjQzJiMxMDsmIzk7YzUzLjgzNC0wLjE3NSw5Ny40MzItNDMuNzczLDk3LjYwNy05Ny42MDdWNTc2Ljg1N0MxMjI0LjU3NSw1MjMuMDIzLDExODAuOTc3LDQ3OS40MjUsMTEyNy4xNDMsNDc5LjI1eiIvPiYjeGE7PHBhdGggb3BhY2l0eT0iMC4yIiBlbmFibGUtYmFja2dyb3VuZD0ibmV3ICAgICIgZD0iTTExMjcuMTQzLDQ3OS4yNUg1MzIuNVYxNzA0aDU5NC42NDNjNTMuODM0LTAuMTc1LDk3LjQzMi00My43NzMsOTcuNjA3LTk3LjYwNyYjMTA7JiM5O1Y1NzYuODU3QzEyMjQuNTc1LDUyMy4wMjMsMTE4MC45NzcsNDc5LjQyNSwxMTI3LjE0Myw0NzkuMjV6Ii8+JiN4YTs8cGF0aCBvcGFjaXR5PSIwLjIiIGVuYWJsZS1iYWNrZ3JvdW5kPSJuZXcgICAgIiBkPSJNMTA3My44OTMsNDc5LjI1SDUzMi41VjE3MDRoNTQxLjM5M2M1My44MzQtMC4xNzUsOTcuNDMyLTQzLjc3Myw5Ny42MDctOTcuNjA3JiMxMDsmIzk7VjU3Ni44NTdDMTE3MS4zMjUsNTIzLjAyMywxMTI3LjcyNyw0NzkuNDI1LDEwNzMuODkzLDQ3OS4yNXoiLz4mI3hhOzxsaW5lYXJHcmFkaWVudCBpZD0iU1ZHSURfMV8iIGdyYWRpZW50VW5pdHM9InVzZXJTcGFjZU9uVXNlIiB4MT0iMjAzLjUxMzIiIHkxPSIxNzI5LjAxODMiIHgyPSI5NjcuOTg2OCIgeTI9IjQwNC45ODE3IiBncmFkaWVudFRyYW5zZm9ybT0ibWF0cml4KDEgMCAwIC0xIDAgMjEzMikiPiYjeGE7CTxzdG9wIG9mZnNldD0iMCIgc3R5bGU9InN0b3AtY29sb3I6IzE4ODg0RiIvPiYjeGE7CTxzdG9wIG9mZnNldD0iMC41IiBzdHlsZT0ic3RvcC1jb2xvcjojMTE3RTQzIi8+JiN4YTsJPHN0b3Agb2Zmc2V0PSIxIiBzdHlsZT0ic3RvcC1jb2xvcjojMEI2NjMxIi8+JiN4YTs8L2xpbmVhckdyYWRpZW50PiYjeGE7PHBhdGggZmlsbD0idXJsKCNTVkdJRF8xXykiIGQ9Ik05Ny42MDcsNDc5LjI1aDk3Ni4yODVjNTMuOTA3LDAsOTcuNjA3LDQzLjcsOTcuNjA3LDk3LjYwN3Y5NzYuMjg1JiMxMDsmIzk7YzAsNTMuOTA3LTQzLjcsOTcuNjA3LTk3LjYwNyw5Ny42MDdIOTcuNjA3QzQzLjcsMTY1MC43NSwwLDE2MDcuMDUsMCwxNTUzLjE0M1Y1NzYuODU3QzAsNTIyLjk1LDQzLjcsNDc5LjI1LDk3LjYwNyw0NzkuMjV6Ii8+JiN4YTs8cGF0aCBmaWxsPSIjRkZGRkZGIiBkPSJNMzAyLjMsMTM4Mi4yNjRsMjA1LjMzMi0zMTguMTY5TDMxOS41LDc0Ny42ODNoMTUxLjMzNmwxMDIuNjY2LDIwMi4zNSYjMTA7JiM5O2M5LjQ3OSwxOS4yMjMsMTUuOTc1LDMzLjQ5NCwxOS40OSw0Mi45MTloMS4zMzFjNi43NDUtMTUuMzM2LDEzLjg0NS0zMC4yMjgsMjEuMy00NC42NzdMNzI1LjM3MSw3NDcuNzloMTM4LjkyOWwtMTkyLjkyNSwzMTQuNTQ4JiMxMDsmIzk7TDg2OS4yLDEzODIuMjYzSDcyMS4zNzhMNjAyLjc5LDExNjAuMTU4Yy01LjU4Ni05LjQ1LTEwLjMyNi0xOS4zNzYtMTQuMTY0LTI5LjY2aC0xLjc1N2MtMy40NzQsMTAuMDc1LTguMDgzLDE5LjcyMi0xMy43MzksMjguNzU1JiMxMDsmIzk7bC0xMjIuMTAyLDIyMy4wMTFIMzAyLjN6Ii8+JiN4YTs8cGF0aCBmaWxsPSIjMzNDNDgxIiBkPSJNMjE5Mi4xNDMsMEgxNDM3Ljc1djUzMi41aDg1MlY5Ny42MDdDMjI4OS43NSw0My43LDIyNDYuMDUsMCwyMTkyLjE0MywwTDIxOTIuMTQzLDB6Ii8+JiN4YTs8cGF0aCBmaWxsPSIjMTA3QzQxIiBkPSJNMTQzNy43NSwxMDY1aDg1MnY1MzIuNWgtODUyVjEwNjV6Ii8+JiN4YTs8L3N2Zz4=;aspect=fixed;fontSize=12;" parent="1" vertex="1">
          <mxGeometry x="320" width="80" height="80" as="geometry" />
        </mxCell>
        <mxCell id="0C0zzfNq5MIXWUPN0tT3-43" value="Grades Horárias&#xa;da distribuição de&#xa;salas do CCT" style="shape=image;verticalLabelPosition=top;labelBackgroundColor=default;verticalAlign=bottom;imageAspect=0;image=data:image/svg+xml,PHN2ZyB4bWxucz0iaHR0cDovL3d3dy53My5vcmcvMjAwMC9zdmciIGVuYWJsZS1iYWNrZ3JvdW5kPSJuZXcgMCAwIDMzNC4zNzEgMzgwLjU2MyIgdmVyc2lvbj0iMS4xIiB2aWV3Qm94PSIwIDAgMTQgMTYiIHhtbDpzcGFjZT0icHJlc2VydmUiPiYjeGE7JiN4YTsJPGcgdHJhbnNmb3JtPSJtYXRyaXgoLjA0NTg5IDAgMCAuMDQ1ODkgLS42Njg3NyAtLjczMzc5KSI+JiN4YTsJCTxwb2x5Z29uIHBvaW50cz0iNTEuNzkxIDM1Ni42NSA1MS43OTEgMjMuOTkgMjA0LjUgMjMuOTkgMjgyLjY1IDEwMi4wNyAyODIuNjUgMzU2LjY1IiBmaWxsPSIjZmZmIiBzdHJva2Utd2lkdGg9IjIxMi42NSIvPiYjeGE7CQk8cGF0aCBkPSJtMjAxLjE5IDMxLjk5IDczLjQ2IDczLjM5M3YyNDMuMjZoLTIxNC44NnYtMzE2LjY2aDE0MS40bTYuNjIzLTE2aC0xNjQuMDJ2MzQ4LjY2aDI0Ni44NXYtMjY1Ljl6IiBzdHJva2Utd2lkdGg9IjIxLjc5MSIvPiYjeGE7CTwvZz4mI3hhOwk8ZyB0cmFuc2Zvcm09Im1hdHJpeCguMDQ1ODkgMCAwIC4wNDU4OSAtLjY2ODc3IC0uNzMzNzkpIj4mI3hhOwkJPHBvbHlnb24gcG9pbnRzPSIyODIuNjUgMzU2LjY1IDUxLjc5MSAzNTYuNjUgNTEuNzkxIDIzLjk5IDIwNC41IDIzLjk5IDIwNi4zMSAyNS44IDIwNi4zMSAxMDAuMzMgMjgwLjkgMTAwLjMzIDI4Mi42NSAxMDIuMDciIGZpbGw9IiNmZmYiIHN0cm9rZS13aWR0aD0iMjEyLjY1Ii8+JiN4YTsJCTxwYXRoIGQ9Im0xOTguMzEgMzEuOTl2NzYuMzM3aDc2LjMzN3YyNDAuMzJoLTIxNC44NnYtMzE2LjY2aDEzOC41Mm05LjUtMTZoLTE2NC4wMnYzNDguNjZoMjQ2Ljg1di0yNjUuOWwtNi40My02LjQyNGgtNjkuOTA3di02OS44NDJ6IiBzdHJva2Utd2lkdGg9IjIxLjc5MSIvPiYjeGE7CTwvZz4mI3hhOwk8ZyB0cmFuc2Zvcm09Im1hdHJpeCguMDQ1ODkgMCAwIC4wNDU4OSAtLjY2ODc3IC0uNzMzNzkpIiBzdHJva2Utd2lkdGg9IjIxLjc5MSI+JiN4YTsJCTxwb2x5Z29uIHBvaW50cz0iMjU4LjMxIDg3Ljc1IDIxOS42NCA4Ny43NSAyMTkuNjQgNDguNjY3IDI1OC4zMSA4Ni4zOCIvPiYjeGE7CQk8cGF0aCBkPSJtMjI3LjY0IDY3LjY0NiAxMi40MSAxMi4xMDRoLTEyLjQxdi0xMi4xMDRtLTUuMDAyLTI3LjIyOWgtMTAuOTk4djU1LjMzM2g1NC42NjZ2LTEyLjc0MnoiLz4mI3hhOwk8L2c+JiN4YTsJPGcgdHJhbnNmb3JtPSJtYXRyaXgoLjA0NTg5IDAgMCAuMDQ1ODkgLS42Njg3NyAtLjczMzc5KSIgZmlsbD0iI2VkMWMyNCIgc3Ryb2tlLXdpZHRoPSIyMTIuNjUiPiYjeGE7CQk8cG9seWdvbiBwb2ludHM9IjMxMS44OSAyODQuNDkgMjIuNTQ0IDI4NC40OSAyMi41NDQgMTY3LjY4IDM3LjI5MSAxNTIuOTQgMzcuMjkxIDE3MS40OSAyOTcuMTUgMTcxLjQ5IDI5Ny4xNSAxNTIuOTQgMzExLjg5IDE2Ny42OCIvPiYjeGE7CQk8cGF0aCBkPSJtMzAzLjY1IDE2OC42MyAxLjc0NyAxLjc0N3YxMDcuNjJoLTI3Ni4zNXYtMTA3LjYybDEuNzQ3LTEuNzQ3djkuMzYyaDI3Mi44NXYtOS4zNjJtLTEyLjk5OS0zMS4zODV2MjcuNzQ3aC0yNDYuODZ2LTI3Ljc0N2wtMjcuNzQ3IDI3Ljc0N3YxMjZoMzAyLjM1di0xMjZ6Ii8+JiN4YTsJPC9nPiYjeGE7CTxyZWN0IHg9IjEuNzIxOSIgeT0iNy45NTQ0IiB3aWR0aD0iMTAuNjg0IiBoZWlnaHQ9IjQuMDMwNyIgZmlsbD0ibm9uZSIvPiYjeGE7CTxnIHRyYW5zZm9ybT0ibWF0cml4KC4wNDU4OSAwIDAgLjA0NTg5IDEuNzIxOSAxMS43MzMpIiBmaWxsPSIjZmZmIiBzdHJva2Utd2lkdGg9IjIxLjc5MSI+PHBhdGggZD0ibTkuMjE2IDB2LTgzLjJoMzAuNDY0cTYuNzg0IDAgMTIuOTI4IDEuNDA4IDYuMTQ0IDEuMjggMTAuNzUyIDQuNjA4IDQuNjA4IDMuMiA3LjI5NiA4LjU3NiAyLjgxNiA1LjI0OCAyLjgxNiAxMy4wNTYgMCA3LjY4LTIuODE2IDEzLjE4NC0yLjY4OCA1LjUwNC03LjI5NiA5LjA4OC00LjYwOCAzLjQ1Ni0xMC42MjQgNS4yNDgtNi4wMTYgMS42NjQtMTIuNTQ0IDEuNjY0aC04Ljk2djI2LjM2OHptMjIuMDE2LTQzLjc3Nmg3LjkzNnE2LjUyOCAwIDkuNi0zLjA3MiAzLjItMy4wNzIgMy4yLTguNzA0dC0zLjQ1Ni03LjkzNi05Ljg1Ni0yLjMwNGgtNy40MjR6Ii8+PHBhdGggZD0ibTg3LjA0IDB2LTgzLjJoMjQuNTc2cTkuNDcyIDAgMTcuMjggMi4zMDQgNy45MzYgMi4zMDQgMTMuNTY4IDcuMjk2dDguNzA0IDEyLjhxMy4yIDcuODA4IDMuMiAxOC44MTZ0LTMuMDcyIDE4Ljk0NC04LjcwNCAxMy4wNTZxLTUuNTA0IDUuMTItMTMuMTg0IDcuNTUyLTcuNTUyIDIuNDMyLTE2LjUxMiAyLjQzMnptMjIuMDE2LTE3LjY2NGgxLjI4cTQuNDggMCA4LjQ0OC0xLjAyNCAzLjk2OC0xLjE1MiA2Ljc4NC0zLjg0IDIuOTQ0LTIuNjg4IDQuNjA4LTcuNDI0dDEuNjY0LTEyLjAzMi0xLjY2NC0xMS45MDQtNC42MDgtNy4xNjhxLTIuODE2LTIuNTYtNi43ODQtMy40NTYtMy45NjgtMS4wMjQtOC40NDgtMS4wMjRoLTEuMjh6Ii8+PHBhdGggZD0ibTE2OS4yMiAwdi04My4yaDU0LjI3MnYxOC40MzJoLTMyLjI1NnYxNS44NzJoMjcuNjQ4djE4LjQzMmgtMjcuNjQ4djMwLjQ2NHoiLz48L2c+JiN4YTsmI3hhOzwvc3ZnPg==;aspect=fixed;labelPosition=center;align=center;fontSize=12;spacingBottom=2;" parent="1" vertex="1">
          <mxGeometry x="240" y="-260" width="80" height="80" as="geometry" />
        </mxCell>
        <mxCell id="0C0zzfNq5MIXWUPN0tT3-45" value="Site" style="shape=image;verticalLabelPosition=bottom;labelBackgroundColor=default;verticalAlign=top;aspect=fixed;imageAspect=0;image=data:image/svg+xml,PHN2ZyB4bWxucz0iaHR0cDovL3d3dy53My5vcmcvMjAwMC9zdmciIHZpZXdCb3g9IjAgMCA1MCA1MCI+JiN4YTsgICAgPHBhdGggc3R5bGU9ImxpbmUtaGVpZ2h0Om5vcm1hbDt0ZXh0LWluZGVudDowO3RleHQtYWxpZ246c3RhcnQ7dGV4dC1kZWNvcmF0aW9uLWxpbmU6bm9uZTt0ZXh0LWRlY29yYXRpb24tc3R5bGU6c29saWQ7dGV4dC1kZWNvcmF0aW9uLWNvbG9yOiMwMDA7dGV4dC10cmFuc2Zvcm06bm9uZTtibG9jay1wcm9ncmVzc2lvbjp0Yjtpc29sYXRpb246YXV0bzttaXgtYmxlbmQtbW9kZTpub3JtYWwiIGQ9Ik0gMjUgMiBDIDE0LjM5MyAyIDUuNDQ0ODI4MSA5LjIxOSAyLjc5ODgyODEgMTkgTCA0Ljg4NDc2NTYgMTkgQyA1LjYzMjgyNjYgMTYuNDk3ODk1IDYuODQ2MTMxNiAxNC4xOTkwMyA4LjQwNjI1IDEyLjE4MTY0MSBDIDEwLjExNDA2IDEzLjE0NDQzIDEyLjA5MDEwNiAxMy45NDg2NDUgMTQuMjc1MzkxIDE0LjU2ODM1OSBDIDEzLjkxMTM4MiAxNS45Njg4MTcgMTMuNjA5NjI1IDE3LjQ0NDg1MiAxMy4zOTg0MzggMTkgTCAxNS40Mzc1IDE5IEMgMTUuNjQwMzcyIDE3LjYyMzkwNSAxNS45MTcyOTkgMTYuMzEwNjU5IDE2LjI0NjA5NCAxNS4wNjI1IEMgMTguNjU2MjYgMTUuNTkzOTk1IDIxLjI2MjYxIDE1LjkwODM2OSAyNCAxNS45NzA3MDMgTCAyNCAxOSBMIDI2IDE5IEwgMjYgMTUuOTcwNzAzIEMgMjguNzM3MTcgMTUuOTA4Mzk0IDMxLjM0NDIzOCAxNS41OTU3MTUgMzMuNzUzOTA2IDE1LjA2NDQ1MyBDIDM0LjA4MjQ4NCAxNi4zMTIwNzYgMzQuMzU5NzI2IDE3LjYyNDU3NCAzNC41NjI1IDE5IEwgMzYuNjAxNTYyIDE5IEMgMzYuMzkwMzc1IDE3LjQ0NDg1MiAzNi4wODg2MTggMTUuOTY4ODE3IDM1LjcyNDYwOSAxNC41NjgzNTkgQyAzNy45MTAyMTcgMTMuOTQ4NjIxIDM5Ljg4NTkzIDEzLjE0NDc1NyA0MS41OTM3NSAxMi4xODE2NDEgQyA0My4xNTM4NjggMTQuMTk5MDMgNDQuMzY3MTczIDE2LjQ5Nzg5NSA0NS4xMTUyMzQgMTkgTCA0Ny4yMDExNzIgMTkgQyA0NC41NTUxNzIgOS4yMTkgMzUuNjA3IDIgMjUgMiB6IE0gMjQgNC4xMjEwOTM4IEwgMjQgMTMuOTcwNzAzIEMgMjEuNDU3NjQ4IDEzLjkwODQ4OCAxOS4wMzk5OTIgMTMuNjE1NTA2IDE2LjgxNDQ1MyAxMy4xMzI4MTIgQyAxOC40NTU0NzMgOC4yMTMwMjI3IDIxLjA2MTczNSA0Ljc2ODAxMTIgMjQgNC4xMjEwOTM4IHogTSAyNiA0LjEyMTA5MzggQyAyOC45MzgyNjUgNC43NjgwMTEyIDMxLjU0NDUyNyA4LjIxMzAyMjcgMzMuMTg1NTQ3IDEzLjEzMjgxMiBDIDMwLjk2MDIzNSAxMy42MTU1NDQgMjguNTQyNDc5IDEzLjkwODQ3MSAyNiAxMy45NzA3MDMgTCAyNiA0LjEyMTA5MzggeiBNIDE5LjEzMjgxMiA0Ljg1MzUxNTYgQyAxNy4zNzI0NzYgNi43MDkyMzA3IDE1Ljg5ODQ2MyA5LjM5MDg2OTggMTQuODM1OTM4IDEyLjY0MDYyNSBDIDEyLjkyMzg5MiAxMi4xMDAxNzkgMTEuMjAwODAzIDExLjQxOTY5NCA5LjcyMjY1NjIgMTAuNjI2OTUzIEMgMTIuMjU1NjU5IDcuOTMyNzU2MSAxNS40OTEyNDcgNS45MTcyMzI3IDE5LjEzMjgxMiA0Ljg1MzUxNTYgeiBNIDMwLjg2NzE4OCA0Ljg1MzUxNTYgQyAzNC41MDg3NTMgNS45MTcyMzI3IDM3Ljc0NDM0MSA3LjkzMjc1NjEgNDAuMjc3MzQ0IDEwLjYyNjk1MyBDIDM4Ljc5OTQ2NSAxMS40MTk4MjYgMzcuMDc2MDcgMTIuMTAwMDk1IDM1LjE2NDA2MiAxMi42NDA2MjUgQyAzNC4xMDE1MzcgOS4zOTA4Njk4IDMyLjYyNzUyNCA2LjcwOTIzMDcgMzAuODY3MTg4IDQuODUzNTE1NiB6IE0gMyAyMSBMIDUuNTM5MDYyNSAyOSBMIDcuODY5MTQwNiAyOSBMIDkuOTgyNDIxOSAyMy4wMTk1MzEgTCAxMi4xMDE1NjIgMjkgTCAxNC4zODA4NTkgMjkgTCAxNi45NjQ4NDQgMjEgTCAxNC44MDA3ODEgMjEgTCAxMy4xNjc5NjkgMjYuNTg3ODkxIEwgMTEuMzAyNzM0IDIxIEwgOC43NDgwNDY5IDIxIEwgNi44MDI3MzQ0IDI2LjQ5NDE0MSBMIDUuMTk5MjE4OCAyMSBMIDMgMjEgeiBNIDE4LjAxNzU3OCAyMSBMIDIwLjU1ODU5NCAyOSBMIDIyLjg4ODY3MiAyOSBMIDI1IDIzLjAxOTUzMSBMIDI3LjExOTE0MSAyOSBMIDI5LjM5ODQzOCAyOSBMIDMxLjk4MjQyMiAyMSBMIDI5LjgxODM1OSAyMSBMIDI4LjE4NTU0NyAyNi41ODc4OTEgTCAyNi4zMjAzMTIgMjEgTCAyMy43NjU2MjUgMjEgTCAyMS44MjAzMTIgMjYuNDk0MTQxIEwgMjAuMjE2Nzk3IDIxIEwgMTguMDE3NTc4IDIxIHogTSAzMi45ODI0MjIgMjEgTCAzNS41MzMyMDMgMjkgTCAzNy44NzEwOTQgMjkgTCAzOS45OTIxODggMjMuMDE5NTMxIEwgNDIuMTE5MTQxIDI5IEwgNDQuNDA2MjUgMjkgTCA0NyAyMSBMIDQ0LjgyODEyNSAyMSBMIDQzLjE4OTQ1MyAyNi41ODc4OTEgTCA0MS4zMTgzNTkgMjEgTCAzOC43NTM5MDYgMjEgTCAzNi44MDA3ODEgMjYuNDk0MTQxIEwgMzUuMTg5NDUzIDIxIEwgMzIuOTgyNDIyIDIxIHogTSAyLjc5ODgyODEgMzEgQyA1LjQ0NDgyODEgNDAuNzgxIDE0LjM5MyA0OCAyNSA0OCBDIDM1LjYwNyA0OCA0NC41NTUxNzIgNDAuNzgxIDQ3LjIwMTE3MiAzMSBMIDQ1LjExNTIzNCAzMSBDIDQ0LjM2NzE3MyAzMy41MDIxMDUgNDMuMTUzODY4IDM1LjgwMDk3IDQxLjU5Mzc1IDM3LjgxODM1OSBDIDM5Ljg4NTk0IDM2Ljg1NTU3IDM3LjkwOTg5NCAzNi4wNTEzNTUgMzUuNzI0NjA5IDM1LjQzMTY0MSBDIDM2LjA4ODY1NiAzNC4wMzExODMgMzYuMzkwMzc1IDMyLjU1NTE0OCAzNi42MDE1NjIgMzEgTCAzNC41NjI1IDMxIEMgMzQuMzU5NDY3IDMyLjM3NjA5NSAzNC4wODI3NzEgMzMuNjg5MzQxIDMzLjc1MzkwNiAzNC45Mzc1IEMgMzEuMzQzNzQgMzQuNDA2MDA1IDI4LjczNzM5IDM0LjA5MTYzMSAyNiAzNC4wMjkyOTcgTCAyNiAzMSBMIDI0IDMxIEwgMjQgMzQuMDI5Mjk3IEMgMjEuMjYyODMgMzQuMDkxNjA2IDE4LjY1NTc2MiAzNC40MDQyODUgMTYuMjQ2MDk0IDM0LjkzNTU0NyBDIDE1LjkxNzUxNiAzMy42ODc5MjQgMTUuNjQwMjc0IDMyLjM3NTQyNiAxNS40Mzc1IDMxIEwgMTMuMzk4NDM4IDMxIEMgMTMuNjA5NzcgMzIuNTU1MDU4IDEzLjkxMTMwNCAzNC4wMzEyNTQgMTQuMjc1MzkxIDM1LjQzMTY0MSBDIDEyLjA4OTc4MyAzNi4wNTEzNzkgMTAuMTE0MDcgMzYuODU1MjQzIDguNDA2MjUgMzcuODE4MzU5IEMgNi44NDYxMzE2IDM1LjgwMDk3IDUuNjMyODI2NiAzMy41MDIxMDUgNC44ODQ3NjU2IDMxIEwgMi43OTg4MjgxIDMxIHogTSAyNCAzNi4wMjkyOTcgTCAyNCA0NS44Nzg5MDYgQyAyMS4wNjE3MzUgNDUuMjMxOTg5IDE4LjQ1NTQ3MyA0MS43ODY5NzcgMTYuODE0NDUzIDM2Ljg2NzE4OCBDIDE5LjAzOTc2NSAzNi4zODQ0NTYgMjEuNDU3NTIxIDM2LjA5MTUyOSAyNCAzNi4wMjkyOTcgeiBNIDI2IDM2LjAyOTI5NyBDIDI4LjU0MjM1MiAzNi4wOTE1MTIgMzAuOTYwMDA4IDM2LjM4NDQ5NCAzMy4xODU1NDcgMzYuODY3MTg4IEMgMzEuNTQ0MzkzIDQxLjc4Njk3NyAyOC45MzgxNzMgNDUuMjMxOTg5IDI2IDQ1Ljg3ODkwNiBMIDI2IDM2LjAyOTI5NyB6IE0gMTQuODM3ODkxIDM3LjM1OTM3NSBDIDE1LjkwMDYyNCA0MC42MDkxMyAxNy4zNzI1NjkgNDMuMjkwNzY5IDE5LjEzMjgxMiA0NS4xNDY0ODQgQyAxNS40OTEyNDcgNDQuMDgyNzY3IDEyLjI1NTY1OSA0Mi4wNjcyNDQgOS43MjI2NTYyIDM5LjM3MzA0NyBDIDExLjIwMTAwMSAzOC41Nzk5MjQgMTIuOTI1MTYyIDM3Ljg5OTk4NSAxNC44Mzc4OTEgMzcuMzU5Mzc1IHogTSAzNS4xNjQwNjIgMzcuMzU5Mzc1IEMgMzcuMDc2MTA4IDM3Ljg5OTgyMSAzOC43OTkxOTcgMzguNTgwMzA2IDQwLjI3NzM0NCAzOS4zNzMwNDcgQyAzNy43NDQzNDEgNDIuMDY3MjQ0IDM0LjUwODc1MyA0NC4wODI3NjcgMzAuODY3MTg4IDQ1LjE0NjQ4NCBDIDMyLjYyNzYyOCA0My4yOTA2OTUgMzQuMTAxNDExIDQwLjYwOTMwNiAzNS4xNjQwNjIgMzcuMzU5Mzc1IHoiIGZvbnQtd2VpZ2h0PSI0MDAiIGZvbnQtZmFtaWx5PSJzYW5zLXNlcmlmIiB3aGl0ZS1zcGFjZT0ibm9ybWFsIiBvdmVyZmxvdz0idmlzaWJsZSIvPiYjeGE7PC9zdmc+;" parent="1" vertex="1">
          <mxGeometry x="60" y="-240" width="80" height="80" as="geometry" />
        </mxCell>
        <mxCell id="0C0zzfNq5MIXWUPN0tT3-46" value="Execução" style="edgeStyle=orthogonalEdgeStyle;rounded=0;orthogonalLoop=1;jettySize=auto;html=1;entryX=0.5;entryY=1;entryDx=0;entryDy=0;entryPerimeter=0;exitX=0.5;exitY=0;exitDx=0;exitDy=0;fontSize=12;" parent="1" source="mrAK-Dbqs_JbjPh-Ceqg-8" target="Jbt9V0opAUQeBMdiO9P2-1" edge="1">
          <mxGeometry x="-0.2" relative="1" as="geometry">
            <mxPoint x="700" y="-250" as="sourcePoint" />
            <mxPoint x="640" y="-280" as="targetPoint" />
            <mxPoint as="offset" />
          </mxGeometry>
        </mxCell>
        <mxCell id="Jbt9V0opAUQeBMdiO9P2-1" value="Amazon Relational&#xa;Database Service" style="sketch=0;points=[[0,0,0],[0.25,0,0],[0.5,0,0],[0.75,0,0],[1,0,0],[0,1,0],[0.25,1,0],[0.5,1,0],[0.75,1,0],[1,1,0],[0,0.25,0],[0,0.5,0],[0,0.75,0],[1,0.25,0],[1,0.5,0],[1,0.75,0]];outlineConnect=0;fontColor=default;gradientColor=#4D72F3;gradientDirection=north;fillColor=#3334B9;strokeColor=default;dashed=0;verticalLabelPosition=middle;verticalAlign=middle;align=right;fontSize=12;fontStyle=0;aspect=fixed;shape=mxgraph.aws4.resourceIcon;resIcon=mxgraph.aws4.rds;labelBackgroundColor=default;fontFamily=Helvetica;labelPosition=left;spacingLeft=0;spacingRight=5;labelBorderColor=none;collapsible=0;" parent="1" vertex="1">
          <mxGeometry x="600" y="-390" width="80" height="80" as="geometry">
            <mxRectangle x="600" y="-360" width="140" height="30" as="alternateBounds" />
          </mxGeometry>
        </mxCell>
        <mxCell id="y19TOjxqnlySfu77l5_V-2" style="edgeStyle=orthogonalEdgeStyle;rounded=0;orthogonalLoop=1;jettySize=auto;html=1;exitX=0.143;exitY=0.999;exitDx=0;exitDy=0;entryX=0;entryY=0.5;entryDx=0;entryDy=0;exitPerimeter=0;fontSize=12;fillColor=none;strokeColor=#291466;fontColor=#291466;strokeWidth=1;" parent="1" source="y19TOjxqnlySfu77l5_V-1" target="0C0zzfNq5MIXWUPN0tT3-45" edge="1">
          <mxGeometry relative="1" as="geometry" />
        </mxCell>
        <mxCell id="y19TOjxqnlySfu77l5_V-3" style="edgeStyle=orthogonalEdgeStyle;rounded=0;orthogonalLoop=1;jettySize=auto;html=1;exitX=0.071;exitY=0.992;exitDx=0;exitDy=0;entryX=0;entryY=0.5;entryDx=0;entryDy=0;fontSize=12;strokeColor=#291466;fontColor=#291466;fillColor=none;strokeWidth=1;exitPerimeter=0;" parent="1" source="y19TOjxqnlySfu77l5_V-1" target="0C0zzfNq5MIXWUPN0tT3-2" edge="1">
          <mxGeometry relative="1" as="geometry" />
        </mxCell>
        <mxCell id="y19TOjxqnlySfu77l5_V-1" value="" style="whiteSpace=wrap;html=1;fillColor=none;dashed=1;fontColor=#291466;strokeColor=#291466;strokeWidth=3;" parent="1" vertex="1">
          <mxGeometry x="20" y="-360" width="140" height="120" as="geometry" />
        </mxCell>
        <mxCell id="0C0zzfNq5MIXWUPN0tT3-1" value="" style="shape=image;verticalLabelPosition=bottom;labelBackgroundColor=default;verticalAlign=top;imageAspect=0;image=data:image/png,iVBORw0KGgoAAAANSUhEUgAAAlgAAAMgCAYAAAD/YBzEAAAACXBIWXMAAAsSAAALEgHS3X78AAAgAElEQVR4nO3dvW4cSRb2+ezZMV5jBsMGCBRQTlEmraauQKS3ryXyCkQ6xLuWRHMtildAylvIIWWuJcpcS+QVqGRpPRUdAQIEdDUGA6w3i2A/qQ4GIzMj8vvj/wOEmZbIqvyMPBlx4kQCAAAAAAAAAAAAAAAAAAAAAAAAAAAAAAAAAAAAAAAAAAAAAAAAAAAAAAAAAAAAAAAAAAAAAAAAAAAAAAAAAAAAAAAAAAAAAAAAAAAAAAAAAAAAAAAAAAAAAAAAAAAAAAAAAAAAAAAAAAAAAAAAAAAAAAAAAAAAAAAAAAAAAAAAAAAAAAAAAAAAAAAAAAAAAAAAAAAAAAAAAAAAAAAAAAAAAAAAAAAAAAAAAAAAAAAAAAAAAAAAAAAAAAAAAAAAAAAAAAAAAAAAAAAAAAAAAAAAAAAAAAAAAAAAAAAAAAAAAAAAAAAAAAAAAAAAAAAAAAAAAAAAAAAAAAAAAAAAAAAAAAAAAAAAAAAAAAAAAAAAAAAAAAAAAAAAAAAAAAAAAAAAAAAAAAAAAAAAAAAAAAAAAAAAAAAAAAAAAAAAAAAAAAAAAAAAAAAAAAAAAAAAAAAAAAAAAAAAAAAAAAAAAAAAAAAAAAAAAAAAAAAAAAAAAAAAAAAAAAAAAAAAAAAAAAAAAAAAAAAAAAAAAAAAAAAAAAAAAAAAAAAAAAAAAAAAAAAAAAAAAAAAAAAAAAAAAAAAAAAAAAAAAAAAAAAAAAAAAAAAAAAAAAAAAAAAAAAAAAAAAAAAAAAAAAAAAAAAAAAAAAAAAAAAAAAAAAAAAAAAAAAAAAAAAAAAAAAAAAAAAAAAAAAAAAAAAAAAAAAAAAAAAAAAAAAAAAAAAAAAAAAAAAAAAAAAAAAAAAAAAAAAAAAAAAAAAAAAAAAAAAAAAAAAAAAAAAAAAAAAAAAAAAAAAAAAAAAAAAAAAAAAAAAAAAAAAAAAAAAAAAAAAAAAAAAAAAAAAAAAAAAAAAAAAAAAAAAAAAAAAAAAAAAAAAAAAAAAAAAAAAAAAAAAAAAAAAAAAAAAAAAAAAAAAAAmz/iFowCgTov5bNf6uC39sf2WJMlGxa9cJUly5/m7Vfofd9++33BiAXSFAAtAkMV8tqPAKP3fhRU87fb8KKbBlh2Y3f8dgRiAJhBgAfhJQdSWgqiF9f+r9jgNgQm01kmSfLZ6w5Z3376vuUIAxCLAAiZoMZ+lQ3e7GrJLAyk8ZgKspf7cB1/0egEoQoAFjNxiPttQIGUCqGcT6pFqmh10LQm6ANgIsICR0TBf2jO160kyR3NuFHTdmv/P8CIwXQRYwMBZAdUz/S+9U/2xUtBlAq5rAi5gOgiwgIHRkN++FVDRQzUcyzTguvv2/XrqBwMYMwIsYACsXqoXJKOPyrXVu7Wa0H4Do0eABfSUCnY+V28VvVTjl/Zuvbv79n059YMBDB0BFtAji/ls3wqqxppLlZY9qMpXJX4sVurdItgCBooAC+iYhv9eDLSnyg6Wbj1/l7RZrDNnmZ50eZ6NAQ6xEmwBA0SABXRAhT5NQPVyAEGVr8L5aug5Q1YwZv73Xwq8+t4rZo75uyRJrsjZAvqNAAto0WI+O7SGAPsmreF0lxbRnGpZAWfJoL5Wujfn6A3lH4B+IsACGqbeKtNTddiTvKq1VQwzDaToDQmgwCsNunZ6ssj12hpCpJo80BMEWEBDlLD+oge9VenstM+qLk4wVSMr6EqXIeqyp2ulXq0rerWAbhFgATWyioCedpjLs7Sqh7NcS8t0DbjV9duW9mq9ITEe6AYBFlADPVRfaSiw7WHAdDmWDwRU/aSE+rSuWds9XGltrauhHC9gDAiwgAqUX3Wq/Ko2pQHV6CuAa6h1x5rB6LMeSk+NgvE02GpzqSOGD4EWEWABJXQQWK2dZVUm8YDUcf4a8KOm526vhu/b0RDvv5yeph2rtpcJVM7qCmw7WAZprUDrgkALaA4BFhCh5cAqDao+THVh4MV8ZoZdzwN+tK4A67XObxFTB+xJ1e/zfP+W1bvVxuSIqzqDRQB/+TvHAijWcmB1NeWgyvEs8OduA36mTlsmr6rusggKdMz5v7ImTDQZbJnr+XAxnxFoATUjwAJy6CF33kJgdaMK3RSNfKjtmZi/Rfxso9um68ANtl40NCuRQAuoGQEW4NHSrMCVNZWeB5pf2zPuYr6vteDPCbaaXGaJQAuoCQEW4NByNk3WsUqrbtc6BGjVX0oNeqkbBRJtf1/vF9tW0HNh/ihB/qUCrjpfBOxA64ReVSAeARYgqlV02tAQTNoDUVtvlR6uL3KWbDHDjpUTvzvUdrDTdqmNylSa4mgxn51YvVp19vqZY7K/mM+YdQhE+hsHDFNnen4W89llkiQfGwiuTDB1lCTJk7tv309qDK7M8OUnDWNmbfOueuNQfDw3FJwMkgl8TCHRu2/fnyZJ8lTBfF3B0IZePL7qugMQgAALk6YHxtcGei/ue4/MVH49+Op+8w/9vJASB33V5hIzpyWG2Ho5y9P0at19+34f1JvhvZzirLHuJ3ws5rOv6u0FkIMAC5NkhtcW89lHBSB15q5cKbDaq3sKvyP04b5BL1Y+VYqP7ZlZ9r1yvHq1LlSv60hBfx3M0O1Hc/+0nScHDAkBFiZHxSQ/1dxDcqVhwKOGA6t76hEL/Z7BDn01TXlsl5Ffs1bAMhjqRd1TTl5dPW+7GjY81xArAAsBFiZDvVafAit1h7IDq7antIf2oOwMtKchpiZVNAVXHyN7MNfqoRzEuocuE/zffft+oOHDuhZ/fqVAi55SwEKAhUmweq3qmmHVZWCVehfxs0PMmYkJfKICnpLBVXrOBxlc2cw1a+Vp1RFomeN4ybAh8BcCLIxaA71WNz0IrO5FPujH/tALnkRQIriyz/moyhQ0EGilw4ava/gsYNAIsDBaVimDOnqtbqzk9T5Vtw7Nwwpd02/USgRXVz0857VrINA6ZbYhpo4AC6OjulYfaypRcF/HqoVZgWiYErEvI4OrQSWzV1VzoJXONiQJHpNEgIVR0Rvz1xpyjtZai+2+jhVXSSfqXofwMuIzV6ohNUlWoLVXQ3mH+55kerMwNQRYGA3lfcQmLvuYaexP7759H0IeyZh7BmrbN9W62o/4lTOWhfk56zAt71BlmJTeLEwOaxFi8NRgv6+h1yodDqw8FGgtHGx6TG4anHlWdy/PWMUMF6/ptXxI98QT5TWWqXqfeqW1DVupFwd0iR4sDJqSlusoGpoOB5Zu9E1QpTf0rxqmTPPAPjZRI0j7Huq27u8fCg1Nxcyi7OUSOH1gKsMrP+uiwuakvVnMNMSoEWBhsBS0fKpYgiCdgl+6sVdS/bmCqlee7UlrBNW9UG5MUDn42k0VvIj81Q+92vqW6AVht2gIT0vwnGhR6Sq9UGam4afIFwVgMAiwMEgKaGKXOLGZ/JqTqlPw9TD6GLiWnendqrLNrpjSC1Mejol9gE/1WL3XtWzKK1wGBFpL5WcdxdQhc+w01cMLdI0AC4Oi3qL3JRbntd0oib3KMIctJkA7rDHICu3Bup5AwnbeOYgJsFZTTG7XMGp6nExgdRhaMFT5alXKOqQ9vIVBHTAkBFgYDCWOf4ycDWarpdfKpuGSg8iHy2HVN3bNigt9GL2p8l1DkHU+Sww/jbqgaA5f0L8RWjBU98FRxdmGh+rNYsgQo0CAhUGwktnLNr5191o9oIdLzNDSpYKksp4H/t7NxGdrxfaITLH36rwgj3ErdBhP15rJzToruTkMGWI0CLDQe3p7rlLf6qyl5U4OIpPJLyssjBsanE2qEnkNPg9+DyIoyA8dbg+6ttWb9VqBVpnJFemQYR0rMQCdIcBCr+lNtmxwtWqzYKhyd2ICmo0yifoRw4NXY19DL8DU9z+TeoVDr7/r2FpuSoKv0pv1SrMMycvCIBFgobcUXJVNCE+rsbdankDfF/NA2S0xHBJadqDsg200CDD9Ihe9XldZNkgvOGVzs3a0zA55WRgcAiz0kmYvlQ2uTCL7QVezwfRAiXmYnIb+oN7mQ4YHrwkufoo5Dr81vC2d0731KaJX+KzqtWTlZpXJgQzOAQP6hKVy0DsqY1CmMTUPgYO2e60ynEUEiKbA42Hg8iyhx2WSxTIz3EQct8EPR6m3Z0OBSZrj95v+bidyH6/qmhiiF56TxXx2q3sjZjvSvKytgawRChBgoV8qBFc3Cq56MQvMBEuL+ew0osr888BSD6HDgyz38pfbktdU72mSxK6Kzu7UvDbllWbH1uru2/frxXy2VJAVu8SVKRuxaGK7gLr9whFFX1QIri60dEcuLVWTzkxa6s9tU4U4ne8rdPfte+79aJWqKHKjCtuDtpjPfg/t5cg7dhpW/b2u89AHGi572eBi340EVy4NVwYPkVvMvbs3xaKwGA5ysNALJYOr+1l7RcGVacS1ALMd7Ozo+8z3/q4q0lXWNPSJqmxdVMwxovdqLAs7hw715j5k9RAuW2W8V0zQrsDzssHg6qytHiIrAT42UErrZTHDEL3FECE6VyG42ivKt4r47ENVWD+rK8fDPNg1FFLXgzB0OGVqCzuH7K+pZn9n/be9jmOaq7Tsa+6aVVKhydl0S72wtD3z9mYxnz3RrMaY/dvRcj6F7QDQBQIsdKpkcFU4PGAtwhz7QDI5Hs9qzOe6qeOhqP0J/ZyxDJvUth96AA/yIay6Z7FJ4TFW6rWqtZdPQ+Tp8F9uEKR77amKi8asM7qhniyCLPQOQ4TojBrT2ODqKjD3okxwlTI9Re9rOi53AT8TYop1gCZVVd1HuVbvGwiuliqZYGrFPWkguLrUkPyG/rwPGYLXcP9RZHCdBlmxCfNAowiw0Ak9OGLeVJM08TawZ6nqUM+uEnCrinmrzvvZKT48Jl3HSwFD2VpwqbVmlJ5pKScTUP1iKqybYKaJXp+MXuktFQwtrOGmYC+2MOkGtbLQNwRYaF3JCu0nMYm3yqOqmqh72kDie5ZGZjIO3GSHfJRzVbYXdaWAygRRv6ro7mtTHqHpYbSCIf+0Jytk0eilCpPGLlR+SZCFviDAQqtKBldHZYod6k34qZb5KPtgKTOF3BYaoL2r+D2jM9WcGuXblcm5WutF5IkCqtaOn9nmxXz2PnDI/zKwJ2utciOxw5cEWegFAiy0Rm/lsSvkH1XJD9GCsxdadLbMemiHFXuxQn7XPEiKCoMuIr5zTPlaUyyYelriHC7VY1VL1fUYCpY+BS7hlHoZ+oPquY7tjSbIQucIsNCKyMVlU5WCK5e1HlrsQzvmweF6HvAzIcMgMcnyY1pPb1JL/ug+ic1NTGfVtpazZl46VJPrq4YyY19Conrn1A4cRCa/E2ShU5RpQONKDnnUGlylVJvqSA+E0F6C52UWqVXPV8h31D1bbjQJ8VpyqKhi+Zhy12J7eBPdK8HHQEGcfW2unJ7dpf15uo7TP7/p+qraSxo9JK4ldlaRL2omyEqaaEuAIgRYaENsyYRGgquUgqwDDWuENNRVyj2ECMmVuYnIBzO9CzsjymHayzgH6zHlaWnWYGxwfBZyDPSS80qrART2NpmgpEGrspX1zb4u5rOn6jULvS8JstAJAiw0SrOKehNcpcxwymI+exMYtGyUDFhChgeTwB6Y2O9+MZZZeOpNiZ1NNkShSyHZCntWrYKffVhWZl21iK/u3b3IFzeCLLSOHCw0RnWkYnIgWgmuLDHDfmWG3WobqtMDKSZ3jNyT4YnN9bsqWs1AM/vOexZcVQ78td97kffEuYZHgVYQYKERmlkUU+Kg9qU6ikQuAvws4Gd+0pBM6EMtNBB7E7EJGzxMBic2CMqcAGAtFVVlgkadVkrEr60nUmUcDiLu4bQYKfcFWkGAhdpZC9OGuqprgeUSbgN/JbY3KqYRDyrBoIdTzBt7H3otEC522CwvWDnvUbmOdEmeRoasVcaBIAu9Q4CFWpWYMXgdU6G9AaEBS5M9QjHBW8w6bVSGH5ajmDptWcOD6j3ueog47R1+oiV5Gr0WSwRZl2qrgMYQYKFuMUntyxqWs6lEDX/oQ62p8gdbocGblXuS9cBaqXL9r1OthD5UWsrmiWq1HWi5mwv1VLnn0nturRecLqR5gkcKrI7arM0VGWTtqCeLIAuNYRYhaqOk9tCcj7VyMvrQy7IKLJRYqh5WoJehwaamqu85BR7Ng+VdnTku6IYC46Wvd1U1qfIC/cOSQ8Mr1aYy18/KDowU/G9YtbDc31u5v9PhsTtazGefA+uJpakMBy1sGiboF0466qAaPh8DPyoNrnrRw7KYz84jqmf/GhIURh6PRMfkacxDSm/f+ywUjZQqq8dUVV9r9u6oliSKXPP0quM0BYwUQ4SoTA/6mJX/T3o2fPVHxM82lduyEbuwtGZR5U7Vx3RYFdpDpS86o1vvUTOSQ4cLD1lSB01giBB1eB8xLHEx8GJ/L0KGCc1QXYlq2Kah/zDGB56PevkSXTtpDtq/nBy+jcjZcGtPftLaWY5omeawjWxINTZHsJaaVG1QweJ9vZwFtR8aLkwCX4pM0vuKIXbUiSFCVKK8q9Cel5u7b9/3+nbEVek6Zg24oHo+i/nsU4mp8tFDhX2lACoNkNLAKTZgakuaS5QGY2mg1ovcohAKQkJ7YgYxLKbe8XNnv6IKEkccl16lLmD46MFCaXqAhgZXqx4nk8Y2qKeBS7fclAgmboZWXkFDU+nw1LOMZOi+s7d539m/xDovn32J4D0Rc8xjitZmUgCUXuNpD9rPYLVKsGLV03PvIdPbtA7t6Y3oyUrLN/Rl8g0Gjh4slKKG9WvE0GBjhQar0sysr5EfU9iLpQfEp4jPNMMfTc1SrIUVTD3T/065YGPay3Wr/112GXTpOn6pADEv2FqpHETZ79nRUHnR96SW1nG6KTpG1sLUeS9v0b1NWjYoZJbztSrEA5UQYKGUiMYqGUjgEDv7aqWgMfdNdzGffQzIjentTC71Upo/v+l/qRuUb6UerqBgoikqNvoy49orFUAoEfxlDUH1Usfog/2SYgVuoaUmljGlXqzlg0K2/6zD1SUwEgRYiBY5BXoQb4ORpRpShXksAeUaVn1KNlYvyL56qAioqrMDrtbLaSi/8NQ5j1HBgwKf84YK7aa9gDslrzUzaeYk9Icjg6xa107E9BBgIYoewJ8CG8OgXp4+KDGclypMuM2ZCHCj4KrT46Mg8HnEkA/KW6qg53VbvVsKKg7VO7QTEzhETmLpgsnF+jXyeIS2YaOZcIJuEGAhSuCQV6q3eVc+kftmiw2y1upF6GzYVENIaVBFL1U3zL3xQT2hvXqIR/b0dKV0769eqD4GXPsmr+5pj48BeowAC8EiyxkMLoehRPV1W+FQhd6ct7oadtBD5WWPgyrfcVlGFoJNPXP+u6/lIVKt92xliQg+ulS591cvGSEFkqOGIYEUARaCRA6h9bLeVYjI5H1XVH2eNiioS4eH2h7+s4t+3nr+rrNSBxlFTtOgrKlFvUNda13J1ic9DCC4qrX3N+Kl8WAqBYBRHwIsBIkomjnovIUS5SdsvUmK1dv5iwrBYoy1lci9rFr/qA+s+k5bHdb3ShdgvmgrT69kcdw2rFW7q/ZjEViI1HznE+pjIQYBFgpFDg32rhcnVsTQgStoIegGtztNZn7ZcCDQi1IEXbACrx2rdEUbQZe5p940GbhGzg7OcqXyC496e6y1EnesWap5VlY5h0Z7jwIDy8H2zKMbBFjIFTlrMKgkg4ZnXmQ8nNIaOe+67AUpMXuqs2RYaxjwZUNDO2un1ACzqiwKunatoKHJHqAbDZHV3lNaccbgterdRV0baV6i55+Wbb6sRPRcUx8LwQiwkCtiZl1hF7oa08uIHJcbNdqdBFqRa7u1ngir43kasY0xvMUgEXRe7ICrqdIXtQdaFXpue19IOEREnumgZkejOwRYyBQ5ZJCbBKrPOi/Zw9LZW2NEkNVao9tgYHVNL1X9rOKtzxtIoK810Cpxnw4+JcAWmA4RVUEe00WABa/IZO/cocHInqAsV3pTbr1RC9j+VnIzdE7Oaw6srlWLqfUq41Okc2jXIKvLjYKdyoFxRAA/yvIFgTOJKd2AQgRY8IoIinKHBiMT5IsULk3TlILevEZnD1qL39aVY0VQ1QOeCut1qO1FRLmSpxm9bqMtwKnz8ilgaJeldJCLAAuPRBbcLBoajF1EuUhnb47K0Xjv7E+jQyQVh1ZtK01zH+Twn479/TEY40OtxELHeequFeULtEYdXATmYw1mKTB0gwALj0QERYVDYw0EWEmXjbvVm/Sbps03sh0FvQcxrjQjc5APw4ygNrEqn1+N6QFnDSG+rKFXa6kXgFpyA61gfzmFcgWBve8MFSITARYeiJiqHVRQVDOTLmsuHzD24YlTBXFlpb1Vgw4+AkuErDXkeTa2xPwag+wLHZ86hg23VEh2Er02gflYDBXCiwALP0XWvAqemq3PPa85qXd0S1fUEIzeqFdtFMdlMZ+dRwaao6xRVNOs0ZV6swgEIgRO9jFLPj3p3cajcwRY+CliHb5SPUjWdPU6knqDipoOgRrxywoBaGPFJ7tUZtmWu2/fR9um1RRo1dabNRWB9cEoQIpHCLBwLzKxvZaaTxUrkI9i2YqKvVZXYxwaSy3ms//G/s6YA6yU8tLOKwwd1pqbNQWBvalPqB8H2984GpDQUgoXdTXMpjHSW9+eGv0YdRdsbJXptVKP4fsywaWC3FrqHmFYzP2nl4sy902iXsFPSuJGmDMNs+apuo4jRoYAC+lsmZChmJUamlopYNsLaMAeUA/Y4FhTwGOHBG+UULtH7wPMkLCG6k+U7B/r3AT5GqJGDg2pFtXg29VMS+AeAdbEWbPWQjRWSV2fG5tT1eSiuo3QLM2QIoa2NEGZ2Up4RJNNnmg2ZSwT5H9U0I8cuveKJvacE7AiRYCFVxHL4TQ6O029MjE9ZM8b3JxaWUOCocFs6kzDgaNZ7y0CidiBzAuKJn1E9wTrReWj8gGRr2ioMOaFFSNHgDVh1qykImsNQ7ThIuIBMYgHQskhwRslzb6e8IwvhkEjqZflqSZAxDCBwXvysvLpXixqC1/RI4iEAGvyQt+03rSVTK0GLLQXa6PvOQ/avo8RQ4JrDcXukcAe3RODv3qzjjTkHhucn2sdUmRQT35Rb35d669iwAiwJkplGUKCk1UH9V2uIx4MLxreltI0tTumBEM6O7CWNeRG4PPUD0AVCgSe6rqKcbiYzz6SS5SraGIBCe8gwJqw0N6ropkztVMvVugQx27fhjWsfKuY7aLX6jGGCCtSKZS9gORs167ysgiyPHSfvin4sVOO37QRYE2Qeq9C6khddzhr7V3Ez572JedBDerHiHyrJb1WmQiwaqIFiY8ihwzTelnkE3moZz/vhWir4pqiGDgCrGkKybFoM7H9Ec0oDO3NuV9qpuu3RSuZPfSBdKW6VgQSHurJpEevJpqJuhcZZG1RxiFXUQ//y6HW60N1BFgTo7yAkBu+tcT2HDHfv9Plg0DfG5PMfqRK7JQiyEfwWSMF808ij+sGQZafevjzEt4p2zBhBFjTE3KzBye2mxlHZs04/TGN8Ksa39hiH65pkNVqt7y1jmNID9p6wnWtyiDRvWYK6vcik98JsrIV9fQf0os1TSz2PCHqvQoZHgyqGK7p3FkzZa7VC1Y6hytie32W+v5GA5nIbTTbdNBkz6AegBtWjt0z659D129ce4LbW+v/m3O6bmNoU8Uv34f+/BQWe65TwT3ss2ZY+zGt0JD38jqKxekRh8ZoQhbz2deAIaxrVYTOpFyny8BEbvMwPisTaOmt72vFM2R6455U/AyvyODqWsOCtQ4JWhMWnnW0APZS5/i2iUr/Vl5bEAKseARZ1alN/FrQi81SVxNDYzQRAW9YiTV8ldnDYs2Six0quCqzlqEZdqwaODTx0I0Mrq5U+LGu7zbH/qUC3D5NA19bPZe1PXzN8HPoz/Y9wNJLw5bOm30P/ZZxLtfOMOlSf7eqsyeUIKs6erHgIsCagMC3q0Q9TZm5V1Yid9mH+lrfEVySwMpvKssMZf1a4fd92xQTXF1oinwd37uvBnwIeTCley5di/ksZmbmr32ZOKBrd0fB01ZDPYzpbNvP+v/LsoFXiSBrqSBrNBM1FACnLy9bsb1OAaME9GJNCAHWBAT2XuUOpelh8b6mHpMbDZcFPQhUtLPsuoN19x7FBFdHdeSAKbA972gIsKqoc+0T2YvZ2QOsB8O1qXU6bKtek+BepqkGWda6rO6+R70gBbQPjaUsoH+YRThy6r16GbCXmY1IDT1Xrl0VMAyd7XdUYbp+TMHSXB0FV6+VgzTE4CrRdn/VfpR1W+F3G2V6FTWT9nfdI6c9OFcbeiE51332u7bxsKhWnF5GYnLpdmImIfSNCawUVH7NCCyjeot1z+cWH2UJnemgB2vkAnuvcnMDNDQVs6ZejKAejpK5X3UPz4U+SCoHV5ETCUL5Zgfa3Lygui11bKKCZQXioYvnNt6DpZ6qFz3MgQu11IuHt3er5L1Wa09x03J6rB6JzeujFwspAqwRi8i9ehIQ4Gyp0Wji7TwoN0v7cx44hFHb0EVkD15dwVWZiQSpG+3/Z71NL0tMLrDLPSxqzCFa6xgF95JE5uE1EmDpnByqN3hUNY18AUTJazA3h7MPYgKrvONTJCAXq5YebvQbAdaIBb75RzWKejs777g3a7dgKKa2kghtB1dJuZmTK+3zh5Z6b8yf5xV7u4Kvuy4DLOuBPNTeqkJZAYSCrE+RAWUvAwddQy9L9ghHT5ygFwsJAda4BbxFrVSWIbbx2NAipi8beOisNc2/8OGr4OeFNeNnpQd3LQ18RA9gohIUlRdsXsxn5xELxF7VXRIhhoKP/Qq9OkHDSjoPvwd+Zi0BVpmejqHK66EpkX/Zq/INCnReVnwZKHVN0YsFAqyRCkzIPqhSHNIKtF40MC7Hus4AACAASURBVGyyVNAS1LCZB2LNdYFihkhqyT+JKKp5pvyy3szcCuhVzBLU2xhRC6tSgDWlwCpVNARWolRKqRe3ulilFg5regEsG2DRizVxBFgjFfD2VGvROzUmLxrI0bpWoNXqwtMRw3R1l4HICyQqlzxomh7G55E9BoX5chEBVqk8IOtlYWoL8wa1AyWWrWq1qKbO335DbVDp3ml6saaNMg0jpMawqEfprM49N42EGlTzRnahoYI67Gua/2VbC81q2nZII70MWOi1LqbHaq/PwVXy53VgHqxPTQ+GhjBDpIt0d5LjpPvl6wSDq2AKAmICgd2KpTmCmIDeKrPQxCScZeSi2K6iMjEvKnw2eo4erBGqo/fKmkWWlFmWo8E8rRs1WtdNDEFElARopMBiRk/NYN9yIydFZB7TJnqwWirgurL+3EX83sK5h5sqoRHc01RyZmHtszo9uZd1S5d8eld121mjcNoIsEYmsF6TN/eqICgq1ehEllaIkW7PbV3BVkStq8YSeT2BRO+nvheJTJT2LjZed4AVWB8u1sqqoL5sOtHbegnasJbk2Y18oYmtVF4m6f1J1fvTmlDxosFabY28vAVMXGGNwpEiwBqZgNwhb2Jl5Ntp9DpzDRcrTdT7cVY2aT/ywVFpckDBdtiBxKCKN+apMmkgMsk6ZD3Nyxof0ivrxaMvM+d21AaEBCPR+UVt5mNVLK8QIn1RO2tq+F3B4deCH6MXa4TIwRoRq0ZRnqzcq5iu/13lzLwPzZtRQPIkchmOGDtlhwusqumh5Ria2gfbcizBVfLn+b/v9Qs8/4fKq0nFBEPPsv7BWnaojuAqnXBgemdO+hJcJX8ea3PtXCgXrignMnq7NVwdcw9E52OZIFEvix8bCq5WWoLLnL9GJ47os4uG+MnFGiF6sEYkYFHkrN6r2DdSW3QuUoO9WU/LPOgiFpP2Dl/VSduS1vMa9AK6WSIWFL5WNfqYMiCPektqXoUgqnxIX2QM/6/vvn3/tcwmRtaISwXdnxHlSsq4Ue24Nl6SfgrshS1cUQPDQoA1EoHd0N7hgICk+CJLvS0HUwN9GlFUs0ipmjJdJ7VPVUSQFetBgFVjMB+0nNMQWLOMlxXr4MWsz5mE1scqUXcrRHRaQ90W81lR7+loUgLwJ4YIx6MoYXft66ZWY1Z1Js6OEjmDmUZWybV7ZYYpPKLLTlg1m4qs61p6B3/Sg6TRmZG6Jt/XEFxdq3dh8MFV8ldJlddVe3H0+zGfsRU4saDOXpwbvRj1IcfpTcG/73dVqgTNoAdrBAKXEvEm/0YuzVKkdCOmnqTTkg/D6CTayCEOigE2pKGerL2SVeVd0QtTT03JocLCdiJi1miWlc5db4ZyA49VLUtuoR/owRqHogBprURXn8/q/Un/XFd4g7ws+wamRuVpiST4tZJVY4X2bFwTXDWnoZ6s2MWyfdJeK4KrHOrVjS22G9JOlA2M1gpSnvQtT07Hquh6etnS5qAF/xsHefg2/vkPEyz8j5wd+b/uvn3/4PuHP/79n+Uf//7PjfXn//7j3/95s/HPf5h6MH+oWz80aDI/9z/++Pd//p8yB/WPf/9nbb5/45//uA2s55PWo/p/Y75HM5pCek1MoPk///j3f/6/mM9HnD/+/Z8PG//8x1aD9Y1imGvq/7j79v3/5LyHMW3Ixj//EZNqUNhObPzzHyb5/n+P3BQTqP/PPk9A2PjnP0yx2f+V9yPmZ8wxbXGz0BCGCAcucAZgpdkpkdW4k7pquhQUg1xqCCCqIYqcoURtmpaUrBJet1LXFH5OsvlU11Bh4KSdVO+GA/MEJLtTeHQkGCIcvqIu5auqU381RPYkYijnvI5kTeWMPXGGC9YayoyupK5tCp311OmMo6nR8MlBjWtYxrpuqjr/FKiNKUridmW+GOrziu6/dGZn74YDCxStT7irABMDRw/WgAVOZy5VGypLRM2sqCU4Ar83qbKMRURCf3TZCdSjxNT/OtR6rU5ZQO+MK7PyfkH7dpVXfV0vU7sqPLujP77lv5b6c6ueo8YD/MBJSZRsGAECrAELKJDZSFdzxEOwN7PvIoccag1KESei8GsdmCFao5JFQjNTGJwXusJlbdQ2vahw/VRej1BtTVr+xVveJeAar2UNR3SLIcKBshY/zRNdGyqEZlaFvF1d6i20D0IX9j0juOrcSUtDhQRXNdO9E1tmIG+oME1PMC89v2Yta2MCMRVMrhqc72p7fjclRGLaL9MzZS3HtK8/WS+i3klHlo0WXzLQEHqwBqoPK7QXJKHbOn2QBXbJJwwN9kfEtVUWwVVDmqqN5aMeq/MaiiXnWaUlbDJ6o8w2PM+ZmZxVg/D3gmNUanUK9AcB1gAFNmAHbdTwiVhm56Kr9fUihjQZGuyJkg/pUARXDSuRSxedc9TgcktZ0tUwTPmafymvK7SH61HbErj9zGQeMIYIh2k/4M2nrQKJoY2i6W37anomOlgOIiTp9oLgqj8CizKWcUJw1Ty1PzGBQdRwWAfBVaI295W1hmpM+oNvSa6iYcJE+WQYKHqwBihgpk6rb+glF4teqgG+86xFuKpzVfnFfFZU2TtoEVq0q2TCdB5mZrUocmJJEtpb08B10ZZHowoBw4TGr7RNw0QP1sAo6TIvuGrqzT9PUV0Xnx29BZ5rKrb9p+030xMasP5Rj2JdgfayxJIuqEAvSU1MtBnqverLKQxpq0l2HygCrOEp6jK+6iBYuBhwo3fDenO9Vse5Wav3gCC6faFtwzo010iBW9meyDSP6ki91r+YP1og/EDb20SqwJW+wxUyTMj6hANFgDUgyl0q6t2JraZcmR5crX9vDcouFI323NbwTZl1k9CsiMWgo+5DpUDsRb7Ynam21H0KhZ1zaYI786JlCs5qJvETbXfVYOvK+s5H26qXu6J92NGwKAaGAGtYiqqQX3f1INE05L4mD2c1kjx4+6/qA848OGPrMqFGCoby7rOjMr3I6vF6EtDLuVRv1evQXkzTLpjrxgm2QnrYVlYPWWbdLkfI55LsPkAkuQ9IQDJ551N6a5rdU+t+ZCy5QcLzQCzms/9W2NJKC52jHhllG2pbpFmff+lJGL/OqqZe4bs2PHmw67KzkAOXHzOf/2uZz0d3CLAGIqCuTG+K0i3ms3Qqc9lyDLUHik7gl7n+GfqnxPp2KdYY7BFrNq8JRN7UPdNZsxYvrRnDS7Ulvc69iyiE3EptQ9SHAGsgAtau6lXxRDUar9S1HVvCoZGeOOUxrEh2HpaAMhs+rOU2UXqZ2tew4CB6LwOvcZMCctDSJqEGBFgDEFBPptcPEwU2+1rZvqge1QlvabCVDLDovcJgqNffV4zURU2sAfn71A/AQBTOHOzzTafchJ/5CQoY7T+J1gEksEJdhjirFdMV2mN/WGIxbXSEAGsYCmtfDWln1G1P4jGa0tlsWqAM8xK6mM9WAekULwiwhoMyDT2n5Pa8m+6KhwnwQJmVBYCuhfRi7WgEAANAgNV/Rb1XPEyAv6wZasZAheYMsnTOQBBg9ZjeVPJupmXXda+AniG4wiApjzakPS9b/gYtIwerxzT094tm4W1oJtVzqyYQibyYgncRS+bwwoEhuw2YMUtKyEBQpmGA0ll49F4BwHiobS+aNX5BqQYAAAAAAAAAAAAAAAAAAAAAAAAAAAAAAACMCHWwANTKKow7StSfAxCCAAtALRbzmQmqTpMkeTWBI2qqaS+TJPlw9+37VQ+2B0DPEGABqEzB1UdrGacpMVW1z+6+fb/gSgKQIsACUMnEg6uf7r59pz0F8NPfOBQAKno19eAKAFwEWACqesYR/NmTBwD3CLAAVMXK/n+iFw/ATwRYAKp6wxEEgIdIygRQ2WI+O0yS5HLKR5IkdwA2GgQAtVjMZ7tJkuwW5GSZ4cTPAd+3Vp2p9d2370vOEAAAAAAAAAAAAAAAAAAAAAAAAAAAAAAAAAAAAAAAAAAAAAAAAAAAAAAAAAAAAAAAAAAAAAAAAAAAAAAAAAAAAAAAAAAAAAAAAAAAAAAAAAAAAAAAAAAAAAAAAAAAAAAAAAAAAAAAAAAAAAAAAAAAAACgS79w9Ptre/P4MEmSFz3bwOWXH29PerAdUbY3j8+TJNmp8zO//Hi7Z//39ubxx8Z2YKLcY+zq2TFfJ0ly9OXH23UPtqW0Go/pg7aip+3Z0L378uPt1dQPQl/9feoHoOe2kiTZnfpBqMlOC8eSc9W+Ph7zgx5sQxVNHVPas/rdjm2HxuRvUz8AAFCj/e3N49ccUAD0YPWb6fq9sbZwQz0x/9KbYK1DXvBa6hzc6f/n8Q1npefsN52zDQ5zrdJjvtuj++J0e/PYDI9dd7wdbVvrHlnqfrlxvt9tz1LmfC1o0zA25GAN2PbmselyP02S5LDFvbgpyovpI+WVxAxPmIfB2Zcfb1d17o7yUE41XIICX368jW6jtjePN3RPnHYY0JpgY+/Lj7dFQXnvbG8e/zdim8z+vVO7UHlfO2rThsy0UfSY9hRDhANmHv5ffrw90lv8oBNre8Q8JJ6a41p3cJX8ec5M4PZUARwaYJLMv/x4e5EkyZMkSbrqRTKB3aWCvTFaKoA098pFXYEkbRrGhCHCEfjy4+3N9uaxSaxlFls16UOj0YZdn3+0vXmctPSmfqVehrZt6c/zLoZ+dJwPtjePLzvqETH7fDmCpHdX4/eJ2rQ9tWltBKld9crvanh0n/SB8SHAGgk1SFd0rZd2/zBueYr9iRrYpocL78z10fB35HmtoR9zbb5s+0FiekRaDGZd90nvIxrGWbXxEpL8ed6W25vHJwpSm/6uru6P9HvNNbqvMhb7HW0LasYQ4bi8mfoBqOBNE0OCefSQmsQ509DPaw3bnXXw/UcdDsuapPexlCc4a/MlREPqrd6XXTGTIr78eHug3rTB5e7hMQKsERliQm1PmAfGRUebMqmZZsqPeq08tLYD2qOMWWxteK9evCFbdVTUcmr3iJkw8LTDNgk1IcAaH4KseNddVd9uu9esL/Qy8LSD6/Wgox6RDQVZQ86z6SKPz/ijo+/tlKrgH01x38eCAGt8mHkT78PQNngMFNS2OhySJr53dJ+YpPfzDr63Ll31/k22TVOPIUHWQBFgAd3neHSZgN6pdEZlmw9R9Z61ngcmh9ubx686+u6quuodn3SvvIIshgsHiABrfFibKhK5a93qKODp8pyfDzHpfeiLWA/c2VSS/ceEAAtA51QYdEoPkKElvU+2l7UPrJ5eDAgBFqaOt8L+6GrYrgtjSHpHi1Sri972ASHAwtQRYPXElGoeydCT3tE+ah0OCAEWgD6ZVM2jgSe9o31Tuz8GjQALQJ9McZLGEJLeSXDvAeViMUw4EARYAPpkqg+Pvudjfe7BNuBPBFgDQYAFoDd6UNn+pKPeGhNcfezgezE8d5yzYSDAAoC/LBVkdWFne/P4knMBjMPfOY8A+uTLj7e/dLk5ZjajalSddvD1Jun9tqNFlTEAWiz9Neeq/+jBAgCHHmJdzdi63N483uGcAMNGgAUAfkcdJhR/pAgpMGwEWADg0cVC1BaS3oGBI8ACgAxaiLqrNeBIegcGjAALAHJ8+fH2usOZhSbp/ZDzAwwPARYAFPjy4+1FkiRdzewj6R0YIAIsAAhzQtI7gFDUwQJQinpV0of+Uknho2X2b3vz+CBJkk/WfrfFfN/7JEn2uFqHw1pjcq18PkwIPVgAyjrXTDfzZxJDWFrKp6sgZ3d78/i8o+9GJBWrTe8PztsEEWABQISOZxa+Iul9MLamfgCmjgALQFmTfYBoKZuukt7PSXofBHLmJo4AC0A0JVxP+g39y4+3XVV6v8/HIum9955N/QBMHQEWgDL2OWr3TD7WqoPv3VLSO/prl3MzbQRYAMp4zlH7uZzOQUfL6ZD03lMawmUYd+IIsABE0ewoerBESe9dVXon6b2fXk79AIAAC0A8ek0cSnq/6OjrSXrvEb2AEPSCAAtAOBVOpPfK48uPt6YX67qDrybpvV9YoBv3CLAABNEDnMTqfF3NLCTpvQe2N49fk9yOFAEWgEIKrj5S2yefkt6POkx6f93B9+LPe8QMC55yLJAiwAKQywquyPMJ0HGl99PtzWOGcFum4IqhQTxAgAUgk3KuvhJcxfny4+11hzMLL0l6b4d5+VCpDIIrPEKABeARMxNqe/P4kmHB8r78eHvR0XI6GwqyOG8NUk/hJ1MqY7Q7iUr+zuEDkNJD4znTzGtzot6/tnuUdtSrctDy946aVQPu5dSXikIxAixg/J4VJD8v9LBg9lPNTNL79ubxgXo62u5R2jfn/cuPtyS+FwiYHPCbglaCKgQjwALGb5fgqTtffrxdbW8e7ynIaptJel8qJwzZmP2H2pGDBQAN63hmIUnvQAcIsACgBVpOh6R3YCIIsACgJV9+vO2q0vsOpQSAdhFgAUC7TD7WqoNjvk+ld6A9JLkD43eTJMltwV4yS6ol1szCLmqMmaT3my8/3t50dgD66axgq/6l+4PJIghGgAWM323oVH0lQ79QHSxydhpikt63N49POhq2e7+9efzUzG7s4Lt7KeL+2FAdrBcEWyjCECGAn8yD/8uPt+bB/yTgrR4VKOn9ooNjuKEgiwA6kul9NOfty4+3exrq7SKfDgNBgAXgET1IzFv9Ux4izVEw28VwnempPO/ge0fDDLN++fH2KS8iyEKABSCT6jfxpt6sg46O7+H25jHr6FWkFxEzO3Q96B1B7QiwAOQyvVkEWc3R8e3qAX2+vXlMLlFFGu5l3Uc8QIAFoJAVZJEY3YCOK72/1yLGqEAzM084hkgRYAEIYvW0oAFaL7CLfB6S3mvy5cdbM2mBdR9xjwALQDC9pXex3MskKJ+ni+NL0nt96MXCPQIsALGYNdWsE5Leh0v1xXgJAQEWgDg8QJqlodiDrpLeO/jOMeIlBARYAEr5wGFrjoJYZqUNlM4fs24njgALQBmsZdcw5bsxqWC4uEcmjgALU0dxwBI0jMUbesNUX4nh2GEqWmAdI0eAhan7PPUDUAHBaQu+/Hh7RDA7SNwfE0eAhanY4UxjwPZ4YA8ORXknjgALU0ERxfqd6MHPMjoNsyrpE2QNhBLd0/uD2lgT9PepHwAA5Wh5F7TEHO/tzWPzoL7kmA+DJipgoujBQqzBrVlWsM4aDSAGQ0nvF5wxoP8IsMan6SGEIS4Ky0K2GI0vP96e8GIA9B8B1vgwbPNYXv4VOS0YogPudaDfCLAwBZkzCMkjwhAp6f2IFwSgvwiwxocG97FF3zYIqEovB1R6B3qKAGtk6JHxysrBIo8Fg/blx9trFhYG+okAa5wa7cXa3jzeHdhRy9peevsweF9+vH3NcjpA/xBgjRO9WLK9eZxXwZ1lcjAWJ9z3QL8QYI1T0w3tkKqi5/W28UDCKCjp/YBeWaA/CLDGqememSGt6/c8598IsHpue/P44/bm8X/1Z2hD063S0iwHE9ploNcIsMap6eTtQczKUwX3zPwrPZCA0dDSLMwsBHqAAGuEFDg0GTwMpTL6Yc6/Xbe4HShvSL2lvaDldEh6BzpGgDVeTQYQvR+q2d48NnliL3N+5LbFzUEJOodDyvfrjS8/3h4xBA50iwBrvN41uWfbm8f7PT9yr3Iezmt6sAah79dY3+2R9A50hwBrpFRwtMlhwrzk8U4F9F5da9YV+q2319gQ6Brfm/pxALpCgDVuTfZi7SuQ6aPLgqElKl/3nCYoNNmDNYncLpbTAbpDgDVuFw0OEZgA5rRvR2978/hVwYP5gtmDg9D0tTWZ3C4lvV/0YFOASSHAGjENEbxpcA9f9ak2kbblPOdH1j3tvSKR26Lq+3kzQOswqQXAv/x4e8Lam0C7CLDG76LhXKz3fRgq1EP5fcGPHfU094pSBKJr6bKFrxpKqZE6HTTcFjSF+wODRIA1cgoomszBMA/Ej10GWZrR+LGgJ8gMDTJzsP/OW3qgTq4q/ICX06GHF4NEgDUBqu7cZA7GjoKs1nsFlHP1vqARvtEQSe/0eKJA67Y3jy9bGBocQomRxgw06f1fPdgGIBoB1kS0kINhgqxPbT28TDBn1qkryLlKVGyxz+uzTX74wwSZOpeNB1fyoqXv6SX15A5pJu3k7xEMEwHWtBw0XN15QzlZl031zOhh/DpJkq8BwzxmX/d6XvNq0rWetjePDwPPZV3ft0sB0/sg6/UQiu2qHWGRbwwSAdaEWIUHm15C4/6hub15fF7XsKFJYtcQ0tfAKfy9D6708Gir16ZXTGC1vXn8KaBmWW10vIt6PKdkCMvpvOrBNgCl/J3DNi0m4NjePN7Tg63JN/kNNY6mlINpxD9oiHIZEvRoVqD585u2MyZQu9JabH3XVnCx6Ek5jV2dz922E5et4IrhJlFbYHq1P/UxkVxtQN6KDECvEWBNUDqbSENtbRQLTYOl++/a3jxOcvLBtipOoT/58uNt74sqqjeuraGqw6n2lCUP66MRXDlM0V0FWR/7tF0KropmBgO9RoA1YSYPY3vz+EY9KW3PAKy7R2WlOle9LqaonKPTidZhao2Vu/OSHJ585p7Z3jw+6cPwqVIKTqf8QoDxIMCaODWuT9WoDTXfwfRYnXWdb5UxDLdhDXW2PjQ2dtYxT3s+F/pfgqoIptd3e/P4tyYDGwVPvheLHZ23XXoZMSYEWEiHDE+2N4/f6S12KA+nGwVWfem16tUwy0RwzGti8hat3McmHPZx/VKgKQRY+ElFCPfUK3Da40DLTC9/0/fhQGCA9jRTl55WoCICLDyiwOXGmsWz34MG1+RYvdMMwb6up0bA1yzfEHDdx3xoy8jUyppl/KmBj19xj2BKfuFsI4R6tcyfZy31bK3VGN+aHqseB1XA6Ggyhr3o9pmKkwIIRICFUtS7tWUlqKbJqzuRvV3pG60ZnvxD/70ioAK6ZQoFWxNfCLAAAAAAAAAAAAAAAAAAAAAAAAAAAAAAAAAAAAAAAAAAAAAAAAAAAAAAAAAAAAAAAAAAAAAAAAAAAAAAAAAAAAAAAAAAAAAAAAAAAAAAAAAAAAAAAAAAAAAAAAAAAAAAAF34haOOuizms13no5Z3376vp36AF/PZRpIkO/bf3X37flPTZ//X+s+bu2/f9+r43Los5rPXSZKcWh+3V9e+o9XzaF9n5vod1LNDbdNH669au1cW85n5Xrtt5B6YiL9P/QCgVh+dDzMNGA3Jn8GVe2x4uQGAESPA6pk63naG/rYJNMXTkxGjdz2EAPrrb5wbAOjGYj7bWsxn+xx+YHwIsACgZYv57NViPvuUJMnXJElecvyB8WGIELVhKNJPQ7wcm34ykzCWgVsW+nMhzkdy/ABkIMACMGVL8qoANIEhQgAAgJrRg4VHPHWbel/PyiQLJ0myZf3V6u7b91XFz7Rnc3qPgfMz67tv32sbRvKch8r7lNRcr2wxn5nt20j/u8b6Xo18blOaOldZPN9X6dpr8jquU937XYcG74He7SviEGBN0GI+O0yS5EW65+kQiWYznbpFMfVv5sZ+c/ft+1XWEVvMZ+f275rPVeBz6fzoQcgD3f28JEmO7IeWGqBX2pctz++bn32XJMlFRnC04+TCvDP7p+Nz6vnMX6zfM//+aPbXYj5LlKtzYje0Kr/xU96wlL7/ZcZ5yN2njM/b0La+cEqAuJ9rzu9F4OeZ/T+0HyzJX/t/o8+6Dtk+63d3tN/7GZ9beA22reBcrXUsPidJ8ixn03bc6yPxXCO6l9Lj47vezf9c6xgVPuQVVL3MuI7X+qyzokAx6z4K+H73/j7xBRDWdbFbx37XQefiNOdaLbU9Vpv2POOaan1fUR4B1jRtuQ/axXx2qQdmFnOzXy7ms2d3374f5fzMg881jbPnTcw0SrkNsNXQpFZOcGW+573buDnSRvDFYj478DTeG8723hYdBz1Q3YDRlR4HuwH0Bjaefb70PfAsD/Yp4DNDjlOizz1fzGcvVHvNG7zpYfex4PPMd+4u5jNzju+KtjHxV3z3Sa/B5wq2O+1VDbhn0sB2XXD+3evQ910hxyfR9+0v5rOjgJehV1n/rm061GcV5ag9uo8CtjPxtBePrqnFfPa+4H5IBe13HdQGnBfcAz+3J/Qr9YJ7GXCvpp99E/qyim6Qg4W0sXUfFFlvrYdq7GO8c372ecDvuo3qz89QQ5T1kPc1NiZ4+Ki3zjwvCoKr3YDgKlXm7TLvYeLul69n0Gcn4zhlDTXsaDseKQiu1p5tPAwpQaBAJSt48J3P/Yjz0AjdA3nBlS0oyCyQ1QOW9XC9zKqvVRBcuff9RoXCrHV41IuTca2lLj1D4LWx2gDfPeBrMy8z9uEBBW1ZL0JZ+7qrdq0oIENHCLCQWI2tuZHNG9evd9++P1HZhT3Pw/hl5E3tDhXtB/y+G4Tdv5VmDDku1evyy923779qu4+chmkjYGq8HYDdvx0mSfIkSZKn+jw3WLC/13znr/qdq5xG0cvURfL0YtzY+6XPt/ersOG2zt1Kv/tEn/dU22z2zx0W3M14SPkeLGe6Xn7VNj5xeidzz7MeLG6gcmVt568Z27iv3+2Key3Y25we1yNd+1e6j+w/tqXn37N6ja7Ua/GLc70feO7TR9e7zqsbXK2sz3xifV4aMHT5AE+34cq5x3/1bGcqpKcvmtos9+XD3IsnTpv51Gnziu4B34ub3Rb/al1Tbu+cbxku9ARDhEit1YA9aKTNOL+GCL5aDcVGyDCf9RkrdWfbD+3M37dyhlJLa3jw1Gmwlr4hLeVSLZ0eF/NQ3gpIPr7yDIMu1dNiO7A/S9tw7Qkoc1k5TbZHy7Lo8337lWetPBpvr6O2/0TbYAcsL+xeOAUzbkD3aDhGn3e0mM8+FwW0+k73Zx5tq7WNd87Pn4Zegzm8+U8e5ho8Sf56ID64Bt3rRdt8ZW3fg2tOuTSpdUA+zW1WjpK+71r3mH2fmirxLUNI5gAAHqRJREFUO87vuMfbbNdTz/2Tft7HwEC+KSH7bf7tk7Xfu4H3eaxXnnvO12aa/z4IGEJO+V4YD9ztt+6tW+d3zDX8OuseR3fowUIqrxFbex5keUm7PjHDhO7Qxpvkr94rt8HKzEHQ/rxx/rqowVvpjTREXbkPjxJl9fbqlTbgIR9sfjaw4T1z/tt9qLo9Ntd5uS5Kli8KNN39vsnbVn2m/dDZ0rBlFWn+UNGfLoMMs++vi2aQZdynP19qdKx8QXLW/bMOvc6aErjfK8+11sQw4Qvnv8/ytk1Bd+6268XFTV04ygsOdd+5PbqsBtBDBFhIlEBe1BPwwfnvonwmV8wwoRt8pb/rNprXIb1Rzn8XBYZnEUmjdVXjfjQcWrRf6vGobcq2vs/e758PYs8khcQTkPkU/Yy7324Q7uMGzI3l20TY6Xi40uYmmNv3mPvisizqObN64vrO3e/Y9imXglP3M0OOS9E94AZtV4GlGM7cFAjWtOwfhgiRBA5pVepuN0HLYj67dhr5R8OEnuHBayvg+c352MLZShqetP+q6IGcdyzcYc5Dbe9JxeEIt+F2g9ks72J7Vqx6YW7dsEQNti/odb8jqB6P+RmVf8h62D0KmIs+0xNUutdErNClcuyf8SYz69gGl8+owsqRcycxLHI+1j1WodfZh4iE/kZZ++1eO3n7XQf3HliG3PMawsz7EXc/3BeIrM9N21P7vDyLTU9AswiwkKhOTy5PoFLGOyd4eu55C3TfwuyHgNvInWtGVF2KCm6eeRrEdMr0VUjNoAzufoV+RlAPVlG9sBJies5uch7ObjD3e4lrrOr+RC+Vo3vhwpMsfqoJIG+aCLTy6lYFco930HkMCBIaVcN+18G9zmLvgUcvdr7h7chCom673ekwNh5jiBBJ1d6pUCo8aT90fMOEdpf5uomaNjnlGnIfiBpOcWcnpkwQ8dUktgaUg8gV0cgWnjcNXX3NKJwaqsowXB0lCnpHCe++oqzphIWvJcqZeJl7RPWgPtYcZPR9dYYNTUCoe7/rUMd1XSrgrfDzaBk9WP23E1NTqerDvQVut/a+U4LBfpg31d29lRGcFD5wNDvxWvlXvp6Zn8UZe7CER1ZR1HRYzB1izerhaiUAHxoTZC3msw8KqNwg9D7QMkVRTUmMsrumF5CsmXxLnRu7J2PRl+G8KgL2e+kEOaPYb4wLAVb/uA+z2NyCR/kyPdvDN05DaA8T5g0P+hzELsdSoHCoNPlrdpWZLn1mLRljSyuyhz5YH+Q+mSGRwGUwMoPpnHphJ1mfbar0NxBgBV+/qvUzKDqWNxrG8gVaVafQv/Lc0xdaKuXRedF2hAYaTb2Mxc4w9vEt2XWWs+xVzH7XoWruX+K5r2KH+Pr+Mj15DBH2j/uQj+0adxu3XnUjq1fHbljsYUJ7eHDlCZ7cHpc6GvLSzANOU7Gfeo7zTkQJgUe/G/h7eT/nXjcr1ewpU2HefaDtRhSazdtGtzbUYHNIzHFVLteJ53hVmULvKw1QdlKFe50F3T8NVkbP+1w3WDpRyYauXhjd+ybmWvXuZ0aAHPO5vW7rQYDVR+6NvBXawHmKRSYRM4Xa5CvZsOU0Wr6eKbcB6UVehoLGPV8gEvgR7n6FLCWUeB6+NvcN+13AwynrQbD07Fvhsc+ou2Rz9ztvfwZBtbrcGmZVKqG7vRRFi3HnHe+yL29F58W3jFOugJICD45ZwCLkTZfrcIOhoHY5YD/ddi7oHvDMtk4i1oBESwiwesbTw5NotlxII+1WOU96Om3XnYr8PG/tQYsv+OxF9WIFL77FpEO4DWPWUjU/6d/zHqZRD/WAOk7usQ9ZjqToZ9zg/9WQe7FSJYatg89VQJCcF5y753BDSzRlyiju626Te91vBeSC1l0Ys9HgXL1N7n42cQ8cBubRulXlfT3+6BgBVj/5qmrnLuqpQMNtLEMKcbbO01jtOw3k0pcgnlGp+jSkyKN5cFcNxgIaPvffg4bj1DC65+ky63wrCPEuyGxxeysyH0D6vKJyF25QvJVXIkPnJPftXTNE3f3+GBJkmc/vMhgruBdje1N2Qien5AVEGetZ/pRR8fw06zhmrL2X5dF6pWW3M+N38hZhv2wpH+lRkduA7cq9RnUP2Mfu/pgXXF+HnsAtpPAvWkaSew9pptoLpxHa0dTvaz08l7oZn+lB5isaGbrkSxfcIpn2/8+r6H3iWWLFBCPP3aUrrFmJ6bEsk39ku1ThzA/226K+57xirZwT52G2pWDjQVK6GtfzgF4PX6/Ce7soqjXMUPh5WpPSrefzSp9xZn3mlh6uuT0jOfu9of1+41a0VyCQ1kTaylkQOUboWoSJvR6h7kXfNvoW7vX1LLgFWM1D9cA6jrv6Gbc4r+nNfjBkZl1/IUN+Z87PbVjX2c+XFw1t+RLNs7j3s7k2/rCT0rWdvkkhPkvn8+578Z393tHntZIqoHbZLXfyqMBs5PlINKRsry1q9uuTmUTjnJO0N9G3bukQqu1PDgFWfx14pin7cqyy5K5n1QPXOb0mmV3dqmC851nsOC34mSiQcitc1yE9/of6nqUaW9/3xCy5kxZzvHLOb9pzudbD9lE16awHoLUIrv3v6TFKr4vQSu6pI2dR3cQ6Hlmf6QYIIfud1pI6zdn3umyU6E3ZdbYxySomKb7q3O+cB2X6AmWfsz39rnv80gK7Wd+ZWT1f1fXPnO/eUKBwmfGZa/3J6yW6sgLfVHp8su6TvGN25gm88/a76Nqty4HuAVvRfmbep8lf5+RIgfnPhbqtc5LXzgSvS4r2MUTYU3o475XodUlXx+/1eHzGcEWit7GidfjSpPKsn9ttqLF1G8msIO6qzLR8zUj0vYn61gJcBvTgZBVF9S2Tc1W0TIfOiy+ZP+szL0KW/tB+Z/W2+va9j7IChaOMmZsXGT2cD/bVKm7r4wsyjpz74lE5AV2bWUnjvs/Mu9fSz0wXhvZdG+59km5nZlK22q/YbWyctdB6yH4m2s/CiUba36zjnNnOaGZwrwvGThkBVo+ZG0dTv/cCktWXasyfBBS4XClwS/+E3qD27/i+Y+n8TJF3zs/fRKzFZYZrnqgBK9rfaz3A3QfV2vnuoh6/k4LvSs+B74Ho7qeXftd9SNpW6h17qoY185zoOnjiWRjW/bx0mx9cF768IOszr3I+81oN/4nnGHt/R0M/T/RQzTsP6eLDBxVKTrjnIvRPenyXAdt5rRcd79CN9QKVNbST9hqleTpFbcCV9X3Lomta5ybvBW6t6yZtTwrv7cBrw97O3HYoYBvtz3O371+e/Slqv4IoGHpasNjzdeh+2sdPbVpRO5PeX0cEV/02uMJ+U6e8A3cKc9XcolHwJBcHLUpchue7VnUPyVoLM9fyHXV/XuK5Huu6FpXb5Vtgt1cPFM8xTcpsp3M95V637rVX9Zh7jnUt900D21nr59Wlqe3y3QO09QAAAAAAAAAAAAAAAAAAAAAAAAAAAAAAAAAAAACKUGgUvWUtbpq6odAegD7Tguw/i8+WWTYL48Biz+izLd/K8WM/Y2qgX1h/tdSyIQA6pJULHixSr+XMbC+c9RJ7F2At5rOPzl+dNLXqxZSNJsBazGe+i/g69KLx9Jbw5lGB+xYXYZW1ftuEbOUsHowe87UjGdZab672JZbwp8A2aJX+CTwPGyO5N919aGJx/MkbUw+W29OR6E3iSeDv+3pLCLDKc9/iQt0ULKIK9JmvHcm1mM/SxYDf0ItQq6g2SOfhWueBoBeV/W3kh3BLbzGjtZjP9hfz2aX5M+b9BEYs7fX6ZIZu1AuG9pnj/krnYdTPDbRjCjlY54v57Lpvq/DXYTGf/W517ZL8PR7uueRtejp29YA/Yai8M6ZNNS+tK8+kGnMvno1gH919oI1pwBQCrA29lYxxuG9I4+bmYfEu4OdGFwjHUqNOwDwebhJ0yvSYPEuSZN+5l9MH/BZ5oLXKaoN2NZzo9hyaZPan9l9o6HDw54Trqh1TmUX4cjGfXYyxF2tA7iixgCkquO6vTG+VXgLd3K1T9aLQk1WPrDboxjwfkiQxM+t2rL/fUZBL7w5KGXMOln0jbbhTawGgD8yLn3oU9jw9uJfkZDVPL98Hni/aaXtbMB5j7sE6c2aQHC7ms7O630ZMkrm6+e0b0dysn0PKRKjxtIvS3Vh//9L53Hc5Y+Ubi/ns0YyZrLdnfX667fbwhNne27tv36/ztrsvnH1eh8zCco+5O0VbtW5+HhPrnGwoGdk+Zisdr0e9DNbPP7e/K+vnnd+zz/ujKeRZ+52xjen1eBVz/Ve5RjzHeJn2IOv4pp/7cx/NZ+qeye1pztmuW23bTd5n5Nyz6fd30mNhrrPFfHaUJMl7558uc4YZ03Nu9uk3T0BwW9QOZZ2rjOv3Xda1m3FcE+u8PDgnoT3aWfdj3cx5X8xn7qfuaGahvT3RbU7y8Dw9c493bJub81lB95F7TO37M4l/Lp3lPGd2rGtzsM+ZskYbYKmxunJq0uQ2VDEW81napZ+VB7WvLv6bvAtQ22cPDfyiGSznns/Om3K8oy5u14Nq/boxz3Nq9ZjveKUpy0cDGNaz9/km8Py6x/zMyas4d471LwXn2wTvptHZs4KIop83/3aQ0Ti759LdvsS336oF9zLjO9Pr8aKoaGlN14h7jPf085c51/GhJqUcZTW8i/nsXMNpWduVZF0HCgDOc2oj7ev7L3TPtp5SYPZb32/v465vqEoPu9OCulu7VjuUVUzSd662MtqgxC2jEtAWes/3Yj57UhTM6lr8ZP3VKqL0Th1810B0m1NwjOz7KatNCP2sxLqP3uTkWrlt3J4z6hPzXLp1c0YVhF7m3GvpPq91r11k7/Fwjb1MgztTYtfXyxPD3PCqgpvV+LjM933MKIT6iB4Cl00ksOtt4lNgIcQtbffkpyvroV50vn8GRSqZUfTz6fGtZfhH35nX6KZe5ZX0aPAa2dLnFt1/Zvvf6z5wt+0yJ7iy3Xp+91w9QyHH+5X2q6tJJL5Zar5jfBl4nhKrHQrZ/+chbVCJttANVh6dYw/3Zxrr8ch4NlR+wQxsP5L0HvFd+9ZnhbQtif79tK7yPTHPJT3rzHURcq1tKBjs8n5rzKiT3NXle+ZE4o9mhkRyEyETvVWZG/8P/ffC0/CZi30dEKm7N8SNulPTLl27kXrQVa2f89LF63vAmLfRO/3/f2m77QvdXPw3E0/0tB/q1xpuS9Q9b5+DHT1w7L+7sR747nWxoWvzqOL2uQ+GdBvX+s5957ybHrRHw5S6RnxvnUXXyGXANWI/FNb6zLz75dJ+mOrh5/7MypkV5p6P9HdfeQKzot9Nl0Spem6iaXju2gkunhV8jrn3Pzh/5+7TRmAvvnus7DbIbn98baF7bhMFbDsKHO1cWDNzr6g9fO7895uCny9Fgafb9q5qKvxqH0/3WeG7Zs39tPT0WPoCave8u7Mhzb3+uYYeorznkj20+Dqj0K7bhrht0q6eT7WMMPXFFGYRXjjDJuYheFhmZo4uHrdBuVLX+9r52TNdMPbPn+vGyXsrSrdzqe7izIfWYj77r/WfS8+aWDZ3aGStIa0HDYi222446woCFoG9h8uezvZc63y4XeFuo2fv45EniPnsPGQOa3yIZ22je04T3RPuPXDuyUsKuUbS3/UlCafS6zrrfnnjDAVtOPfpi+Qhk0/26LgpSNyw/nvLM8El63cPnQfJoYZZuqiufusEWL57J60An7mOnGefvMONGTLboJi20Axv6zysnXORO0vPyjNKPQo6qrByHZ97XhqSBoJr7/C85xw9CoTVg+QGV4/aFx1rt00yL/dXFdvVwueS2nc3uPL+vNoQNw3BXJuvx1RCYuxDhOnsEPetJ2opi+RhvoPtvqH2Xbi6oPY8vUoh373Sg62WxiRjfbRHD87kr+PlzmY6rGEo61AP5aI/fZ21k5VHl5XPdOYL4vUmmZewXsWj4Cr565y6D4sdu0u+hmtkP+AaWebcL0tPwGf3Xrif7a2pphl59vF177drX3Cl373yDM+99P1sC0KCOnONec+Rs0/ucQ0ZmltntUGxbaG2Y6V/i9kW999C6ujlMYHGf9M/SZL8rrbolRNcrRvIP73Kyn3UOXL/bVfD9Sn3JcHbvujzjjyz6EPOeZGi55Lby7XM+nndp0ee6+F0TLNmRx9gJX8VVbNP8lZoTpTFbWhXOQ/X9HvXATeOj+8tsAr3wXlV0Cj7GsIpLz68yupi17FyG+J1wdCH+/N1NChXeQ8EnW+3obOvwzaukdz7xfMAzTsuodeju19F2+Cet95e9xEvYO7QYUiuS14bFN0W5myLOwSY929Nzzhb6Zp+WnPtMd9z4AHfi1caFOl58WD0IaCXx31RyDvOoTInfugl0b1fQ55jJ1n7PQaTCLDk0ZtpZFKd29C+CQmC9NBzH1R5F9Cqgamrbv6G28j5uD/zW83bNCRF58M9v7llAqxchFQdAVbIOc3rFanjGsnLE/ItO/KA59/zXkROi5LrPT2DhUNMnoB5awRv1O61WJTPtS4IMEq1hYlmSbp5pL522DM82Fb5jCYWeg4dnnNfMNLz5B7vwuDPcy9VfVEouibcAM60gYU9gDou7n676QCDNZVK7vfdsIv5zF5dPc0tCn3zchv7mCDonfP7eQ1cE2UR3JvrWUAv2sL576pDd6FL5XSR71KkKNj4w/nvzxk/15jAoPxzTnDvnt8y10heIFL1un6XkQz8Imf49tH2B/Zcu/ux1ee12jx1wdwaR7GKzlWVtjBRW2Anfu8HDB2GBPxFbpwZpm6C+ZZmsD6teQTh0azWDDfO0Gt6HbovtzuB1/Haug6qztArOsfuNRFzvq6d/R5NcdfJBFjiFh99pSTWolosjx4ckW85MUGD27vRhJCp7nWb0lI5be9nHQ9/twEuc43kNeKh1/Xa9zl6QXrmGfLbVS+Ir96c+zk7A2q8fbPzHrBmvtU9jJn5glBDW5goWLavr+cF+XfrmoYHb92hNb1EfLSula0G1q4Nbf/dc7zl/G9qt8w5N/taYcJG7HMp+HvMNnkKvI7ClIYI025T90YNSTpvc4igr0EIS0b0V196V+q4RvLyvo7U4+zrXUjrPL1voJ5OF3lYbq+FO5PzMLCuWN0qt4WefMB9Z8KFb3iwkZnF2paq6SNF3xF0f7YwW7XKPrEeYwlT68FK1EDbN6+ZIVc0dDW2i8tXyBBo8hqp5cXBJANrhYZXGVXr03vbVzLCHSIK1epLjyfASOztzqmyfqWhmQf1m5SL5lvlIUve/tbVFr5xZsbZw4RNDA9m0jV16gyn1daLFVoWI2I28XXJNIQq544Aq4TJBVgqPuouRXGa90DxrVEVucp6170/K+fNs3CNxIEKPc5TTtjPMphrRL0Zr3Ufn3qGM/f1sHLvz5DZV33glg1InJ53t2K/t15ZE2poC+39sQMse5jwwdqdLa1X98YZzXhZ4zBhaA6fe87TQPfW6an8PIDrOLinc8yLmU9qiNBy5qmIXjSN1W28Yrrm3aT2Mm/RVVTZ9iEJ7QJnuPOxwV0jqqVzklH9eXeI+6ScILcMwo0TPLn7cdRyMFz5uCogs3vK9rX0zqPhwfKbGcXNAduocZmw0BIJ7s+tnP9NFc0C7YL7TIspC+H2WI4mV3eSAVZG8dGipF63mzqoWKk1w8fWRKORF1y4F3+tOQYdc4t25gZPGfVaMOBrRLmVj+qOKeiwX6Q2tGxOL3kSrlNu77p7/cbO+quqVFvo4aZm7DdQXDSIAr5HRS9r+vjDonupYFj4UcmFGosT18V9poUUHk65LxSNDgm3aao9WIka5Jhu7Qunsd4KbKzfO//tvo3WZSfnJnYvft/yIZl63oXrHsuiGirB+z0xY71GHk1qCSg/ca+tfVLPzeuM4OoiYPZt5sNWbUJdgcLPbfK0hWUWFXbPzXPP8GCbPXPuS/dWTb1YIefAt1D7/fHx9PYlWnYt6AWojetY58ndxsJrQte9u4RbnUVeOzXZAEu9WMGJvBk/f54VZKnRdNciTCLqboVwA0TvtugGdd/wD4tmXJnGZTGffYpYsb8L7tvOoe8BqvNxyfCgX9+vEbMWW9Zbe8YyP+m94aYDbGi2YWaxX/N5i/nMBJdfa9r2Xc8fsz+v1Ub8nvGAzVpexX2QnWYU69zKCNoqyWgLzXVwmXWtmHvSfdB7VgPYdXpxGlnYOUtGkFBXcPoqq3ZVxmLkbnFS93ibduxTXk+WjvllSKBTE9+qJZnth/bbPb6Z1eKHaIqzCH9SbZ2XoQ9dzTb5zWnMz/UZ79SbsqEkau/ioTW/kd14FvX8TUHHht4G09pAaQ0we1/3dROks1KW+pmF/i3d/j532V47M6o21PBcWV3s7vnw1lpCr6+R53qIL9OZcvp73722tt/+F/PZiWcx3ffWZ6X37Za+p+4gPGYGX8q7MLB8cHqtzPZ+ta75LR2X/aau84y28FBDQ1e6VtbatnRb9jwvhR+sz8hL7G/LG7f4qAmGa0q0P1Vh3Hdqu9OFpt0g6dHSOqYN13G1j/eWXhbSezP9zPTeTAPaVnKaVM/qyLnX0vbDvSZeeIa6r7KWJBuqSQdYchLTAJpaPJpF417oRW86vpXPq3rneXN38xjOtN3rxXx2oCFL+wGy0fMeqlzaL/cBmmiffPuVNl5tvdUNho7lXvJ40e0+XCNpYxxSLPTBGmh6kUo857yPhUd9BVMfUHDzwnOOfD0hiTWMXuu+ZrSFGzn5rL4ipdeL+cz3wnPT0tI4vu1xZ9S+rBjs2UFH+qzIel6kM0J9C6L7jnditfl1DwVHy7jX8q6J1FXWIuxDNuUcrHtqyKIifF0IB4E5XDcNLB6abseNbt7Qn1/pLdLNociz6unyNT/p2B4F7NP9uaCmSzY17HueobU8bVwjIdtifubAd6/p7/Yi7/W2elDSBGvzYN0LXPFgL3D7rvWzTRXqjGkLs3KBfG1jK8ntGdzhuEpJ5RHt06qo3IaO91FEG7Zue9a69te0syHX8Ur37OiCq2RkPVi+qdqhDmLf7tRlfK1cjmee378NrCV05VyIUQ8qvTHc6A3GXV7is/t5eoCeLOazM/3Ob55tX+l3qyyweuK8lZb5nKVzXjM/Q8fhWm93z5zvvh8KSh9cemPO+1x32+s+h+7Pu98fst/2v4c+PIO206kzVXSNZE3aKHtdu8c+3aYDPeR2PdPU1xpqyq34nb5MKUcv3S/3u261rUULdmdxz12usstHadsOrH1xj4nZjnfpuVEvrz1EbqvaBhW1hcu0Pcn4CHfpnKSm4LZsG3Tt+Vn7v4vuvUfXsNU+pcfIDjZXap+C9lkBzJWO907G/ZDem1nXV1EbV/WauL8PCq7P25ZqnHXmlzHvHACg35T8bk8oGOVwEaZn8kOEAIBOuTlFo6mDhGmjBwsA0AlN4f9qDVeZ2ldPOBsYA3qwAACtU3Dl1uliIXqMBj1YAIBWqIDrZyV5u7WQ6L3CqFAHCwDQlrx6SAecBYwJQ4QAgMblrAGZ1i/rdb09IBY9WACANqRrD9rDgh886+4BAAAAAAAAAAAAAAAAAAAAAAAAAAAAAAAAAAAAAAAAAAAAAAAAAAAAAAAAAAAAAAAAAAAAAAAAAAAAAAAAAAAAAAAAAAAAAAAAAAAAAAAAAAAAAAAAAAAAAAAAAAAAAAAAAAAAAAAAAAAAAAAAAAAAAAAAAAAAAAAAAAAAAAAAAAAAAAAAAAAAAAAAADB5AAAAAAAAAAAAAAAAAAAAAAAAAAAAAAAAAAAAAAAAAAAAAAAAAAAAAAAAAAAAAAAAAAAAAAAAAAAAAAAAAAAAAAAAAAAAAAAAAAAAAAAAAAAAAAAAAAAAAAAAAAAAAAAAAAAAAAAAAAAAAAAAAAAAAAAAAAAAAAAAAAAAAAAAAAAAAAAAAAAAAAAAAAAAAAAAAAAAAAAAAAAAAAAAAAAAAAAAAAAAAAAAAAAAAAAAAAAAAAAAAAAAAAAAAAAAAAAAAAAAAAAAAAAAAAAAAAAAAAAAAAAAAAAAAAAAAAAAAAAAAAAAAAAAAAAAAAAAAAAAAAAAAAAAAAAAAAAAAAAAAAAAAAAAAAAAAAAAAAAAAAAAAAAAAAAAAAAAAAAAAAAAAAAAAAAAAAAAAAAAAAAAAAAAAAAAAAAAAAAAAAAAAAAAAAAAAAAAAAAAAAAAAAAAAAAAAAAAAAAAAAAAAAAAAAAAAAAAAAAAAAAAAAAAAAAAAAAAAAAAAAAAAAAAAAAAAAAAAAAAAAAAAAAAAAAAAAAAAAAAAAAAAAAAAAAAAAAAAAAAAAAAAAAAAAAAAAAAAAAAAAAAAAAAAAAAAAAAAAAAAAAAAAAAAAAAAAAAAAAAAAAAAAAAAAAAAAAAAAAAAAAAAAAAAAAAAAAAAAAAAAAAAAAAAAAAAAAAAAAAAAAAAAAAAAAAAAAAAAAAAAAAAAAAAAAAAAAAAAAAAAAAAEYiSZL/H368Q5elyH1UAAAAAElFTkSuQmCC;clipPath=inset(23% 5.11% 23.67% 6%);" parent="1" vertex="1">
          <mxGeometry x="30" y="-350" width="120" height="100" as="geometry" />
        </mxCell>
        <mxCell id="y19TOjxqnlySfu77l5_V-4" style="edgeStyle=orthogonalEdgeStyle;rounded=0;orthogonalLoop=1;jettySize=auto;html=1;exitX=0;exitY=1;exitDx=0;exitDy=0;entryX=0;entryY=0.5;entryDx=0;entryDy=0;fontSize=12;strokeColor=#291466;fontColor=#291466;fillColor=none;strokeWidth=1;entryPerimeter=0;" parent="1" source="y19TOjxqnlySfu77l5_V-1" target="0C0zzfNq5MIXWUPN0tT3-20" edge="1">
          <mxGeometry relative="1" as="geometry">
            <mxPoint x="30" y="-230" as="sourcePoint" />
            <mxPoint x="70" y="-70" as="targetPoint" />
          </mxGeometry>
        </mxCell>
      </root>
    </mxGraphModel>
  </diagram>
</mxfile>
